<svg width="32" height="32" viewBox="0 0 32 32" fill="none" xmlns="http://www.w3.org/2000/svg">
<path d="M10.2122 16.3094C10.3456 15.9315 10.6664 15.6364 11.0688 15.5117C11.4711 15.387 11.8874 15.459 12.2209 15.7183L12.5543 15.9777C12.9492 16.2754 13.5037 16.2628 13.8921 15.9415L14.9161 15.0946C15.3044 14.7733 15.4208 14.2311 15.2024 13.7873L15.0102 13.4111C14.818 13.0349 14.8254 12.6125 15.0586 12.2115C15.2565 11.8397 15.6065 11.5799 16.0028 11.5197L16.4313 11.4626C16.9273 11.3794 17.2896 10.9906 17.3354 10.5067L17.4574 9.21644C17.5032 8.73258 17.2233 8.25047 16.7486 8.10793L16.3385 7.97149C15.9605 7.8381 15.6654 7.51727 15.5408 7.11493C15.4161 6.71259 15.488 6.2963 15.7151 5.95979L15.9745 5.62632C16.2722 5.2314 16.2596 4.67693 15.9383 4.28853L15.0914 3.26459C14.7701 2.8762 14.2279 2.75981 13.7841 2.97819L13.4079 3.17042C13.0317 3.36265 12.6093 3.35524 12.2083 3.12203C11.8365 2.92412 11.5767 2.57409 11.5165 2.17785L11.4594 1.74936C11.3762 1.2533 10.9874 0.891061 10.5035 0.845288L9.21323 0.723224C8.72938 0.677451 8.24727 0.957297 8.10472 1.432L7.96828 1.84218C7.83489 2.22011 7.51407 2.51521 7.11173 2.63988C6.70939 2.76454 6.2931 2.69261 5.95658 2.46551L5.62312 2.20614C5.22819 1.90842 4.67372 1.92105 4.28533 2.24231L3.26444 3.05701C2.87604 3.37826 2.75965 3.92053 2.97804 4.36428L3.17027 4.74047C3.3625 5.11665 3.35509 5.53904 3.12187 5.94007C2.92397 6.3119 2.57394 6.57169 2.18075 6.59959L1.75226 6.65669C1.2562 6.73994 0.89396 7.12877 0.848187 7.61262L0.726123 8.90289C0.68035 9.38674 0.960196 9.86886 1.43489 10.0114L1.84508 10.1478C2.22301 10.2812 2.51811 10.6021 2.64278 11.0044C2.76744 11.4067 2.69551 11.823 2.43615 12.1565L2.17678 12.49C1.87906 12.8849 1.89169 13.4394 2.21295 13.8277L3.06296 14.8194C3.38421 15.2078 3.92648 15.3242 4.37023 15.1058L4.74642 14.9136C5.1226 14.7214 5.54499 14.7288 5.94602 14.962C6.31785 15.1599 6.57764 15.5099 6.6378 15.9062L6.68879 16.3992C6.77205 16.8952 7.16087 17.2575 7.64472 17.3032L8.935 17.4253C9.41885 17.4711 9.90096 17.1912 10.0435 16.7165L10.2122 16.3094ZM9.23665 15.9568L9.0649 16.3961L7.74542 16.2388L7.65302 15.8395C7.55887 15.1146 7.10074 14.4529 6.41855 14.0954C6.14044 13.9389 5.85624 13.847 5.53367 13.8164C5.11433 13.7768 4.68583 13.8339 4.30965 14.0261L3.9012 14.2153L3.0573 13.1591L3.31667 12.8256C3.76173 12.2493 3.90253 11.449 3.6471 10.7089C3.42087 10.004 2.88907 9.43297 2.19773 9.17229L1.75834 9.00054L1.91571 7.68106L2.34421 7.62396C3.06912 7.52981 3.73082 7.07168 4.08827 6.3895C4.44266 5.73957 4.45444 4.92704 4.12534 4.27754L3.93616 3.8691L4.99236 3.0252L5.32582 3.28456C5.90209 3.72963 6.70545 3.83817 7.44257 3.615C8.14743 3.38877 8.71847 2.85697 8.97914 2.16563L9.15089 1.72624L10.4704 1.88361L10.5275 2.3121C10.6216 3.03701 11.0798 3.69872 11.7619 4.05616C12.4119 4.41056 13.2244 4.42234 13.8739 4.09323L14.2823 3.90405L15.1262 4.96025L14.8669 5.29372C14.4188 5.90224 14.281 6.6703 14.5364 7.41047C14.7627 8.11532 15.2945 8.68636 15.9858 8.94704L16.4252 9.11879L16.3031 10.4091L15.8393 10.4954C15.1144 10.5895 14.4527 11.0476 14.0953 11.7298C13.7409 12.3798 13.7291 13.1923 14.0582 13.8418L14.2474 14.2502L13.1912 15.0941L12.8577 14.8348C12.2492 14.3867 11.4811 14.2489 10.741 14.5043C10.0361 14.7306 9.46507 15.2624 9.23665 15.9568Z" fill="#D34C39" stroke="#D34C39" stroke-width="0.4"/>
<path d="M13.0101 9.44652C13.2146 7.28531 11.6083 5.34335 9.44706 5.13889C7.28585 4.93444 5.34388 6.54073 5.13943 8.70194C4.93497 10.8631 6.54126 12.8051 8.70247 13.0096C10.8959 13.2171 12.8056 11.6077 13.0101 9.44652ZM8.80317 11.9451C7.22259 11.7956 6.05437 10.3832 6.2039 8.80264C6.35343 7.22205 7.76577 6.05384 9.34635 6.20337C10.9269 6.3529 12.0951 7.76523 11.9456 9.34582C11.7961 10.9264 10.416 12.0977 8.80317 11.9451Z" fill="#D34C39" stroke="#D34C39" stroke-width="0.4"/>
<path d="M23.0423 23.1203L22.6966 22.99C22.3801 22.895 22.1434 22.6448 22.0449 22.31C21.9434 22.0075 22.0092 21.6557 22.1979 21.3806L22.422 21.0764C22.6844 20.7107 22.701 20.1915 22.3767 19.8354L21.6757 18.988C21.3837 18.6349 20.8737 18.5215 20.4652 18.7107L20.1244 18.8737C19.8188 19.0076 19.4932 19.0093 19.1828 18.8498C18.9047 18.6933 18.7033 18.4139 18.6371 18.0821L18.6031 17.7535C18.549 17.2927 18.1571 16.9627 17.7055 16.92L16.5766 16.8132C16.125 16.7705 15.6751 17.0534 15.5387 17.4636L15.4083 17.8092C15.3133 18.1257 15.0631 18.3624 14.7283 18.4609C14.4258 18.5625 14.074 18.4966 13.799 18.3079L13.4947 18.0838C13.129 17.8214 12.6068 17.8371 12.2537 18.1292L11.4063 18.8301C11.0532 19.1221 10.9399 19.6321 11.129 20.0406L11.2921 20.3815C11.4259 20.687 11.4276 21.0127 11.2681 21.323C11.1116 21.6011 10.8322 21.8025 10.5004 21.8688L10.1365 21.932C9.67572 21.986 9.34574 22.3779 9.30302 22.8295L9.19621 23.9585C9.15349 24.4101 9.43639 24.8599 9.84657 24.9964L10.1922 25.1267C10.5087 25.2217 10.7454 25.4719 10.8439 25.8067C10.9455 26.1092 10.8797 26.461 10.6909 26.7361L10.4668 27.0403C10.2044 27.406 10.2201 27.9283 10.5122 28.2813L11.2131 29.1287C11.5051 29.4818 12.0152 29.5952 12.4236 29.406L12.7645 29.243C13.07 29.1091 13.3957 29.1074 13.706 29.2669C13.9841 29.4234 14.1855 29.7028 14.2518 30.0346L14.315 30.3986C14.369 30.8593 14.7578 31.2215 15.2094 31.2643L16.3384 31.3711C16.79 31.4138 17.2399 31.1309 17.3763 30.7207L17.5067 30.375C17.6017 30.0586 17.8519 29.8219 18.1867 29.7234C18.5215 29.6249 18.841 29.6876 19.116 29.8764L19.4203 30.1004C19.786 30.3629 20.3052 30.3794 20.6613 30.0551L21.5087 29.3542C21.8618 29.0621 21.9751 28.5521 21.786 28.1437L21.6229 27.8028C21.4891 27.4972 21.4874 27.1716 21.6469 26.8613C21.8064 26.5509 22.0828 26.3818 22.4145 26.3155L22.7785 26.2523C23.2393 26.1983 23.5693 25.8064 23.612 25.3548L23.7188 24.2258C23.7353 23.7066 23.4817 23.2921 23.0423 23.1203ZM22.5597 25.1251L22.231 25.1591C21.5706 25.2593 21.0118 25.6621 20.6958 26.2505C20.3797 26.839 20.3771 27.5548 20.6478 28.1336L20.8169 28.41L20.0018 29.114L19.6975 28.8899C19.1797 28.5155 18.4761 28.3838 17.8388 28.5839C17.2015 28.784 16.7011 29.2574 16.4788 29.8873L16.416 30.2068L15.3485 30.1383L15.2853 29.7743C15.1851 29.114 14.7823 28.5551 14.1938 28.2391C13.9449 28.1179 13.693 28.029 13.4026 28.0015C13.0156 27.9649 12.6516 28.0281 12.3107 28.1911L12.0635 28.3956L11.3596 27.5804L11.5836 27.2762C11.9903 26.7614 12.0897 26.0548 11.8896 25.4175C11.6896 24.7802 11.2162 24.2797 10.5863 24.0574L10.2668 23.9947L10.2999 22.9563L10.6639 22.8931C11.3243 22.7929 11.8831 22.3901 12.1992 21.8016C12.5152 21.2132 12.5178 20.4974 12.2471 19.9185L12.078 19.6422L12.8931 18.9382L13.1974 19.1623C13.7153 19.5367 14.4188 19.6683 15.0561 19.4683C15.6934 19.2682 16.1938 18.7948 16.4161 18.1649L16.4789 17.8454L17.5464 17.9139L17.6096 18.2778C17.7099 18.9382 18.1127 19.4971 18.7011 19.8131C19.2896 20.1291 20.0053 20.1318 20.5842 19.8611L20.8606 19.6919L21.5646 20.5071L21.3405 20.8113C20.9338 21.3261 20.8344 22.0327 21.0345 22.67C21.2346 23.3073 21.708 23.8077 22.3378 24.0301L22.6574 24.0928L22.5597 25.1251Z" fill="#D34C39" stroke="#D34C39" stroke-width="0.4"/>
<path d="M16.7333 20.9939C15.056 20.8352 13.573 22.0618 13.4143 23.7392C13.2556 25.4165 14.4823 26.8995 16.1596 27.0582C17.837 27.2169 19.3199 25.9902 19.4786 24.3129C19.6373 22.6355 18.4107 21.1526 16.7333 20.9939ZM16.2573 26.026C15.1605 25.9222 14.3428 24.9336 14.4465 23.8368C14.5503 22.7401 15.5389 21.9223 16.6357 22.0261C17.7324 22.1299 18.5501 23.1185 18.4464 24.2152C18.3426 25.312 17.354 26.1297 16.2573 26.026Z" fill="#D34C39" stroke="#D34C39" stroke-width="0.4"/>
<path d="M30.6796 11.5407L30.3954 11.4487C30.1757 11.3629 29.9974 11.1833 29.922 10.9483C29.8466 10.7134 29.9032 10.4584 30.0183 10.274L30.204 10.0312C30.4634 9.6977 30.4416 9.24 30.1818 8.88997L29.5977 8.1838C29.3348 7.86603 28.8893 7.75879 28.4809 7.94797L28.2076 8.08484C28.0018 8.19556 27.7438 8.17115 27.4949 8.04996C27.2782 7.93183 27.1353 7.72303 27.0921 7.49113L27.0551 7.19472C26.998 6.76622 26.6383 6.43929 26.219 6.39962L25.2836 6.31113C24.8642 6.27146 24.4819 6.5282 24.3132 6.93533L24.2213 7.21954C24.1354 7.43924 23.9558 7.61752 23.7208 7.69293C23.4859 7.76834 23.2309 7.71167 23.0465 7.59659L22.8037 7.41089C22.4702 7.15153 22.0125 7.17332 21.6625 7.43311L20.9563 8.01722C20.6386 8.28007 20.5283 8.75782 20.7205 9.134L20.8574 9.40732C20.965 9.64532 20.9437 9.87112 20.8225 10.12C20.7044 10.3367 20.4956 10.4796 20.2637 10.5228L19.9672 10.5598C19.5388 10.6169 19.2149 10.9443 19.1722 11.3959L19.0837 12.3313C19.044 12.7507 19.3007 13.133 19.7079 13.3017L19.9921 13.3936C20.2118 13.4795 20.39 13.6591 20.4624 13.9263C20.5378 14.1613 20.4811 14.4163 20.3661 14.6007L20.1865 14.779C19.9271 15.1124 19.9489 15.5701 20.2087 15.9201L20.7928 16.6263C21.0556 16.9441 21.5011 17.0513 21.9096 16.8621L22.1829 16.7253C22.3886 16.6146 22.6467 16.639 22.8956 16.7602C23.1122 16.8783 23.2552 17.0871 23.2984 17.319L23.3354 17.6154C23.3925 18.0439 23.7199 18.3678 24.1715 18.4105L25.1069 18.499C25.5263 18.5387 25.9086 18.2819 26.0772 17.8748L26.1692 17.5906C26.2551 17.3709 26.4347 17.1926 26.6696 17.1172C26.9046 17.0418 27.1596 17.0985 27.344 17.2135L27.5868 17.3992C27.9203 17.6586 28.378 17.6368 28.728 17.377L29.4342 16.7929C29.7519 16.5301 29.8592 16.0846 29.67 15.6761L29.5331 15.4028C29.4224 15.1971 29.4468 14.939 29.568 14.6901C29.6861 14.4735 29.8949 14.3305 30.1268 14.2873L30.4232 14.2503C30.8517 14.1932 31.1756 13.8658 31.2183 13.4142L31.3068 12.4788C31.3434 12.0917 31.0867 11.7094 30.6796 11.5407ZM30.1922 13.2521L29.9956 13.266C29.4351 13.3432 28.9438 13.7198 28.6692 14.2145C28.3945 14.7093 28.4011 15.3283 28.6426 15.8718L28.7241 16.0423L28.1591 16.5096L28.007 16.3975C27.5506 16.0614 26.9438 15.9389 26.3711 16.1451C25.8336 16.3221 25.3715 16.734 25.1906 17.2702L25.1401 17.4607L24.4304 17.3935L24.4165 17.1969C24.3393 16.6364 23.9657 16.1128 23.4679 15.8705C22.9409 15.5928 22.325 15.5671 21.8106 15.8439L21.6402 15.9254L21.1729 15.3605L21.2849 15.2083C21.621 14.7519 21.7435 14.1452 21.5696 13.5754C21.3926 13.038 20.9807 12.5759 20.4445 12.395L20.2541 12.3444L20.3212 11.6348L20.5178 11.6208C21.0784 11.5437 21.6019 11.1701 21.8442 10.6723C22.1189 10.1776 22.1446 9.56164 21.8708 9.01501L21.7893 8.84457L22.3543 8.37729L22.5064 8.48932C22.9628 8.8254 23.5696 8.94789 24.1393 8.77397C24.6768 8.597 25.1388 8.18508 25.3197 7.64892L25.3703 7.45843L26.0799 7.52556L26.0939 7.72215C26.171 8.28273 26.5477 8.77399 27.0424 9.04862C27.5372 9.32324 28.1531 9.34896 28.6997 9.07522L28.8702 8.99371L29.3374 9.55864L29.2254 9.71077C28.8893 10.1672 28.7668 10.7739 28.973 11.3467C29.15 11.8842 29.5619 12.3462 30.0981 12.5272L30.2886 12.5777L30.2245 13.2551L30.1922 13.2521Z" fill="#D34C39" stroke="#D34C39" stroke-width="0.4"/>
<path d="M25.4222 10.0022C24.0996 9.87707 22.9345 10.8408 22.8093 12.1634C22.6842 13.4859 23.648 14.6511 24.9705 14.7762C26.2931 14.9013 27.4582 13.9375 27.5834 12.615C27.7085 11.2925 26.7447 10.1273 25.4222 10.0022ZM25.0682 13.744C24.3263 13.6738 23.7714 13.0029 23.8416 12.261C23.9117 11.5191 24.5826 10.9642 25.3245 11.0344C26.0664 11.1046 26.6213 11.7754 26.5511 12.5174C26.4809 13.2593 25.8101 13.8142 25.0682 13.744Z" fill="#D34C39" stroke="#D34C39" stroke-width="0.4"/>
</svg>
