<svg width="36" height="34" viewBox="0 0 36 34" fill="none" xmlns="http://www.w3.org/2000/svg">
<path d="M28.2 33V14.4741C28.2 14.0274 28.0209 13.599 27.7021 13.2832C27.3833 12.9673 26.9509 12.7899 26.5 12.7899H9.5C9.04913 12.7899 8.61673 12.9673 8.29792 13.2832C7.97911 13.599 7.8 14.0274 7.8 14.4741V33M7.8 19.5266H28.2M7.8 26.2633H28.2M35 29.6316C35 30.525 34.6418 31.3817 34.0042 32.0134C33.3665 32.6451 32.5017 33 31.6 33H4.4C3.49826 33 2.63346 32.6451 1.99584 32.0134C1.35821 31.3817 1 30.525 1 29.6316V11.1057C0.999625 10.4714 1.18004 9.84988 1.52049 9.31268C1.86094 8.77548 2.34758 8.34443 2.9244 8.06914L16.4394 1.37622C16.9221 1.12901 17.4575 1 18.0009 1C18.5442 1 19.0796 1.12901 19.5623 1.37622L33.0739 8.06914C33.651 8.34419 34.138 8.77514 34.4788 9.31236C34.8196 9.84958 35.0002 10.4712 35 11.1057V29.6316Z" stroke="#D34C39" stroke-width="2" stroke-linecap="round" stroke-linejoin="round"/>
</svg>
