<svg width="47" height="33" viewBox="0 0 47 33" fill="none" xmlns="http://www.w3.org/2000/svg">
<path d="M35.6172 7.36451L22.7635 1.0315C22.6749 0.987851 22.5707 0.989841 22.4838 1.03684L16.4557 4.29849L10.7794 7.36979C10.5674 7.48446 10.5661 7.7881 10.777 7.9046L22.4816 14.3695C22.5696 14.4182 22.676 14.4202 22.7659 14.375L35.6194 7.91015C35.8442 7.79709 35.8429 7.47572 35.6172 7.36451Z" stroke="#D44C39" stroke-width="2"/>
<path d="M13.8472 11.5322L10.7787 13.1944C10.5669 13.3091 10.5656 13.6125 10.7764 13.7291L22.4815 20.2016C22.5696 20.2503 22.6761 20.2524 22.766 20.2071L35.6202 13.7346C35.8448 13.6215 35.8435 13.3004 35.6179 13.1891L32.2589 11.5322" stroke="#D44C39" stroke-width="2"/>
<path d="M8.1816 13.8477L1.15324 17.9055C0.955721 18.0195 0.948856 18.3021 1.1406 18.4256L21.8985 31.7943C21.9951 31.8566 22.1186 31.8592 22.2177 31.801L45.0343 18.4202C45.2359 18.3019 45.2349 18.0102 45.0325 17.8933L38.0252 13.8476" stroke="#D44C39" stroke-width="2" stroke-linecap="round" stroke-dasharray="1.4 3.66"/>
<path d="M35.4382 16.999V20.1033C35.4382 20.2155 35.3765 20.3187 35.2777 20.3718L22.5613 27.2042L10.8101 20.6189C10.7139 20.565 10.6543 20.4633 10.6543 20.353L10.6543 16.999M22.5613 27.2042V23.3981" stroke="#D44C39" stroke-width="2" stroke-linecap="round"/>
<path d="M22.0195 7.24334C22.4767 7.37227 22.9718 7.18948 23.1274 6.83534C23.2831 6.4812 23.0377 6.09116 22.5805 5.96223C22.1233 5.8333 21.6282 6.01609 21.4726 6.37023C21.3169 6.72437 21.5623 7.11441 22.0195 7.24334Z" fill="#D44C39"/>
<path d="M21.3887 8.68572C21.8459 8.81465 22.3409 8.63187 22.4966 8.27773C22.6522 7.92358 22.4069 7.53354 21.9497 7.40461C21.4924 7.27569 20.9974 7.45847 20.8417 7.81261C20.6861 8.16675 20.9314 8.5568 21.3887 8.68572Z" fill="#D44C39"/>
<path d="M24.0273 7.80779C24.4846 7.93672 24.9796 7.75394 25.1353 7.3998C25.2909 7.04565 25.0455 6.65561 24.5883 6.52668C24.1311 6.39776 23.636 6.58054 23.4804 6.93468C23.3247 7.28882 23.5701 7.67887 24.0273 7.80779Z" fill="#D44C39"/>
<path d="M23.3887 9.26873C23.8459 9.39766 24.3409 9.21487 24.4966 8.86073C24.6522 8.50659 24.4069 8.11655 23.9497 7.98762C23.4924 7.85869 22.9974 8.04148 22.8417 8.39562C22.6861 8.74976 22.9314 9.1398 23.3887 9.26873Z" fill="#D44C39"/>
<path d="M26.0168 8.18135C26.3541 8.276 26.7216 8.14218 26.8362 7.87943C26.9507 7.61668 26.7702 7.32945 26.4319 7.23316C26.0936 7.13688 25.7271 7.27233 25.6126 7.53508C25.498 7.79783 25.6785 8.08506 26.0168 8.18135Z" fill="#D44C39"/>
<path d="M25.386 9.62471C25.7232 9.71936 26.0907 9.58554 26.2053 9.32279C26.3199 9.06004 26.1394 8.77281 25.801 8.67652C25.4627 8.58023 25.0963 8.71569 24.9817 8.97844C24.8671 9.24119 25.0476 9.52842 25.386 9.62471Z" fill="#D44C39"/>
<path d="M20.1418 6.5251C20.4791 6.61975 20.8466 6.48593 20.9612 6.22318C21.0757 5.96043 20.8952 5.6732 20.5569 5.57691C20.2186 5.48063 19.8521 5.61608 19.7376 5.87883C19.623 6.14158 19.8035 6.42881 20.1418 6.5251Z" fill="#D44C39"/>
<path d="M19.511 7.96846C19.8482 8.06311 20.2157 7.92929 20.3303 7.66654C20.4449 7.40379 20.2644 7.11656 19.926 7.02027C19.5877 6.92398 19.2213 7.05944 19.1067 7.32219C18.9921 7.58494 19.1726 7.87217 19.511 7.96846Z" fill="#D44C39"/>
<path d="M18.7101 5.9294C18.9263 5.98978 19.1609 5.90329 19.2344 5.73682C19.3079 5.57036 19.1922 5.38432 18.976 5.32393C18.7599 5.26355 18.5253 5.35004 18.4518 5.51651C18.3783 5.68297 18.494 5.86902 18.7101 5.9294Z" fill="#D44C39"/>
<path d="M18.0793 7.37178C18.2955 7.43217 18.53 7.34567 18.6035 7.17921C18.677 7.01274 18.5614 6.8267 18.3452 6.76631C18.129 6.70593 17.8944 6.79243 17.8209 6.95889C17.7474 7.12535 17.8631 7.3114 18.0793 7.37178Z" fill="#D44C39"/>
<path d="M27.4973 8.40694C27.7134 8.46732 27.948 8.38083 28.0215 8.21436C28.095 8.0479 27.9793 7.86185 27.7632 7.80147C27.547 7.74109 27.3124 7.82758 27.2389 7.99405C27.1654 8.16051 27.2811 8.34655 27.4973 8.40694Z" fill="#D44C39"/>
<path d="M26.8664 9.84932C27.0826 9.9097 27.3171 9.82321 27.3906 9.65675C27.4641 9.49028 27.3485 9.30424 27.1323 9.24385C26.9161 9.18347 26.6816 9.26996 26.6081 9.43643C26.5346 9.60289 26.6502 9.78894 26.8664 9.84932Z" fill="#D44C39"/>
<path d="M22.7668 5.53974C23.1041 5.6344 23.4716 5.50058 23.5862 5.23783C23.7007 4.97508 23.5202 4.68785 23.1819 4.59156C22.8436 4.49527 22.4771 4.63073 22.3626 4.89348C22.248 5.15623 22.4285 5.44346 22.7668 5.53974Z" fill="#D44C39"/>
<path d="M24.7746 6.1042C25.1119 6.19885 25.4794 6.06503 25.594 5.80228C25.7085 5.53953 25.528 5.2523 25.1897 5.15601C24.8514 5.05973 24.485 5.19518 24.3704 5.45793C24.2558 5.72068 24.4363 6.00791 24.7746 6.1042Z" fill="#D44C39"/>
<path d="M20.802 9.98213C21.1392 10.0768 21.5067 9.94296 21.6213 9.68021C21.7359 9.41746 21.5554 9.13023 21.2171 9.03394C20.8787 8.93766 20.5123 9.07311 20.3977 9.33586C20.2831 9.59861 20.4637 9.88584 20.802 9.98213Z" fill="#D44C39"/>
<path d="M22.8098 10.5485C23.147 10.6432 23.5146 10.5094 23.6291 10.2466C23.7437 9.98387 23.5632 9.69664 23.2249 9.60035C22.8865 9.50406 22.5201 9.63952 22.4055 9.90227C22.291 10.165 22.4715 10.4522 22.8098 10.5485Z" fill="#D44C39"/>
<path d="M24.7414 11.0935C25.0787 11.1881 25.4462 11.0543 25.5608 10.7915C25.6753 10.5288 25.4948 10.2416 25.1565 10.1453C24.8182 10.049 24.4518 10.1844 24.3372 10.4472C24.2226 10.7099 24.4031 10.9972 24.7414 11.0935Z" fill="#D44C39"/>
<path d="M18.8782 9.41084C19.2154 9.50549 19.5829 9.37167 19.6975 9.10892C19.8121 8.84617 19.6316 8.55894 19.2932 8.46265C18.9549 8.36637 18.5885 8.50182 18.4739 8.76457C18.3593 9.02732 18.5398 9.31455 18.8782 9.41084Z" fill="#D44C39"/>
<path d="M26.6848 6.65693C27.022 6.75159 27.3896 6.61776 27.5041 6.35502C27.6187 6.09227 27.4382 5.80504 27.0999 5.70875C26.7615 5.61246 26.3951 5.74792 26.2805 6.01067C26.166 6.27342 26.3465 6.56065 26.6848 6.65693Z" fill="#D44C39"/>
<path d="M20.8215 4.97627C21.1588 5.07092 21.5263 4.9371 21.6408 4.67435C21.7554 4.4116 21.5749 4.12437 21.2366 4.02808C20.8983 3.9318 20.5318 4.06725 20.4173 4.33C20.3027 4.59275 20.4832 4.87998 20.8215 4.97627Z" fill="#D44C39"/>
<path d="M22.4074 11.5124C22.6236 11.5728 22.8581 11.4863 22.9317 11.3198C23.0052 11.1534 22.8895 10.9673 22.6733 10.9069C22.4571 10.8466 22.2226 10.9331 22.1491 11.0995C22.0756 11.266 22.1912 11.452 22.4074 11.5124Z" fill="#D44C39"/>
<path d="M20.3976 10.946C20.6138 11.0064 20.8484 10.9199 20.9219 10.7534C20.9954 10.587 20.8797 10.4009 20.6635 10.3405C20.4474 10.2802 20.2128 10.3666 20.1393 10.5331C20.0658 10.6996 20.1815 10.8856 20.3976 10.946Z" fill="#D44C39"/>
<path d="M25.3293 4.8376C25.5455 4.89799 25.78 4.81149 25.8535 4.64503C25.927 4.47856 25.8114 4.29252 25.5952 4.23214C25.379 4.17175 25.1444 4.25825 25.0709 4.42471C24.9974 4.59117 25.1131 4.77722 25.3293 4.8376Z" fill="#D44C39"/>
<path d="M23.3215 4.27315C23.5377 4.33353 23.7722 4.24704 23.8457 4.08057C23.9192 3.91411 23.8036 3.72807 23.5874 3.66768C23.3712 3.6073 23.1366 3.69379 23.0631 3.86026C22.9896 4.02672 23.1053 4.21277 23.3215 4.27315Z" fill="#D44C39"/>
<ellipse cx="44.4213" cy="18.0405" rx="1.06584" ry="1.06584" fill="#D44C39"/>
<ellipse cx="1.25334" cy="18.1371" rx="1.06584" ry="1.06584" fill="#D44C39"/>
<ellipse cx="22.3041" cy="31.8959" rx="1.06584" ry="1.06584" fill="#D44C39"/>
</svg>
