<svg width="32" height="32" viewBox="0 0 32 32" fill="none" xmlns="http://www.w3.org/2000/svg">
<path d="M15.9998 17.3332C16.7362 17.3332 17.3332 16.7362 17.3332 15.9998C17.3332 15.2635 16.7362 14.6665 15.9998 14.6665C15.2635 14.6665 14.6665 15.2635 14.6665 15.9998C14.6665 16.7362 15.2635 17.3332 15.9998 17.3332Z" stroke="#D34C39" stroke-width="2.5" stroke-linecap="round" stroke-linejoin="round"/>
<path d="M26.9332 26.9332C29.6532 24.2265 26.9598 17.1198 20.9332 11.0665C14.8798 5.03985 7.77318 2.34651 5.06651 5.06651C2.34651 7.77318 5.03985 14.8798 11.0665 20.9332C17.1198 26.9598 24.2265 29.6532 26.9332 26.9332Z" stroke="#D34C39" stroke-width="2.5" stroke-linecap="round" stroke-linejoin="round"/>
<path d="M20.9332 20.9332C26.9598 14.8798 29.6532 7.77318 26.9332 5.06651C24.2265 2.34651 17.1198 5.03985 11.0665 11.0665C5.03985 17.1198 2.34651 24.2265 5.06651 26.9332C7.77318 29.6532 14.8798 26.9598 20.9332 20.9332Z" stroke="#D34C39" stroke-width="2.5" stroke-linecap="round" stroke-linejoin="round"/>
</svg>
