<svg width="32" height="30" viewBox="0 0 32 30" fill="none" xmlns="http://www.w3.org/2000/svg">
<path d="M5.21745 22.7778L8.32856 18.1111M11.4397 11.8889L14.5508 7.22222M17.6619 7.22222L20.773 11.8889M23.8841 18.1111L26.9952 22.7778M20.773 18.1111L17.6619 22.7778M11.4397 18.1111L14.5508 22.7778M12.9952 4.11111C12.9952 4.93623 13.323 5.72755 13.9064 6.311C14.4899 6.89445 15.2812 7.22222 16.1063 7.22222C16.9315 7.22222 17.7228 6.89445 18.3062 6.311C18.8897 5.72755 19.2174 4.93623 19.2174 4.11111C19.2174 3.28599 18.8897 2.49467 18.3062 1.91122C17.7228 1.32778 16.9315 1 16.1063 1C15.2812 1 14.4899 1.32778 13.9064 1.91122C13.323 2.49467 12.9952 3.28599 12.9952 4.11111ZM6.773 15C6.773 15.8251 7.10078 16.6164 7.68423 17.1999C8.26767 17.7833 9.059 18.1111 9.88411 18.1111C10.7092 18.1111 11.5006 17.7833 12.084 17.1999C12.6674 16.6164 12.9952 15.8251 12.9952 15C12.9952 14.1749 12.6674 13.3836 12.084 12.8001C11.5006 12.2167 10.7092 11.8889 9.88411 11.8889C9.059 11.8889 8.26767 12.2167 7.68423 12.8001C7.10078 13.3836 6.773 14.1749 6.773 15ZM12.9952 25.8889C12.9952 26.714 13.323 27.5053 13.9064 28.0888C14.4899 28.6722 15.2812 29 16.1063 29C16.9315 29 17.7228 28.6722 18.3062 28.0888C18.8897 27.5053 19.2174 26.714 19.2174 25.8889C19.2174 25.0638 18.8897 24.2724 18.3062 23.689C17.7228 23.1056 16.9315 22.7778 16.1063 22.7778C15.2812 22.7778 14.4899 23.1056 13.9064 23.689C13.323 24.2724 12.9952 25.0638 12.9952 25.8889ZM25.4397 25.8889C25.4397 26.714 25.7674 27.5053 26.3509 28.0888C26.9343 28.6722 27.7257 29 28.5508 29C29.3759 29 30.1672 28.6722 30.7507 28.0888C31.3341 27.5053 31.6619 26.714 31.6619 25.8889C31.6619 25.0638 31.3341 24.2724 30.7507 23.689C30.1672 23.1056 29.3759 22.7778 28.5508 22.7778C27.7257 22.7778 26.9343 23.1056 26.3509 23.689C25.7674 24.2724 25.4397 25.0638 25.4397 25.8889ZM0.550781 25.8889C0.550781 26.714 0.878558 27.5053 1.462 28.0888C2.04545 28.6722 2.83677 29 3.66189 29C4.48701 29 5.27833 28.6722 5.86178 28.0888C6.44523 27.5053 6.773 26.714 6.773 25.8889C6.773 25.0638 6.44523 24.2724 5.86178 23.689C5.27833 23.1056 4.48701 22.7778 3.66189 22.7778C2.83677 22.7778 2.04545 23.1056 1.462 23.689C0.878558 24.2724 0.550781 25.0638 0.550781 25.8889ZM19.2174 15C19.2174 15.8251 19.5452 16.6164 20.1287 17.1999C20.7121 17.7833 21.5034 18.1111 22.3286 18.1111C23.1537 18.1111 23.945 17.7833 24.5284 17.1999C25.1119 16.6164 25.4397 15.8251 25.4397 15C25.4397 14.1749 25.1119 13.3836 24.5284 12.8001C23.945 12.2167 23.1537 11.8889 22.3286 11.8889C21.5034 11.8889 20.7121 12.2167 20.1287 12.8001C19.5452 13.3836 19.2174 14.1749 19.2174 15Z" stroke="#D44C39" stroke-width="2" stroke-linecap="round" stroke-linejoin="round"/>
</svg>
