<svg width="108" height="108" viewBox="0 0 108 108" fill="none" xmlns="http://www.w3.org/2000/svg">
<path d="M54 14.625C54 18.106 55.3828 21.4444 57.8442 23.9058C60.3056 26.3672 63.644 27.75 67.125 27.75C70.606 27.75 73.9444 26.3672 76.4058 23.9058C78.8672 21.4444 80.25 18.106 80.25 14.625M54 14.625C54 11.144 55.3828 7.80564 57.8442 5.34422C60.3056 2.88281 63.644 1.5 67.125 1.5C70.606 1.5 73.9444 2.88281 76.4058 5.34422C78.8672 7.80564 80.25 11.144 80.25 14.625M54 14.625H1.5M80.25 14.625H106.5M14.625 54C14.625 57.481 16.0078 60.8194 18.4692 63.2808C20.9306 65.7422 24.269 67.125 27.75 67.125C31.231 67.125 34.5694 65.7422 37.0308 63.2808C39.4922 60.8194 40.875 57.481 40.875 54M14.625 54C14.625 50.519 16.0078 47.1806 18.4692 44.7192C20.9306 42.2578 24.269 40.875 27.75 40.875C31.231 40.875 34.5694 42.2578 37.0308 44.7192C39.4922 47.1806 40.875 50.519 40.875 54M14.625 54H1.5M40.875 54H106.5M73.6875 93.375C73.6875 96.856 75.0703 100.194 77.5317 102.656C79.9931 105.117 83.3315 106.5 86.8125 106.5C90.2935 106.5 93.6319 105.117 96.0933 102.656C98.5547 100.194 99.9375 96.856 99.9375 93.375M73.6875 93.375C73.6875 89.894 75.0703 86.5556 77.5317 84.0942C79.9931 81.6328 83.3315 80.25 86.8125 80.25C90.2935 80.25 93.6319 81.6328 96.0933 84.0942C98.5547 86.5556 99.9375 89.894 99.9375 93.375M73.6875 93.375H1.5M99.9375 93.375H106.5" stroke="#D44C39" stroke-width="3" stroke-linecap="round" stroke-linejoin="round"/>
</svg>
