<svg width="130" height="108" viewBox="0 0 130 108" fill="none" xmlns="http://www.w3.org/2000/svg">
<path d="M121.048 45.5093H107.781C101.851 45.5093 96.7561 40.7948 96.0994 34.507C94.1359 15.528 91.1309 1.5 77.8641 1.5C64.5972 1.5 61.2805 21.2052 61.2805 45.5093C61.2805 69.8135 57.9638 89.5186 44.6969 89.5186C31.43 89.5186 28.4317 75.5072 26.4616 56.5116C25.7983 50.2018 20.7104 45.5093 14.7669 45.5093H1.5" stroke="#D44C39" stroke-width="3" stroke-linecap="round" stroke-linejoin="round"/>
<path d="M128.128 90.1268H128.155M79.009 90.1268H79.0363M84.4667 98.3133H84.494M84.4667 81.9404H84.494M122.67 98.3133H122.698M103.568 106.5H103.596M103.568 73.7539H103.596M92.6532 103.771H92.6804M92.6532 76.4827H92.6804M114.484 103.771H114.511M114.484 76.4827H114.511M122.67 81.9404H122.698M98.1108 90.1268C98.1108 91.5743 98.6858 92.9625 99.7093 93.986C100.733 95.0095 102.121 95.5845 103.568 95.5845C105.016 95.5845 106.404 95.0095 107.428 93.986C108.451 92.9625 109.026 91.5743 109.026 90.1268C109.026 88.6794 108.451 87.2912 107.428 86.2677C106.404 85.2442 105.016 84.6692 103.568 84.6692C102.121 84.6692 100.733 85.2442 99.7093 86.2677C98.6858 87.2912 98.1108 88.6794 98.1108 90.1268Z" stroke="#D44C39" stroke-width="3" stroke-linecap="round" stroke-linejoin="round"/>
</svg>
