<svg width="87" height="108" viewBox="0 0 87 108" fill="none" xmlns="http://www.w3.org/2000/svg">
<path d="M43.5 59.25V27.75M59.25 43.5L43.5 27.75L27.75 43.5M75 1.5H80.25C81.6424 1.5 82.9777 2.05312 83.9623 3.03769C84.9469 4.02226 85.5 5.35761 85.5 6.75V80.25V101.25C85.5 102.642 84.9469 103.978 83.9623 104.962C82.9777 105.947 81.6424 106.5 80.25 106.5H14.625C11.144 106.5 7.80564 105.117 5.34422 102.656C2.88281 100.194 1.5 96.856 1.5 93.375V14.625C1.5 11.144 2.88281 7.80564 5.34422 5.34422C7.80564 2.88281 11.144 1.5 14.625 1.5M27.75 17.25L43.5 1.5L59.25 17.25" stroke="#D34C39" stroke-width="3" stroke-linecap="round" stroke-linejoin="round"/>
</svg>
