<svg width="108" height="108" viewBox="0 0 108 108" fill="none" xmlns="http://www.w3.org/2000/svg">
<path d="M60.563 73.6877C47.438 73.6877 27.7505 80.2502 27.7505 106.5" stroke="#D44C39" stroke-width="3" stroke-linecap="round" stroke-linejoin="round"/>
<path d="M1.5 21.1875V8.0625C1.5 6.32202 2.19141 4.65282 3.42211 3.42211C4.65282 2.19141 6.32202 1.5 8.0625 1.5H21.1875M47.4375 1.5H60.5625M86.8125 1.5H99.9375C101.678 1.5 103.347 2.19141 104.578 3.42211C105.809 4.65282 106.5 6.32202 106.5 8.0625V21.1875M106.5 47.4375V60.5625M106.5 86.8125V99.9375C106.5 101.678 105.809 103.347 104.578 104.578C103.347 105.809 101.678 106.5 99.9375 106.5H86.8125M1.5 60.5625C1.5 57.0815 2.88281 53.7431 5.34422 51.2817C7.80564 48.8203 11.144 47.4375 14.625 47.4375H47.4375C50.9185 47.4375 54.2569 48.8203 56.7183 51.2817C59.1797 53.7431 60.5625 57.0815 60.5625 60.5625V93.375C60.5625 96.856 59.1797 100.194 56.7183 102.656C54.2569 105.117 50.9185 106.5 47.4375 106.5H14.625C11.144 106.5 7.80564 105.117 5.34422 102.656C2.88281 100.194 1.5 96.856 1.5 93.375V60.5625Z" stroke="#D44C39" stroke-width="3" stroke-linecap="round" stroke-linejoin="round"/>
</svg>
