<svg width="93" height="108" viewBox="0 0 93 108" fill="none" xmlns="http://www.w3.org/2000/svg">
<path d="M27.75 59.25V14.625C27.75 12.5364 28.5797 10.5334 30.0565 9.05653C31.5334 7.57969 33.5364 6.75 35.625 6.75C37.7136 6.75 39.7166 7.57969 41.1935 9.05653C42.6703 10.5334 43.5 12.5364 43.5 14.625V54M43.5 51.375V40.875C43.5 38.7864 44.3297 36.7834 45.8065 35.3065C47.2834 33.8297 49.2864 33 51.375 33C53.4636 33 55.4666 33.8297 56.9435 35.3065C58.4203 36.7834 59.25 38.7864 59.25 40.875V54M59.25 46.125C59.25 44.0364 60.0797 42.0334 61.5565 40.5565C63.0334 39.0797 65.0364 38.25 67.125 38.25C69.2136 38.25 71.2166 39.0797 72.6935 40.5565C74.1703 42.0334 75 44.0364 75 46.125V54" stroke="#D44C39" stroke-width="3" stroke-linecap="round" stroke-linejoin="round"/>
<path d="M75 51.375C75 49.2864 75.8297 47.2834 77.3065 45.8065C78.7834 44.3297 80.7864 43.5 82.875 43.5C84.9636 43.5 86.9666 44.3297 88.4435 45.8065C89.9203 47.2834 90.75 49.2864 90.75 51.375V75C90.75 83.3543 87.4313 91.3665 81.5239 97.2739C75.6165 103.181 67.6043 106.5 59.25 106.5H48.75H49.842C44.6253 106.501 39.49 105.206 34.8973 102.732C30.3045 100.258 26.3982 96.6818 23.529 92.325L22.5 90.75C20.862 88.237 15.1115 78.213 5.2485 60.678C4.24286 58.8905 3.97424 56.7813 4.49976 54.7988C5.02528 52.8163 6.30348 51.1171 8.0625 50.0625C9.93691 48.941 12.1318 48.4766 14.2998 48.7429C16.4678 49.0091 18.4851 49.9908 20.0325 51.5325L27.75 59.25M12 6.75L6.75 1.5M6.75 27.75H1.5M59.25 6.75L64.5 1.5M64.5 22.5H69.75" stroke="#D44C39" stroke-width="3" stroke-linecap="round" stroke-linejoin="round"/>
</svg>
