<svg width="113" height="125" viewBox="0 0 113 125" fill="none" xmlns="http://www.w3.org/2000/svg">
<path d="M70.3064 41.6216L60.0514 18.1016C59.6817 17.2549 59.0732 16.5345 58.3002 16.0286C57.5273 15.5226 56.6235 15.2532 55.6997 15.2532C54.7759 15.2532 53.8722 15.5226 53.0992 16.0286C52.3263 16.5345 51.7177 17.2549 51.348 18.1016L41.0872 41.6216C39.9789 44.1649 37.9547 46.1949 35.4114 47.2974L11.8914 57.5582C11.0447 57.9279 10.3243 58.5365 9.81837 59.3094C9.31243 60.0824 9.04295 60.9861 9.04295 61.9099C9.04295 62.8337 9.31243 63.7375 9.81837 64.5104C10.3243 65.2834 11.0447 65.8919 11.8914 66.2616L35.4172 76.5166C37.9605 77.6249 39.9905 79.6549 41.093 82.1982L51.3539 105.724C51.7235 106.571 52.3321 107.291 53.105 107.797C53.878 108.303 54.7817 108.572 55.7055 108.572C56.6294 108.572 57.5331 108.303 58.306 107.797C59.079 107.291 59.6876 106.571 60.0572 105.724L70.3122 82.1982C71.4205 79.6549 73.4505 77.6249 75.9939 76.5166L99.5197 66.2616C100.366 65.8919 101.087 65.2834 101.593 64.5104C102.099 63.7375 102.368 62.8337 102.368 61.9099C102.368 60.9861 102.099 60.0824 101.593 59.3094C101.087 58.5365 100.366 57.9279 99.5197 57.5582L75.9939 47.2974C73.4505 46.1919 71.4203 44.1639 70.3122 41.6216M3.19971 9.40991L14.8664 21.0766M108.2 9.40991L96.533 21.0766M3.19971 114.41L14.8664 102.743M108.2 114.41L96.533 102.743" stroke="#D34C39" stroke-width="3" stroke-linecap="round" stroke-linejoin="round"/>
</svg>
