<svg width="108" height="108" viewBox="0 0 108 108" fill="none" xmlns="http://www.w3.org/2000/svg">
<path d="M1.5 27.75V14.625C1.5 11.144 2.88281 7.80564 5.34422 5.34422C7.80564 2.88281 11.144 1.5 14.625 1.5H27.75M1.5 80.25V93.375C1.5 96.856 2.88281 100.194 5.34422 102.656C7.80564 105.117 11.144 106.5 14.625 106.5H27.75M80.25 1.5H93.375C96.856 1.5 100.194 2.88281 102.656 5.34422C105.117 7.80564 106.5 11.144 106.5 14.625V27.75M80.25 106.5H93.375C96.856 106.5 100.194 105.117 102.656 102.656C105.117 100.194 106.5 96.856 106.5 93.375V80.25M54 57.2812L80.25 40.875M80.25 40.875V70.4062L54 86.8125V57.2812L27.75 40.875L54 24.4688L80.25 40.875Z" stroke="#D44C39" stroke-width="3" stroke-linecap="round" stroke-linejoin="round"/>
<path d="M27.7505 40.8748V70.406L54.0005 86.8123" stroke="#D44C39" stroke-width="3" stroke-linecap="round" stroke-linejoin="round"/>
</svg>
