<svg width="83" height="83" viewBox="0 0 83 83" fill="none" xmlns="http://www.w3.org/2000/svg">
<path d="M37.5 69.5H9.5C7.37827 69.5 5.34344 68.6571 3.84315 67.1569C2.34285 65.6566 1.5 63.6217 1.5 61.5V21.5C1.5 19.3783 2.34285 17.3434 3.84315 15.8431C5.34344 14.3429 7.37827 13.5 9.5 13.5H29.5M17.5 25.5L29.5 13.5L17.5 1.5M45.5 13.5H73.5C75.6217 13.5 77.6566 14.3429 79.1569 15.8431C80.6571 17.3434 81.5 19.3783 81.5 21.5V61.5C81.5 63.6217 80.6571 65.6566 79.1569 67.1569C77.6566 68.6571 75.6217 69.5 73.5 69.5H53.5M65.5 57.5L53.5 69.5L65.5 81.5M57.5 41.5C57.5 50.3366 50.3366 57.5 41.5 57.5C32.6634 57.5 25.5 50.3366 25.5 41.5C25.5 32.6634 32.6634 25.5 41.5 25.5C50.3366 25.5 57.5 32.6634 57.5 41.5Z" stroke="#D34C39" stroke-width="3" stroke-linecap="round" stroke-linejoin="round"/>
<path d="M40.0997 41.3398C41.0099 41.3398 41.7478 40.6165 41.7478 39.7243C41.7478 38.8321 41.0099 38.1089 40.0997 38.1089C39.1895 38.1089 38.4517 38.8321 38.4517 39.7243C38.4517 40.6165 39.1895 41.3398 40.0997 41.3398Z" fill="#D44C39"/>
<path d="M40.0997 44.9779C41.0099 44.9779 41.7478 44.2547 41.7478 43.3625C41.7478 42.4703 41.0099 41.7471 40.0997 41.7471C39.1895 41.7471 38.4517 42.4703 38.4517 43.3625C38.4517 44.2547 39.1895 44.9779 40.0997 44.9779Z" fill="#D44C39"/>
<path d="M44.1007 41.3398C45.0109 41.3398 45.7487 40.6165 45.7487 39.7243C45.7487 38.8321 45.0109 38.1089 44.1007 38.1089C43.1905 38.1089 42.4526 38.8321 42.4526 39.7243C42.4526 40.6165 43.1905 41.3398 44.1007 41.3398Z" fill="#D44C39"/>
<path d="M44.1022 45.0216C45.0123 45.0216 45.7502 44.2984 45.7502 43.4062C45.7502 42.514 45.0123 41.7908 44.1022 41.7908C43.192 41.7908 42.4541 42.514 42.4541 43.4062C42.4541 44.2984 43.192 45.0216 44.1022 45.0216Z" fill="#D44C39"/>
<path d="M47.9202 40.9186C48.5932 40.9186 49.1387 40.3839 49.1387 39.7242C49.1387 39.0645 48.5932 38.5298 47.9202 38.5298C47.2472 38.5298 46.7017 39.0645 46.7017 39.7242C46.7017 40.3839 47.2472 40.9186 47.9202 40.9186Z" fill="#D44C39"/>
<path d="M47.9202 44.5568C48.5932 44.5568 49.1387 44.022 49.1387 43.3624C49.1387 42.7027 48.5932 42.168 47.9202 42.168C47.2472 42.168 46.7017 42.7027 46.7017 43.3624C46.7017 44.022 47.2472 44.5568 47.9202 44.5568Z" fill="#D44C39"/>
<path d="M36.2112 40.9186C36.8842 40.9186 37.4297 40.3839 37.4297 39.7242C37.4297 39.0645 36.8842 38.5298 36.2112 38.5298C35.5382 38.5298 34.9927 39.0645 34.9927 39.7242C34.9927 40.3839 35.5382 40.9186 36.2112 40.9186Z" fill="#D44C39"/>
<path d="M36.2112 44.5568C36.8842 44.5568 37.4297 44.022 37.4297 43.3624C37.4297 42.7027 36.8842 42.168 36.2112 42.168C35.5382 42.168 34.9927 42.7027 34.9927 43.3624C34.9927 44.022 35.5382 44.5568 36.2112 44.5568Z" fill="#D44C39"/>
<path d="M33.2094 40.4887C33.64 40.4887 33.989 40.1465 33.989 39.7244C33.989 39.3024 33.64 38.9602 33.2094 38.9602C32.7788 38.9602 32.4297 39.3024 32.4297 39.7244C32.4297 40.1465 32.7788 40.4887 33.2094 40.4887Z" fill="#D44C39"/>
<path d="M33.2094 44.1269C33.64 44.1269 33.989 43.7847 33.989 43.3626C33.989 42.9406 33.64 42.5984 33.2094 42.5984C32.7788 42.5984 32.4297 42.9406 32.4297 43.3626C32.4297 43.7847 32.7788 44.1269 33.2094 44.1269Z" fill="#D44C39"/>
<path d="M50.7201 40.4887C51.1507 40.4887 51.4998 40.1465 51.4998 39.7244C51.4998 39.3024 51.1507 38.9602 50.7201 38.9602C50.2895 38.9602 49.9404 39.3024 49.9404 39.7244C49.9404 40.1465 50.2895 40.4887 50.7201 40.4887Z" fill="#D44C39"/>
<path d="M50.7201 44.1269C51.1507 44.1269 51.4998 43.7847 51.4998 43.3626C51.4998 42.9406 51.1507 42.5984 50.7201 42.5984C50.2895 42.5984 49.9404 42.9406 49.9404 43.3626C49.9404 43.7847 50.2895 44.1269 50.7201 44.1269Z" fill="#D44C39"/>
<path d="M40.0999 37.0429C40.7729 37.0429 41.3184 36.5081 41.3184 35.8485C41.3184 35.1888 40.7729 34.6541 40.0999 34.6541C39.4269 34.6541 38.8813 35.1888 38.8813 35.8485C38.8813 36.5081 39.4269 37.0429 40.0999 37.0429Z" fill="#D44C39"/>
<path d="M44.1009 37.0429C44.7738 37.0429 45.3194 36.5081 45.3194 35.8485C45.3194 35.1888 44.7738 34.6541 44.1009 34.6541C43.4279 34.6541 42.8823 35.1888 42.8823 35.8485C42.8823 36.5081 43.4279 37.0429 44.1009 37.0429Z" fill="#D44C39"/>
<path d="M40.0672 48.2592C40.7401 48.2592 41.2857 47.7244 41.2857 47.0648C41.2857 46.4051 40.7401 45.8704 40.0672 45.8704C39.3942 45.8704 38.8486 46.4051 38.8486 47.0648C38.8486 47.7244 39.3942 48.2592 40.0672 48.2592Z" fill="#D44C39"/>
<path d="M44.0677 48.2592C44.7406 48.2592 45.2862 47.7244 45.2862 47.0648C45.2862 46.4051 44.7406 45.8704 44.0677 45.8704C43.3947 45.8704 42.8491 46.4051 42.8491 47.0648C42.8491 47.7244 43.3947 48.2592 44.0677 48.2592Z" fill="#D44C39"/>
<path d="M47.9202 48.2592C48.5932 48.2592 49.1387 47.7244 49.1387 47.0648C49.1387 46.4051 48.5932 45.8704 47.9202 45.8704C47.2472 45.8704 46.7017 46.4051 46.7017 47.0648C46.7017 47.7244 47.2472 48.2592 47.9202 48.2592Z" fill="#D44C39"/>
<path d="M36.2112 48.195C36.8842 48.195 37.4297 47.6602 37.4297 47.0006C37.4297 46.3409 36.8842 45.8062 36.2112 45.8062C35.5382 45.8062 34.9927 46.3409 34.9927 47.0006C34.9927 47.6602 35.5382 48.195 36.2112 48.195Z" fill="#D44C39"/>
<path d="M47.9202 37.0746C48.5932 37.0746 49.1387 36.5399 49.1387 35.8802C49.1387 35.2205 48.5932 34.6858 47.9202 34.6858C47.2472 34.6858 46.7017 35.2205 46.7017 35.8802C46.7017 36.5399 47.2472 37.0746 47.9202 37.0746Z" fill="#D44C39"/>
<path d="M36.2112 37.0109C36.8842 37.0109 37.4297 36.4761 37.4297 35.8165C37.4297 35.1568 36.8842 34.6221 36.2112 34.6221C35.5382 34.6221 34.9927 35.1568 34.9927 35.8165C34.9927 36.4761 35.5382 37.0109 36.2112 37.0109Z" fill="#D44C39"/>
<path d="M44.1005 50.6801C44.5311 50.6801 44.8801 50.3379 44.8801 49.9159C44.8801 49.4938 44.5311 49.1516 44.1005 49.1516C43.6699 49.1516 43.3208 49.4938 43.3208 49.9159C43.3208 50.3379 43.6699 50.6801 44.1005 50.6801Z" fill="#D44C39"/>
<path d="M40.1 50.6801C40.5306 50.6801 40.8797 50.3379 40.8797 49.9159C40.8797 49.4938 40.5306 49.1516 40.1 49.1516C39.6694 49.1516 39.3203 49.4938 39.3203 49.9159C39.3203 50.3379 39.6694 50.6801 40.1 50.6801Z" fill="#D44C39"/>
<path d="M44.1005 33.8486C44.5311 33.8486 44.8801 33.5064 44.8801 33.0843C44.8801 32.6622 44.5311 32.3201 44.1005 32.3201C43.6699 32.3201 43.3208 32.6622 43.3208 33.0843C43.3208 33.5064 43.6699 33.8486 44.1005 33.8486Z" fill="#D44C39"/>
<path d="M40.1 33.8486C40.5306 33.8486 40.8797 33.5064 40.8797 33.0843C40.8797 32.6622 40.5306 32.3201 40.1 32.3201C39.6694 32.3201 39.3203 32.6622 39.3203 33.0843C39.3203 33.5064 39.6694 33.8486 40.1 33.8486Z" fill="#D44C39"/>
</svg>
