<svg width="80" height="80" viewBox="0 0 80 80" fill="none" xmlns="http://www.w3.org/2000/svg">
<g clip-path="url(#clip0_893_14646)">
<path d="M22.8422 18.553H57.154C59.5216 18.553 61.4429 20.4743 61.4429 22.8419V57.1576C61.4429 59.5253 59.5216 61.4466 57.154 61.4466H22.8422C20.4745 61.4466 18.5532 59.5253 18.5532 57.1576V22.8419C18.5532 20.4743 20.4745 18.553 22.8422 18.553Z" stroke="#D44C39" stroke-width="2.5" stroke-linecap="round" stroke-linejoin="round"/>
<path d="M36.3145 11.5159V18.5529" stroke="#D44C39" stroke-width="2.5" stroke-linecap="round" stroke-linejoin="round"/>
<path d="M43.8525 11.5159V18.5529" stroke="#D44C39" stroke-width="2.5" stroke-linecap="round" stroke-linejoin="round"/>
<path d="M40.0021 1.10596C42.0942 1.10596 43.7943 2.80602 43.7943 4.89811C43.7943 6.99019 42.0942 8.69026 40.0021 8.69026C37.91 8.69026 36.21 6.99019 36.21 4.89811C36.21 2.80602 37.91 1.10596 40.0021 1.10596Z" stroke="#D44C39" stroke-width="2.5" stroke-linecap="round" stroke-linejoin="round"/>
<path d="M25.4235 1.10596C27.5156 1.10596 29.2156 2.80602 29.2156 4.89811C29.2156 6.99019 27.5156 8.69026 25.4235 8.69026C23.3314 8.69026 21.6313 6.99019 21.6313 4.89811C21.6313 2.80602 23.3314 1.10596 25.4235 1.10596Z" stroke="#D44C39" stroke-width="2.5" stroke-linecap="round" stroke-linejoin="round"/>
<path d="M40.002 9.02783V18.5528" stroke="#D44C39" stroke-width="2.5" stroke-linecap="round" stroke-linejoin="round"/>
<path d="M28.4546 7.55713L32.4602 11.0155V18.5532" stroke="#D44C39" stroke-width="2.5" stroke-linecap="round" stroke-linejoin="round"/>
<path d="M54.5768 1.10596C52.4847 1.10596 50.7847 2.80602 50.7847 4.89811C50.7847 6.99019 52.4847 8.69026 54.5768 8.69026C56.6689 8.69026 58.369 6.99019 58.369 4.89811C58.369 2.80602 56.6689 1.10596 54.5768 1.10596Z" stroke="#D44C39" stroke-width="2.5" stroke-linecap="round" stroke-linejoin="round"/>
<path d="M51.5491 7.55713L47.5396 11.0155V18.5532" stroke="#D44C39" stroke-width="2.5" stroke-linecap="round" stroke-linejoin="round"/>
<path d="M11.5161 43.6851H18.5531" stroke="#D44C39" stroke-width="2.5" stroke-linecap="round" stroke-linejoin="round"/>
<path d="M11.5161 36.1475H18.5531" stroke="#D44C39" stroke-width="2.5" stroke-linecap="round" stroke-linejoin="round"/>
<path d="M1.10645 40.0019C1.10645 37.9098 2.80651 36.2097 4.8986 36.2097C6.99068 36.2097 8.69074 37.9098 8.69074 40.0019C8.69074 42.094 6.99068 43.794 4.8986 43.794C2.80651 43.794 1.10645 42.094 1.10645 40.0019Z" stroke="#D44C39" stroke-width="2.5" stroke-linecap="round" stroke-linejoin="round"/>
<path d="M1.10645 54.5763C1.10645 52.4842 2.80651 50.7842 4.8986 50.7842C6.99068 50.7842 8.69074 52.4842 8.69074 54.5763C8.69074 56.6684 6.99068 58.3685 4.8986 58.3685C2.80651 58.3685 1.10645 56.6684 1.10645 54.5763Z" stroke="#D44C39" stroke-width="2.5" stroke-linecap="round" stroke-linejoin="round"/>
<path d="M9.02832 40.0017H18.5533" stroke="#D44C39" stroke-width="2.5" stroke-linecap="round" stroke-linejoin="round"/>
<path d="M7.55322 51.5452L11.0155 47.5396H18.5532" stroke="#D44C39" stroke-width="2.5" stroke-linecap="round" stroke-linejoin="round"/>
<path d="M1.10645 25.4233C1.10645 27.5153 2.80651 29.2154 4.8986 29.2154C6.99068 29.2154 8.69074 27.5153 8.69074 25.4233C8.69074 23.3312 6.99068 21.6311 4.8986 21.6311C2.80651 21.6311 1.10645 23.3273 1.10645 25.4233Z" stroke="#D44C39" stroke-width="2.5" stroke-linecap="round" stroke-linejoin="round"/>
<path d="M7.55322 28.4546L11.0155 32.4602H18.5532" stroke="#D44C39" stroke-width="2.5" stroke-linecap="round" stroke-linejoin="round"/>
<path d="M68.4838 43.6851H61.4468" stroke="#D44C39" stroke-width="2.5" stroke-linecap="round" stroke-linejoin="round"/>
<path d="M68.4838 36.1475H61.4468" stroke="#D44C39" stroke-width="2.5" stroke-linecap="round" stroke-linejoin="round"/>
<path d="M78.8939 40.0019C78.8939 37.9098 77.1938 36.2097 75.1017 36.2097C73.0096 36.2097 71.3096 37.9098 71.3096 40.0019C71.3096 42.094 73.0096 43.794 75.1017 43.794C77.1938 43.794 78.8939 42.094 78.8939 40.0019Z" stroke="#D44C39" stroke-width="2.5" stroke-linecap="round" stroke-linejoin="round"/>
<path d="M78.8939 54.5763C78.8939 52.4842 77.1938 50.7842 75.1017 50.7842C73.0096 50.7842 71.3096 52.4842 71.3096 54.5763C71.3096 56.6684 73.0096 58.3685 75.1017 58.3685C77.1938 58.3685 78.8939 56.6684 78.8939 54.5763Z" stroke="#D44C39" stroke-width="2.5" stroke-linecap="round" stroke-linejoin="round"/>
<path d="M70.9718 40.0017H61.4468" stroke="#D44C39" stroke-width="2.5" stroke-linecap="round" stroke-linejoin="round"/>
<path d="M72.4467 51.5452L68.9845 47.5396H61.4468" stroke="#D44C39" stroke-width="2.5" stroke-linecap="round" stroke-linejoin="round"/>
<path d="M78.8939 25.4233C78.8939 27.5153 77.1938 29.2154 75.1017 29.2154C73.0096 29.2154 71.3096 27.5153 71.3096 25.4233C71.3096 23.3312 73.0096 21.6311 75.1017 21.6311C77.1938 21.6311 78.8939 23.3273 78.8939 25.4233Z" stroke="#D44C39" stroke-width="2.5" stroke-linecap="round" stroke-linejoin="round"/>
<path d="M72.4467 28.4546L68.9845 32.4602H61.4468" stroke="#D44C39" stroke-width="2.5" stroke-linecap="round" stroke-linejoin="round"/>
<path d="M36.3145 68.4836V61.4465" stroke="#D44C39" stroke-width="2.5" stroke-linecap="round" stroke-linejoin="round"/>
<path d="M43.8525 68.4836V61.4465" stroke="#D44C39" stroke-width="2.5" stroke-linecap="round" stroke-linejoin="round"/>
<path d="M40.0021 78.8936C42.0942 78.8936 43.7943 77.1936 43.7943 75.1015C43.7943 73.0094 42.0942 71.3093 40.0021 71.3093C37.91 71.3093 36.21 73.0094 36.21 75.1015C36.21 77.1936 37.91 78.8936 40.0021 78.8936Z" stroke="#D44C39" stroke-width="2.5" stroke-linecap="round" stroke-linejoin="round"/>
<path d="M25.4235 78.8936C27.5156 78.8936 29.2156 77.1936 29.2156 75.1015C29.2156 73.0094 27.5156 71.3093 25.4235 71.3093C23.3314 71.3093 21.6313 73.0094 21.6313 75.1015C21.6313 77.1936 23.3314 78.8936 25.4235 78.8936Z" stroke="#D44C39" stroke-width="2.5" stroke-linecap="round" stroke-linejoin="round"/>
<path d="M40.002 70.9715V61.4465" stroke="#D44C39" stroke-width="2.5" stroke-linecap="round" stroke-linejoin="round"/>
<path d="M28.4546 72.4465L32.4602 68.9881V61.4465" stroke="#D44C39" stroke-width="2.5" stroke-linecap="round" stroke-linejoin="round"/>
<path d="M54.5768 78.8936C52.4847 78.8936 50.7847 77.1936 50.7847 75.1015C50.7847 73.0094 52.4847 71.3093 54.5768 71.3093C56.6689 71.3093 58.369 73.0094 58.369 75.1015C58.369 77.1936 56.6689 78.8936 54.5768 78.8936Z" stroke="#D44C39" stroke-width="2.5" stroke-linecap="round" stroke-linejoin="round"/>
<path d="M51.5491 72.4465L47.5396 68.9881V61.4465" stroke="#D44C39" stroke-width="2.5" stroke-linecap="round" stroke-linejoin="round"/>
<path d="M32.4604 46.8487L37.6422 33.1511L42.82 46.8487" stroke="#D44C39" stroke-width="2.5" stroke-linecap="round" stroke-linejoin="round"/>
<path d="M34.3271 41.9114H40.747" stroke="#D44C39" stroke-width="2.5" stroke-linecap="round" stroke-linejoin="round"/>
<path d="M47.5396 33.1511V46.8487" stroke="#D44C39" stroke-width="2.5" stroke-linecap="round" stroke-linejoin="round"/>
</g>
<defs>
<clipPath id="clip0_893_14646">
<rect width="80" height="80" fill="white"/>
</clipPath>
</defs>
</svg>
