<svg width="108" height="108" viewBox="0 0 108 108" fill="none" xmlns="http://www.w3.org/2000/svg">
<path d="M1.5 106.5L67.125 40.875M67.125 40.875V8.0625L40.875 34.3125M67.125 40.875H99.9375M40.875 34.3125V67.125H73.6875M40.875 34.3125L14.625 60.5625V93.375H47.4375" stroke="#D44C39" stroke-width="3" stroke-linecap="round" stroke-linejoin="round"/>
<path d="M67.125 8.0625C71.2987 3.90844 77.0541 1.5 83.4197 1.5C86.4495 1.49828 89.4499 2.09344 92.2496 3.25149C95.0494 4.40954 97.5935 6.1078 99.7368 8.24926C101.88 10.3907 103.581 12.9334 104.741 15.7322C105.901 18.5309 106.499 21.5308 106.5 24.5606C106.5 30.9328 104.124 36.7013 99.9375 40.875L73.6875 67.125L47.4375 93.375" stroke="#D44C39" stroke-width="3" stroke-linecap="round" stroke-linejoin="round"/>
</svg>
