<svg width="62" height="108" viewBox="0 0 62 108" fill="none" xmlns="http://www.w3.org/2000/svg">
<path d="M19 30.6667C19 27.5725 20.2292 24.605 22.4171 22.4171C24.605 20.2292 27.5725 19 30.6667 19C33.7609 19 36.7283 20.2292 38.9162 22.4171C41.1042 24.605 42.3333 27.5725 42.3333 30.6667C42.3333 33.7609 41.1042 36.7283 38.9162 38.9162C36.7283 41.1042 33.7609 42.3333 30.6667 42.3333C27.5725 42.3333 24.605 41.1042 22.4171 38.9162C20.2292 36.7283 19 33.7609 19 30.6667Z" stroke="#D44C39" stroke-width="3" stroke-linecap="round" stroke-linejoin="round"/>
<path d="M30.6667 57.5V86.6667M1.5 19C1.5 14.3587 3.34374 9.90752 6.62563 6.62563C9.90752 3.34375 14.3587 1.5 19 1.5H42.3333C46.9746 1.5 51.4258 3.34375 54.7077 6.62563C57.9896 9.90752 59.8333 14.3587 59.8333 19V89C59.8333 93.6413 57.9896 98.0925 54.7077 101.374C51.4258 104.656 46.9746 106.5 42.3333 106.5H19C14.3587 106.5 9.90752 104.656 6.62563 101.374C3.34374 98.0925 1.5 93.6413 1.5 89V19Z" stroke="#D44C39" stroke-width="3" stroke-linecap="round" stroke-linejoin="round"/>
</svg>
