<svg width="109" height="110" viewBox="0 0 109 110" fill="none" xmlns="http://www.w3.org/2000/svg">
<path d="M31.5303 2.67581L35.949 3.09384C37.5135 3.24195 38.7728 4.4122 39.0433 6.02329L39.0434 6.02231L39.2387 7.48372L39.2393 7.48771C39.4552 8.90964 40.3843 10.1574 41.7048 10.8628L41.7047 10.8638C43.1349 11.6955 44.654 11.7244 46.0047 11.0342L47.2891 10.3769L47.29 10.3779C48.7254 9.67158 50.4824 10.0468 51.5241 11.3062L54.4235 14.8127C55.4645 16.0712 55.5054 17.8658 54.5445 19.1431L53.6557 20.2852L53.6478 20.2962C52.8377 21.4966 52.5803 22.9849 53.0259 24.423C53.4699 25.8558 54.5234 27.0053 55.882 27.4849L55.8819 27.4858L55.8849 27.4861L57.2895 27.9535L57.2952 27.955C58.8176 28.4122 59.7298 29.9661 59.5809 31.5407L59.1629 35.9595C59.024 37.4263 57.9864 38.6256 56.5296 38.9925L56.2335 39.0538L54.7721 39.249L54.7691 39.2497C53.347 39.4656 52.0984 40.3945 51.3929 41.7152C50.5613 43.1453 50.5314 44.6643 51.2216 46.015L51.8789 47.2994L51.8788 47.3004C52.5851 48.7358 52.2089 50.4928 50.9496 51.5344L47.4441 54.434C46.1847 55.4756 44.3884 55.5156 43.1109 54.5528L43.1099 54.5527L41.9716 53.6661C40.7771 52.7371 39.2831 52.4798 37.8443 52.9255C36.415 53.3683 35.2671 54.4175 34.7853 55.7711L34.2081 57.1653L34.2043 57.1748L34.2013 57.1853C33.744 58.7075 32.1902 59.6189 30.6157 59.4701L26.1969 59.052C24.6325 58.9039 23.3731 57.7337 23.1026 56.1226L23.1017 56.1225L22.9297 54.4465L22.9276 54.4375L22.8791 54.172C22.6127 52.9462 21.8138 51.8717 20.6995 51.1966L20.4556 51.0578C19.0273 50.2297 17.511 50.2008 16.1623 50.89L14.8769 51.5473C13.4415 52.2535 11.6845 51.8783 10.6428 50.619L10.6411 50.6159L7.73195 47.2223L7.73292 47.2224C6.69117 45.9629 6.65105 44.1667 7.61413 42.8892L7.61325 42.8881L8.50077 41.7499C9.42959 40.5555 9.68692 39.0621 9.24132 37.6235C8.79733 36.1906 7.7439 35.0402 6.38526 34.5607L6.38146 34.5593L4.97685 34.0919L4.97111 34.0904L4.69296 33.9925C3.33897 33.4393 2.5467 31.981 2.68635 30.5048L3.10428 26.087C3.25215 24.524 4.42019 23.2645 6.02887 22.9923L7.49417 22.7974L7.49329 22.7963C8.91616 22.691 10.1647 21.7523 10.8666 20.4336C11.6943 19.0055 11.7234 17.4898 11.0343 16.1412L10.377 14.8559L10.378 14.856C9.67211 13.4215 10.0458 11.6655 11.3032 10.6235L11.304 10.6246L14.7991 7.83489L14.8023 7.83225C15.9831 6.85563 17.6359 6.75958 18.8905 7.5451L19.1354 7.71443L20.2748 8.60009L20.3976 8.44299L20.2747 8.60107L20.2859 8.608C21.4862 9.41812 22.9744 9.67648 24.4125 9.23088C25.8454 8.78688 26.9949 7.7333 27.4744 6.37472L27.4754 6.37481L27.4758 6.37092L27.9431 4.96632L27.9447 4.96057C28.402 3.43838 29.9558 2.52697 31.5303 2.67581ZM56.4587 31.0943L56.3178 31.0388L54.8137 30.4511L54.8109 30.4499C52.5025 29.5794 50.7249 27.6717 49.9683 25.3147L49.9668 25.3107L49.8223 24.8468C49.1762 22.5244 49.6649 20.1546 51.0664 18.2491L51.0673 18.2501L51.9552 17.108L52.0523 16.9837L51.9531 16.8606L49.064 13.2443L48.9658 13.1212L48.8232 13.1872L47.425 13.8347L47.4188 13.8381C45.2539 14.935 42.5409 14.8961 40.3728 13.7139L40.3699 13.7127L39.9508 13.4769C37.9037 12.2411 36.5427 10.1567 36.2485 7.89142L36.2475 7.89132L36.0528 6.42408L36.0321 6.27008L35.8779 6.25156L31.3597 5.71231L31.2055 5.6938L31.1497 5.83859L30.5611 7.34258L30.5608 7.3455C29.6902 9.65402 27.7818 11.4314 25.4246 12.188C22.9537 12.935 20.2738 12.567 18.36 11.089L18.361 11.0891L17.2188 10.2012L17.0946 10.1041L16.9715 10.2033L13.3542 13.0923L13.2321 13.1906L13.298 13.3332L13.9456 14.7314L13.9489 14.7376C15.0459 16.9025 15.0069 19.6155 13.8248 21.7836L13.8226 21.7864C12.6283 24.0657 10.4185 25.594 8.0023 25.9079L8.00124 25.9088L6.534 26.1035L6.37999 26.1242L6.36148 26.2784L5.8232 30.7967L5.80469 30.9509L5.94851 31.0067L7.45346 31.5954L7.45541 31.5955C9.76405 32.466 11.5423 34.3745 12.2989 36.7318L12.3004 36.7358C13.1 39.0529 12.7354 41.5443 11.4653 43.4281L11.2 43.7954L10.3121 44.9376L10.215 45.0618L10.3132 45.1849L13.2032 48.8022L13.3015 48.9243L13.4431 48.8583L14.8423 48.2108L14.8495 48.2076C16.0968 47.5703 17.5241 47.3777 18.9303 47.5107C19.8715 47.5997 20.7139 47.845 21.532 48.2551L21.8812 48.4412L21.8869 48.4437C24.1663 49.638 25.6945 51.8486 26.0083 54.2649L26.0093 54.2748L26.0114 54.2839L26.3283 55.6518L26.3596 55.7882L26.4992 55.8053L31.0174 56.3436L31.1716 56.3621L31.2274 56.2183L31.8161 54.7133L31.82 54.7029C32.5805 52.3914 34.4837 50.6143 36.8417 49.8575L36.8457 49.8559C39.161 49.0569 41.5576 49.4098 43.5234 50.6906L43.9109 50.9598L45.0484 51.8443L45.1727 51.9414L45.2957 51.8432L48.9121 48.9531L49.0352 48.8549L48.9692 48.7133L48.3217 47.3141L48.3184 47.3079L48.1259 46.8953C47.2308 44.8056 47.3342 42.2944 48.4425 40.2619L48.4437 40.2591C49.5635 38.122 51.5764 36.6456 53.8147 36.2108L54.265 36.1376L54.276 36.1357L55.8635 35.8406L56.0124 35.8125L56.4587 31.0943Z" fill="#D34C39" stroke="white" stroke-width="0.4"/>
<path d="M32.3302 17.7974C39.6207 18.4872 45.0405 25.0395 44.3508 32.3301C43.6609 39.6216 37.218 45.0506 29.8181 44.3507C22.5276 43.661 17.1079 37.1086 17.7975 29.8181C18.4872 22.5274 25.0395 17.1077 32.3302 17.7974ZM32.0231 21.0437C26.5007 20.5212 21.5662 24.6028 21.0437 30.1252C20.5214 35.6474 24.6031 40.5811 30.1253 41.1035C35.7594 41.6364 40.5812 37.5436 41.1036 32.0229C41.626 26.5006 37.5453 21.5662 32.0231 21.0437Z" fill="#D34C39" stroke="white" stroke-width="0.4"/>
<path d="M56.7428 57.7738L60.6094 58.1395C62.0744 58.2783 63.3279 59.3449 63.5022 60.8135L63.5021 60.8145L63.6183 61.9398L63.6194 61.9497L63.6214 61.9588C63.8593 63.1496 64.5835 64.1571 65.5886 64.7227L65.5952 64.7263C66.7148 65.3018 67.893 65.2946 68.9907 64.814L68.9969 64.8107L70.161 64.2528L70.1619 64.2539C71.478 63.6443 73.1263 64.0101 74.0686 65.1492L76.4691 68.0503L76.6233 67.9237L76.469 68.0513L76.4753 68.0578C77.5122 69.1965 77.4677 70.8663 76.6171 72.0538L75.8505 73.0965L75.846 73.102C75.1712 74.0856 74.9288 75.3509 75.2956 76.4527L75.2955 76.4537C75.6488 77.6543 76.5011 78.5624 77.6486 78.9119L77.6485 78.9128L78.8316 79.3583C80.1576 79.8774 80.9675 81.0832 81.019 82.6355L81.0197 82.9387L80.654 86.8042C80.5153 88.2707 79.4468 89.5251 77.9761 89.6977L77.9651 89.6996L76.7185 89.9161L76.7135 89.9166C75.5319 90.1527 74.5261 90.7619 73.946 91.8904C73.3704 93.01 73.3785 94.1883 73.8592 95.2859L73.8615 95.2921L74.4201 96.4592C75.0284 97.775 74.6624 99.4231 73.5239 100.365L70.6219 102.764L70.6145 102.77C69.4751 103.808 67.8032 103.763 66.6157 102.911L65.5767 102.146L65.5712 102.141L65.3836 102.02C64.438 101.437 63.3508 101.257 62.2185 101.591C61.018 101.944 60.1089 102.796 59.7594 103.944L59.3129 105.128L59.3113 105.134C58.8754 106.445 57.4252 107.364 55.9657 107.226L52.0991 106.86C50.643 106.722 49.3898 105.552 49.2162 104.071L49.2142 104.06L48.9987 102.814L48.9972 102.809C48.7593 101.618 48.0359 100.611 47.031 100.045L47.0235 100.041C45.9039 99.466 44.7255 99.4739 43.6279 99.9546L43.6218 99.9569L42.4566 100.515C41.2228 101.086 39.6969 100.8 38.7347 99.8232L38.55 99.6194L36.1495 96.7173C35.208 95.5789 35.1576 93.8922 36.0015 92.7139L36.769 91.6722L36.7725 91.6666C37.4491 90.6807 37.6914 89.4106 37.3209 88.3068C36.9661 87.1098 36.1155 86.2034 34.9701 85.8548L34.971 85.8549L33.7871 85.4084L33.7794 85.4067L33.5382 85.3132C32.358 84.7893 31.5595 83.4294 31.6888 82.0611L32.0545 78.1946C32.1934 76.7282 33.2618 75.4737 34.7325 75.3011L34.7435 75.2992L35.99 75.0837L35.9951 75.0822C37.1855 74.8443 38.1924 74.1207 38.758 73.1159L38.759 73.116L38.7616 73.1084C39.3371 71.9887 39.3301 70.8106 38.8494 69.7129L38.847 69.7068L38.2885 68.5396C37.6804 67.2239 38.0463 65.5766 39.1846 64.635L42.0867 62.2345C43.225 61.2931 44.9119 61.2418 46.0902 62.0855L46.0901 62.0865L47.1318 62.854L47.1374 62.8575C48.1233 63.5341 49.3933 63.7764 50.4971 63.4059L50.4962 63.4048C51.6932 63.0502 52.6002 62.2011 52.9491 61.056L53.3946 59.872L53.208 59.8014L53.3956 59.8721L53.3973 59.8644C53.8332 58.5539 55.2833 57.6358 56.7428 57.7738ZM77.801 82.3409L77.6229 82.3054L76.5452 82.0936C74.4551 81.3517 72.8832 79.69 72.2177 77.5702C71.55 75.4435 71.885 73.0942 73.232 71.3892L73.2365 71.3837L74.003 70.3419L74.0976 70.2136L73.9933 70.0928L71.5833 67.3017L71.4719 67.1725L71.3271 67.2618L70.3881 67.8351C68.463 68.7306 66.0848 68.7198 64.1316 67.6709C62.2932 66.6835 61.0007 64.9868 60.5714 62.968L60.4972 62.5598L60.4966 62.5558L60.2801 61.3091L60.2536 61.1536L60.0956 61.1436L56.4403 60.9096L56.2648 60.8979L56.2309 61.0703L56.0202 62.146C55.2788 64.2372 53.6162 65.8097 51.4957 66.4755C49.3761 67.1409 47.0323 66.703 45.3083 65.4566L45.3073 65.4565L44.2674 64.6901L44.139 64.5955L44.0183 64.6999L41.2271 67.1108L41.098 67.2212L41.1873 67.366L41.7598 68.303C42.6563 70.2285 42.6456 72.6076 41.5964 74.5615C40.5432 76.5226 38.6828 77.8623 36.4853 78.1959L36.4813 78.1965L35.2346 78.4131L35.0741 78.441L35.0694 78.6044L34.9558 82.1593L34.9504 82.3295L35.1171 82.3619L36.1937 82.5736C38.2843 83.3153 39.8566 84.978 40.5222 87.0981C41.1897 89.2247 40.8547 91.5741 39.5078 93.279L39.5034 93.2845L38.7368 94.3263L38.6413 94.4546L38.7456 94.5753L41.1565 97.3666L41.2847 97.515L41.4358 97.39L42.2628 96.7051C43.3898 96.1709 44.5925 95.9643 45.8743 96.0855C46.8341 96.1763 47.6711 96.4698 48.5069 96.876L48.5079 96.8761C50.4689 97.9293 51.8086 99.7897 52.1423 101.987L52.1429 101.991L52.3594 103.238L52.3869 103.393L52.5439 103.403L56.1992 103.637L56.3747 103.649L56.4086 103.477L56.6208 102.395C57.3632 100.307 59.0253 98.7367 61.1438 98.0715C63.2627 97.4063 65.6065 97.8428 67.3304 99.0883L67.3304 99.0893L68.3721 99.8569L68.5005 99.9514L68.6221 99.8472L71.4133 97.4372L71.5415 97.3258L71.4532 97.1811L70.8814 96.2471C69.9835 94.3211 69.9934 91.9403 71.0431 89.9854C72.0958 88.0253 73.9551 86.6852 76.1513 86.3508L77.2706 86.236L77.4341 86.2191L77.801 82.3409Z" fill="#D34C39" stroke="white" stroke-width="0.4"/>
<path d="M57.2834 72.0908C62.917 72.6239 67.036 77.6045 66.503 83.2381C65.9699 88.8716 60.9901 92.9906 55.3566 92.4578C49.723 91.9249 45.6032 86.945 46.136 81.3114C46.6689 75.6776 51.6496 71.5578 57.2834 72.0908ZM56.9867 75.2272C53.1212 74.8615 49.638 77.7426 49.2723 81.6081C48.9069 85.4734 51.788 88.9558 55.6534 89.3215C59.5186 89.6869 63.0008 86.8066 63.3666 82.9414C63.7323 79.0761 60.852 75.593 56.9867 75.2272Z" fill="#D34C39" stroke="white" stroke-width="0.4"/>
<path d="M86.5579 21.8127L89.7614 22.1158C91.0247 22.2354 92.1175 23.1671 92.3996 24.4126L92.4443 24.6659L92.5712 25.6785L92.7697 25.6541L92.5711 25.6795L92.573 25.6904C92.7213 26.4877 93.1921 27.2122 93.9073 27.6578L94.0532 27.7433L94.0616 27.748C94.9479 28.1794 95.9028 28.2826 96.6835 27.8626L97.6144 27.3964C98.9311 26.7893 100.356 27.1382 101.196 28.1531L103.196 30.572C104.033 31.7078 104.091 33.1706 103.269 34.2289L103.267 34.2307L102.632 35.0622L102.625 35.0695L102.62 35.0778C102.202 35.7488 101.99 36.6828 102.269 37.5538C102.547 38.4183 103.203 39.0779 104.008 39.3928L104.019 39.3968L104.981 39.7075C106.307 40.2584 107.119 41.4925 107.004 42.7141L106.7 45.9175C106.572 47.2805 105.651 48.2855 104.404 48.5567L104.152 48.6006L103.137 48.7272L103.125 48.73C102.275 48.8883 101.507 49.4123 101.072 50.2092L101.068 50.2177C100.664 51.0488 100.546 51.9407 100.879 52.6924L100.953 52.8405L101.415 53.7652L101.415 53.7662C102.026 55.0844 101.678 56.5111 100.662 57.3518L98.2455 59.3499C97.1092 60.1893 95.6454 60.2482 94.5864 59.4245L94.5855 59.4235L93.754 58.7876L93.7467 58.782L93.7384 58.7764L93.4747 58.6298C92.8346 58.3127 92.0244 58.1818 91.2623 58.4264C90.398 58.7038 89.7385 59.3588 89.4235 60.1642L89.4195 60.1756L89.1101 61.1341C88.5614 62.4583 87.3275 63.2756 85.9904 63.1491L82.7879 62.8461C81.3341 62.7086 80.2873 61.6707 80.104 60.2959L79.9773 59.2824L79.9782 59.2824L79.9754 59.2714L79.9414 59.1122C79.7503 58.3257 79.2423 57.626 78.4951 57.2185L78.4877 57.2139L78.3204 57.1373C77.4841 56.7726 76.6011 56.705 75.87 57.0958L74.9392 57.5619C73.6209 58.1724 72.1943 57.8241 71.3536 56.8078L69.3589 54.3973C68.5177 53.2631 68.4558 51.8003 69.2742 50.7403L69.8792 50.1413L69.8955 50.1251L69.9072 50.1047C70.3259 49.4338 70.5374 48.5005 70.2581 47.6296C69.9917 46.6559 69.3368 45.9953 68.5297 45.6799L68.5184 45.6759L67.5571 45.3642C66.2351 44.8148 65.4195 43.5827 65.5459 42.2469L65.8488 39.0444C65.9864 37.5906 67.0242 36.5437 68.3991 36.3605L68.3982 36.3595L69.4116 36.2336L69.4125 36.2347L69.4236 36.2318C70.2739 36.0736 71.0417 35.5488 71.4764 34.7516L71.481 34.7442C71.9158 33.8512 72.0007 33.0144 71.6024 32.1337L71.6025 32.1327L71.5992 32.1265L71.1306 31.1905L71.1298 31.1885L71.0258 30.9599C70.5623 29.7982 70.9315 28.4 71.8862 27.61L74.2966 25.6162C75.4337 24.7723 76.9009 24.7122 77.9619 25.5373L77.9638 25.5384L78.7953 26.1743L78.8026 26.1799L78.811 26.1846C79.482 26.6033 80.4159 26.8151 81.287 26.5355C82.1514 26.258 82.811 25.6023 83.1259 24.7967L83.1299 24.7853L83.4393 23.8278C83.9879 22.5036 85.2208 21.6862 86.5579 21.8127ZM103.93 42.9226L103.767 42.8787L103.121 42.7067C101.356 42.1086 99.9889 40.5811 99.4005 38.794L99.399 38.789L99.2836 38.4328C98.7706 36.647 99.1906 34.7927 100.236 33.373L100.62 32.8522L100.712 32.7265L98.9129 30.5513L98.7721 30.6194L98.1886 30.8977L98.1855 30.8994C96.3732 31.807 94.3335 31.7213 92.6966 30.8127C91.0515 29.8996 89.8075 28.2706 89.5509 26.4247L89.5032 25.758L89.4917 25.5892L86.7238 25.3274L86.6808 25.491L86.5079 26.1368C85.9102 27.9004 84.3854 29.2664 82.6002 29.8556C80.7128 30.4318 78.7001 30.0261 77.1857 28.9108L76.6647 28.528L76.5391 28.4347L74.3639 30.2339L74.431 30.3747L74.7103 30.9583L74.7119 30.9623C75.6193 32.7745 75.5329 34.8134 74.6244 36.4502L74.6195 36.4595C73.8208 38.1001 72.0901 39.3373 70.2374 39.5949L69.5697 39.6436L69.4008 39.656L69.139 42.423L69.3026 42.4669L69.9429 42.6354L69.9428 42.6363C71.7107 43.233 73.0796 44.7616 73.6688 46.5506C74.2434 48.4369 73.8378 50.4477 72.7234 51.9612L72.3396 52.482L72.2473 52.6077L72.3467 52.7289L73.9471 54.6626L74.0465 54.7829L74.1873 54.7158L74.7709 54.4365L74.7791 54.4324C76.4747 53.5199 78.5132 53.601 80.2665 54.5248L80.2721 54.5273C81.9124 55.3259 83.1496 57.0562 83.4076 58.9085L83.4562 59.5771L83.4677 59.746L86.2356 60.0078L86.2785 59.8441L86.4507 59.1963C87.0492 57.432 88.5767 56.0663 90.3632 55.478L90.3682 55.4765C92.261 54.7952 94.2698 55.1984 95.7842 56.3135L96.305 56.6973L96.4307 56.7896L98.6059 54.9904L98.5388 54.8497L98.2595 54.2661C97.4558 52.4534 97.4405 50.403 98.3445 48.7741C99.2572 47.1297 100.886 45.8855 102.731 45.6283L103.381 45.582L103.676 45.6098L103.93 42.9226Z" fill="#D34C39" stroke="white" stroke-width="0.4"/>
<path d="M87.0325 34.4501C91.4512 34.8681 94.6711 38.7601 94.2533 43.1787C93.8353 47.5975 89.9425 50.8174 85.5237 50.3994C81.1051 49.9812 77.886 46.0885 78.304 41.6699C78.7222 37.2514 82.614 34.0323 87.0325 34.4501ZM86.7358 37.5865C84.0856 37.3359 81.6913 39.3164 81.4404 41.9666C81.1897 44.6169 83.1701 47.0121 85.8204 47.263C88.4709 47.5137 90.8662 45.5325 91.1169 42.882C91.3675 40.2317 89.3862 37.8372 86.7358 37.5865Z" fill="#D34C39" stroke="white" stroke-width="0.4"/>
</svg>
