<svg width="107" height="108" viewBox="0 0 107 108" fill="none" xmlns="http://www.w3.org/2000/svg">
<path d="M14.5 93.375C11.0522 93.375 7.74558 91.9922 5.30761 89.5308C2.86964 87.0694 1.5 83.731 1.5 80.25M1.5 54V40.875M1.5 14.625C1.5 11.144 2.86964 7.80564 5.30761 5.34422C7.74558 2.88281 11.0522 1.5 14.5 1.5M40.5 1.5H53.5M79.5 1.5C82.9478 1.5 86.2544 2.88281 88.6924 5.34422C91.1304 7.80564 92.5 11.144 92.5 14.625M92.5 40.875V54M92.5 80.25V106.5M105.5 93.375H79.5M53.5 93.375H40.5" stroke="#D44C39" stroke-width="3" stroke-linecap="round" stroke-linejoin="round"/>
</svg>
