<svg width="108" height="108" viewBox="0 0 108 108" fill="none" xmlns="http://www.w3.org/2000/svg">
<path d="M1.5 24.8333V13.1667C1.5 10.0725 2.72916 7.10501 4.91709 4.91709C7.10501 2.72916 10.0725 1.5 13.1667 1.5H24.8333M1.5 83.1667V94.8333C1.5 97.9275 2.72916 100.895 4.91709 103.083C7.10501 105.271 10.0725 106.5 13.1667 106.5H24.8333M83.1667 1.5H94.8333C97.9275 1.5 100.895 2.72916 103.083 4.91709C105.271 7.10501 106.5 10.0725 106.5 13.1667V24.8333M83.1667 106.5H94.8333C97.9275 106.5 100.895 105.271 103.083 103.083C105.271 100.895 106.5 97.9275 106.5 94.8333V83.1667M24.8333 54V36.5H42.3333M65.6667 36.5H83.1667V54" stroke="#D34C39" stroke-width="3" stroke-linecap="round" stroke-linejoin="round"/>
<path d="M24.8335 36.5L50.5818 62.2483C52.7699 64.4357 53.9995 67.4027 54.0002 70.4967M54.0002 70.4967V83.1667M54.0002 70.4967C54.0008 67.4027 55.2304 64.4357 57.4185 62.2483L83.1668 36.5" stroke="#D34C39" stroke-width="3" stroke-linecap="round" stroke-linejoin="round"/>
</svg>
