<svg xmlns="http://www.w3.org/2000/svg" width="96" height="96" viewBox="0 0 96 96" fill="none" aria-hidden="true">
  <!-- selection frame -->
  <rect x="18" y="18" width="60" height="60" stroke="white" stroke-width="1.5"/>
  <!-- corner + mid handles -->
  <rect x="14" y="14" width="8" height="8" fill="#d34c39" stroke="white" stroke-width="1.5"/>
  <rect x="74" y="14" width="8" height="8" fill="#d34c39" stroke="white" stroke-width="1.5"/>
  <rect x="14" y="74" width="8" height="8" fill="#d34c39" stroke="white" stroke-width="1.5"/>
  <rect x="74" y="74" width="8" height="8" fill="#d34c39" stroke="white" stroke-width="1.5"/>
  <rect x="44" y="14" width="8" height="8" fill="#d34c39" stroke="white" stroke-width="1.5"/>
  <rect x="44" y="74" width="8" height="8" fill="#d34c39" stroke="white" stroke-width="1.5"/>
  <rect x="14" y="44" width="8" height="8" fill="#d34c39" stroke="white" stroke-width="1.5"/>
  <rect x="74" y="44" width="8" height="8" fill="#d34c39" stroke="white" stroke-width="1.5"/>
  <!-- overlapping circles: dashed behind, hatched front -->
  <circle cx="52" cy="44" r="16" stroke="white" stroke-width="1.5" stroke-dasharray="3 3"/>
  <defs>
    <clipPath id="frontLens">
      <circle cx="42" cy="50" r="16"/>
    </clipPath>
  </defs>
  <circle cx="42" cy="50" r="16" stroke="white" stroke-width="1.5"/>
  <g clip-path="url(#frontLens)" stroke="white" stroke-width="1.2">
    <path d="M22 38h40M22 42h40M22 46h40M22 50h40M22 54h40M22 58h40M22 62h40"/>
  </g>
</svg>
