<svg width="92" height="108" viewBox="0 0 92 108" fill="none" xmlns="http://www.w3.org/2000/svg">
<path d="M39.7651 23.603C45.0102 32.8755 47.7667 43.3474 47.7667 54.0005C47.7667 64.6536 45.0102 75.1255 39.7651 84.398M57.8776 12.5255C65.1099 25.1498 68.9193 39.4443 68.9285 53.9935C68.9377 68.5427 65.1465 82.842 57.9301 95.4755M76.0426 1.50049C85.1769 17.49 89.9813 35.5859 89.9813 54.0005C89.9813 72.4151 85.1769 90.511 76.0426 106.5" stroke="#D34C39" stroke-width="3" stroke-linecap="round" stroke-linejoin="round"/>
<path d="M1.59688 53.8326C1.46771 54.1806 1.46771 54.5634 1.59688 54.9114C2.85502 57.962 4.99063 60.5704 7.73298 62.4058C10.4753 64.2412 13.7009 65.221 17.0008 65.221C20.3007 65.221 23.5262 64.2412 26.2686 62.4058C29.0109 60.5704 31.1465 57.962 32.4047 54.9114C32.5339 54.5634 32.5339 54.1806 32.4047 53.8326C31.1465 50.782 29.0109 48.1736 26.2686 46.3382C23.5262 44.5028 20.3007 43.5229 17.0008 43.5229C13.7009 43.5229 10.4753 44.5028 7.73298 46.3382C4.99063 48.1736 2.85502 50.782 1.59688 53.8326Z" stroke="#D34C39" stroke-width="3" stroke-linecap="round" stroke-linejoin="round"/>
<path d="M17.0008 59.022C19.5689 59.022 21.6508 56.9401 21.6508 54.372C21.6508 51.8039 19.5689 49.722 17.0008 49.722C14.4327 49.722 12.3508 51.8039 12.3508 54.372C12.3508 56.9401 14.4327 59.022 17.0008 59.022Z" stroke="#D34C39" stroke-width="3" stroke-linecap="round" stroke-linejoin="round"/>
</svg>
