<svg width="114" height="108" viewBox="0 0 114 108" fill="none" xmlns="http://www.w3.org/2000/svg">
<path d="M52.2495 91.1133V46.1133C52.2495 44.1242 53.0397 42.2165 54.4462 40.81C55.8527 39.4035 57.7604 38.6133 59.7495 38.6133H104.75C106.739 38.6133 108.646 39.4035 110.053 40.81C111.459 42.2165 112.25 44.1242 112.25 46.1133V76.1133" stroke="#D44C39" stroke-width="2.5" stroke-linecap="round" stroke-linejoin="round"/>
<path d="M89.75 31.25V8.75C89.75 6.76088 88.9598 4.85322 87.5533 3.4467C86.1468 2.04018 84.2391 1.25 82.25 1.25L8.75 1.25C6.76088 1.25 4.85322 2.04018 3.4467 3.4467C2.04018 4.85322 1.25 6.76088 1.25 8.75V98.75C1.25 100.739 2.04018 102.647 3.4467 104.053C4.85322 105.46 6.76088 106.25 8.75 106.25H52.25M71.6812 105.835L96.6244 80.8921M74.1755 80.8921H96.6244V103.341" stroke="#D44C39" stroke-width="2.5" stroke-linecap="round" stroke-linejoin="round"/>
</svg>
