<svg width="118" height="108" viewBox="0 0 118 108" fill="none" xmlns="http://www.w3.org/2000/svg">
<path d="M3.13415 35.0938C1.76795 34.3225 1.78131 32.3502 3.15782 31.5975L57.7465 1.74532C58.3423 1.41948 59.0628 1.41826 59.6598 1.7421L114.701 31.6013C116.083 32.3508 116.1 34.328 114.731 35.1009L59.922 66.0449C59.3117 66.3894 58.5656 66.3894 57.9554 66.0449L3.13415 35.0938Z" stroke="#D44C39" stroke-width="3" stroke-miterlimit="10"/>
<path d="M92.6955 56.3224L100.035 60.5087C101.366 61.2684 101.383 63.1826 100.065 63.9655L59.96 87.7858C59.3305 88.1597 58.5469 88.1597 57.9174 87.7858L17.7998 63.958C16.4844 63.1767 16.4976 61.2679 17.8236 60.5049L27.8893 54.7131" stroke="#D44C39" stroke-width="3" stroke-miterlimit="10"/>
<path d="M82.8339 84.5283L86.9849 86.7911C88.3617 87.5416 88.3786 89.5124 87.0149 90.2865L59.9259 105.662C59.3136 106.01 58.5637 106.01 57.9514 105.662L30.849 90.2788C29.4882 89.5064 29.5014 87.5409 30.8726 86.787L36.9599 83.4397" stroke="#D44C39" stroke-width="3" stroke-miterlimit="10"/>
</svg>
