<svg width="150" height="107" viewBox="0 0 150 107" fill="none" xmlns="http://www.w3.org/2000/svg">
<path d="M116.252 22.3831L74.0762 1.60285C73.7855 1.45962 73.4434 1.46615 73.1583 1.62037L53.3784 12.3227L34.7529 22.4005C34.0576 22.7767 34.0532 23.773 34.7453 24.1553L73.1511 45.3685C73.44 45.5281 73.789 45.5348 74.0839 45.3865L116.26 24.1735C116.997 23.8025 116.993 22.748 116.252 22.3831Z" stroke="#D44C39" stroke-width="3"/>
<path d="M44.8193 36.0562L34.7507 41.5101C34.0559 41.8865 34.0516 42.8821 34.7431 43.2645L73.1507 64.5027C73.4398 64.6626 73.7892 64.6693 74.0843 64.5207L116.262 43.2828C116.999 42.9116 116.995 41.8578 116.255 41.4928L105.233 36.0562" stroke="#D44C39" stroke-width="3"/>
<path d="M26.2298 43.6562L3.16792 56.971C2.51981 57.3452 2.49729 58.2726 3.12646 58.6778L71.2386 102.544C71.5557 102.748 71.9607 102.757 72.286 102.566L147.153 58.6598C147.815 58.2719 147.811 57.3146 147.147 56.9312L124.154 43.6562" stroke="#D44C39" stroke-width="3" stroke-linecap="round" stroke-dasharray="4.6 12"/>
<path d="M115.663 53.9949V64.1808C115.663 64.549 115.46 64.8875 115.136 65.0617L73.4103 87.4806L34.8513 65.8725C34.5357 65.6956 34.3402 65.362 34.3402 65.0002L34.3402 53.9949M73.4103 87.4806V74.9921" stroke="#D44C39" stroke-width="3" stroke-linecap="round"/>
<path d="M71.6385 21.9848C73.1388 22.4078 74.7632 21.8081 75.2739 20.646C75.7847 19.484 74.9796 18.2042 73.4793 17.7811C71.979 17.3581 70.3546 17.9578 69.8439 19.1199C69.3331 20.2819 70.1382 21.5617 71.6385 21.9848Z" fill="#D44C39"/>
<path d="M69.5633 26.7189C71.0636 27.142 72.688 26.5422 73.1987 25.3802C73.7095 24.2181 72.9044 22.9383 71.4041 22.5153C69.9038 22.0922 68.2794 22.692 67.7687 23.854C67.2579 25.016 68.063 26.2959 69.5633 26.7189Z" fill="#D44C39"/>
<path d="M78.2243 23.8376C79.7246 24.2606 81.349 23.6609 81.8597 22.4988C82.3705 21.3368 81.5654 20.057 80.0651 19.6339C78.5648 19.2109 76.9404 19.8106 76.4297 20.9727C75.9189 22.1347 76.7241 23.4145 78.2243 23.8376Z" fill="#D44C39"/>
<path d="M76.1285 28.6305C77.6288 29.0536 79.2532 28.4538 79.7639 27.2918C80.2747 26.1298 79.4695 24.8499 77.9693 24.4269C76.469 24.0038 74.8446 24.6036 74.3339 25.7656C73.8231 26.9277 74.6282 28.2075 76.1285 28.6305Z" fill="#D44C39"/>
<path d="M84.7542 25.0641C85.8608 25.3747 87.0667 24.9356 87.4426 24.0734C87.8186 23.2113 87.2263 22.2688 86.1162 21.9528C85.006 21.6369 83.8037 22.0814 83.4277 22.9435C83.0518 23.8057 83.6441 24.7481 84.7542 25.0641Z" fill="#D44C39"/>
<path d="M82.6795 29.798C83.7861 30.1086 84.992 29.6695 85.3679 28.8073C85.7439 27.9451 85.1516 27.0027 84.0414 26.6867C82.9313 26.3708 81.729 26.8152 81.353 27.6774C80.9771 28.5395 81.5694 29.482 82.6795 29.798Z" fill="#D44C39"/>
<path d="M65.4738 19.629C66.5804 19.9396 67.7863 19.5005 68.1622 18.6384C68.5382 17.7762 67.9459 16.8337 66.8358 16.5178C65.7256 16.2018 64.5233 16.6463 64.1473 17.5085C63.7714 18.3706 64.3637 19.3131 65.4738 19.629Z" fill="#D44C39"/>
<path d="M63.4033 24.3627C64.5098 24.6733 65.7157 24.2341 66.0917 23.372C66.4676 22.5098 65.8753 21.5674 64.7652 21.2514C63.6551 20.9355 62.4527 21.3799 62.0768 22.2421C61.7008 23.1042 62.2931 24.0467 63.4033 24.3627Z" fill="#D44C39"/>
<path d="M60.7784 17.6741C61.4878 17.8722 62.2574 17.5884 62.4986 17.0422C62.7398 16.496 62.3603 15.8855 61.6509 15.6874C60.9416 15.4893 60.1719 15.7731 59.9307 16.3193C59.6896 16.8655 60.0691 17.476 60.7784 17.6741Z" fill="#D44C39"/>
<path d="M58.7038 22.4078C59.4132 22.6059 60.1828 22.3221 60.424 21.7759C60.6652 21.2297 60.2857 20.6192 59.5763 20.4211C58.867 20.2229 58.0973 20.5067 57.8561 21.0529C57.615 21.5992 57.9945 22.2096 58.7038 22.4078Z" fill="#D44C39"/>
<path d="M89.6097 25.8028C90.3191 26.0009 91.0887 25.7171 91.3299 25.1709C91.5711 24.6247 91.1916 24.0142 90.4822 23.8161C89.7729 23.6179 89.0032 23.9018 88.762 24.448C88.5209 24.9942 88.9004 25.6046 89.6097 25.8028Z" fill="#D44C39"/>
<path d="M87.5385 30.5364C88.2479 30.7346 89.0175 30.4507 89.2587 29.9045C89.4999 29.3583 89.1204 28.7479 88.411 28.5497C87.7017 28.3516 86.932 28.6354 86.6909 29.1816C86.4497 29.7278 86.8292 30.3383 87.5385 30.5364Z" fill="#D44C39"/>
<path d="M74.086 16.3944C75.1926 16.705 76.3985 16.2659 76.7744 15.4037C77.1504 14.5416 76.5581 13.5991 75.4479 13.2832C74.3378 12.9672 73.1355 13.4117 72.7595 14.2738C72.3836 15.136 72.9759 16.0785 74.086 16.3944Z" fill="#D44C39"/>
<path d="M80.6761 18.2467C81.7827 18.5573 82.9886 18.1182 83.3645 17.256C83.7405 16.3939 83.1482 15.4514 82.038 15.1355C80.9279 14.8195 79.7256 15.264 79.3496 16.1261C78.9736 16.9883 79.5659 17.9308 80.6761 18.2467Z" fill="#D44C39"/>
<path d="M67.6417 30.9708C68.7482 31.2814 69.9541 30.8423 70.3301 29.9801C70.706 29.118 70.1137 28.1755 69.0036 27.8596C67.8935 27.5436 66.6911 27.9881 66.3152 28.8502C65.9392 29.7124 66.5315 30.6549 67.6417 30.9708Z" fill="#D44C39"/>
<path d="M74.2276 32.829C75.3342 33.1396 76.5401 32.7005 76.916 31.8383C77.292 30.9762 76.6997 30.0337 75.5895 29.7177C74.4794 29.4018 73.2771 29.8463 72.9011 30.7084C72.5252 31.5706 73.1175 32.513 74.2276 32.829Z" fill="#D44C39"/>
<path d="M80.5691 34.6175C81.6757 34.9281 82.8816 34.489 83.2576 33.6269C83.6335 32.7647 83.0412 31.8223 81.9311 31.5063C80.821 31.1904 79.6186 31.6348 79.2427 32.497C78.8667 33.3591 79.459 34.3016 80.5691 34.6175Z" fill="#D44C39"/>
<path d="M61.3287 29.0961C62.4353 29.4067 63.6411 28.9675 64.0171 28.1054C64.3931 27.2432 63.8007 26.3008 62.6906 25.9848C61.5805 25.6689 60.3781 26.1133 60.0022 26.9755C59.6262 27.8376 60.2185 28.7801 61.3287 29.0961Z" fill="#D44C39"/>
<path d="M86.9424 20.0621C88.049 20.3727 89.2549 19.9336 89.6309 19.0715C90.0068 18.2093 89.4145 17.2668 88.3044 16.9509C87.1943 16.6349 85.9919 17.0794 85.616 17.9416C85.24 18.8037 85.8323 19.7462 86.9424 20.0621Z" fill="#D44C39"/>
<path d="M67.7018 14.547C68.8084 14.8576 70.0143 14.4185 70.3903 13.5563C70.7662 12.6942 70.1739 11.7517 69.0638 11.4358C67.9537 11.1198 66.7513 11.5643 66.3754 12.4264C65.9994 13.2886 66.5917 14.231 67.7018 14.547Z" fill="#D44C39"/>
<path d="M72.905 35.9932C73.6143 36.1913 74.384 35.9075 74.6252 35.3613C74.8663 34.8151 74.4868 34.2046 73.7775 34.0065C73.0681 33.8084 72.2985 34.0922 72.0573 34.6384C71.8161 35.1846 72.1956 35.7951 72.905 35.9932Z" fill="#D44C39"/>
<path d="M66.315 34.1358C67.0244 34.3339 67.794 34.0501 68.0352 33.5039C68.2764 32.9577 67.8969 32.3472 67.1875 32.1491C66.4782 31.9509 65.7085 32.2348 65.4674 32.781C65.2262 33.3272 65.6057 33.9376 66.315 34.1358Z" fill="#D44C39"/>
<path d="M82.4953 14.0916C83.2047 14.2897 83.9743 14.0059 84.2155 13.4597C84.4567 12.9135 84.0772 12.303 83.3678 12.1049C82.6585 11.9068 81.8888 12.1906 81.6477 12.7368C81.4065 13.283 81.786 13.8935 82.4953 14.0916Z" fill="#D44C39"/>
<path d="M75.9047 12.2388C76.6141 12.4369 77.3837 12.1531 77.6249 11.6069C77.8661 11.0607 77.4866 10.4502 76.7772 10.2521C76.0679 10.054 75.2983 10.3378 75.0571 10.884C74.8159 11.4302 75.1954 12.0407 75.9047 12.2388Z" fill="#D44C39"/>
<ellipse cx="145.138" cy="57.4119" rx="3.49731" ry="3.49731" fill="#D44C39"/>
<ellipse cx="3.49731" cy="57.7302" rx="3.49731" ry="3.49731" fill="#D44C39"/>
<ellipse cx="72.5692" cy="102.877" rx="3.49731" ry="3.49731" fill="#D44C39"/>
</svg>
