<svg width="120" height="125" viewBox="0 0 120 125" fill="none" xmlns="http://www.w3.org/2000/svg">
<path d="M9.16557 46.8865C7.72779 46.1295 7.74502 44.0648 9.19523 43.3319L59.7718 17.7714C60.3418 17.4833 61.015 17.4848 61.5838 17.7753L111.596 43.3261C113.04 44.0635 113.052 46.1217 111.618 46.8768L61.3113 73.361C60.7281 73.668 60.031 73.668 59.4479 73.3609L9.16557 46.8865Z" stroke="#D44C39" stroke-width="3" stroke-miterlimit="10"/>
<path d="M80.2468 69.0054L108.66 84.5557C110.031 85.306 110.05 87.2682 108.695 88.0453L62.5889 114.474C61.9728 114.827 61.2156 114.827 60.5996 114.474L14.4663 88.0262C13.1177 87.2532 13.128 85.3045 14.4846 84.5457L41.4851 69.4418" stroke="#D44C39" stroke-width="3" stroke-miterlimit="10" stroke-linecap="round" stroke-linejoin="round"/>
<path d="M55.8402 45.766C58.3858 46.1949 61.142 45.5869 62.0086 44.4087C62.8752 43.2305 61.5091 41.9329 58.9635 41.504C56.4179 41.075 53.6617 41.6831 52.7951 42.8613C51.9285 44.0395 53.2946 45.3371 55.8402 45.766Z" fill="#D44C39"/>
<path d="M52.3194 50.5656C54.865 50.9945 57.6213 50.3864 58.4878 49.2082C59.3544 48.0301 57.9884 46.7324 55.4427 46.3035C52.8971 45.8746 50.1409 46.4827 49.2743 47.6609C48.4077 48.839 49.7738 50.1367 52.3194 50.5656Z" fill="#D44C39"/>
<path d="M67.0153 47.6447C69.5609 48.0736 72.3172 47.4655 73.1838 46.2873C74.0504 45.1092 72.6843 43.8115 70.1387 43.3826C67.5931 42.9537 64.8368 43.5618 63.9702 44.74C63.1036 45.9181 64.4697 47.2158 67.0153 47.6447Z" fill="#D44C39"/>
<path d="M63.4585 52.5038C66.0041 52.9327 68.7603 52.3246 69.6269 51.1465C70.4935 49.9683 69.1274 48.6707 66.5818 48.2418C64.0362 47.8128 61.28 48.4209 60.4134 49.5991C59.5468 50.7773 60.9129 52.0749 63.4585 52.5038Z" fill="#D44C39"/>
<path d="M78.0944 48.888C79.972 49.2029 82.0181 48.7577 82.656 47.8836C83.2939 47.0095 82.2889 46.0539 80.4053 45.7336C78.5216 45.4132 76.4815 45.8639 75.8436 46.738C75.2057 47.6121 76.2107 48.5677 78.0944 48.888Z" fill="#D44C39"/>
<path d="M74.5744 53.6878C76.452 54.0027 78.4982 53.5575 79.1361 52.6834C79.774 51.8093 78.769 50.8537 76.8853 50.5334C75.0017 50.213 72.9616 50.6637 72.3237 51.5378C71.6858 52.4119 72.6908 53.3675 74.5744 53.6878Z" fill="#D44C39"/>
<path d="M45.3803 43.3773C47.2579 43.6922 49.304 43.247 49.9419 42.3728C50.5798 41.4987 49.5748 40.5431 47.6912 40.2228C45.8076 39.9025 43.7675 40.3531 43.1295 41.2272C42.4916 42.1014 43.4966 43.0569 45.3803 43.3773Z" fill="#D44C39"/>
<path d="M41.8668 48.1768C43.7445 48.4917 45.7906 48.0465 46.4285 47.1724C47.0664 46.2983 46.0614 45.3427 44.1778 45.0224C42.2941 44.702 40.254 45.1527 39.6161 46.0268C38.9782 46.9009 39.9832 47.8565 41.8668 48.1768Z" fill="#D44C39"/>
<path d="M37.4133 41.3952C38.6169 41.5961 39.9228 41.3083 40.332 40.7546C40.7412 40.2008 40.0973 39.5818 38.8937 39.3809C37.6901 39.18 36.3842 39.4678 35.975 40.0216C35.5658 40.5754 36.2097 41.1943 37.4133 41.3952Z" fill="#D44C39"/>
<path d="M33.8934 46.195C35.097 46.3959 36.4029 46.1082 36.8121 45.5544C37.2213 45.0006 36.5774 44.3816 35.3738 44.1807C34.1702 43.9798 32.8643 44.2676 32.4551 44.8214C32.0458 45.3752 32.6898 45.9941 33.8934 46.195Z" fill="#D44C39"/>
<path d="M86.3332 49.6372C87.5368 49.838 88.8427 49.5503 89.2519 48.9965C89.6611 48.4427 89.0172 47.8237 87.8136 47.6229C86.61 47.422 85.3041 47.7097 84.8949 48.2635C84.4857 48.8173 85.1296 49.4363 86.3332 49.6372Z" fill="#D44C39"/>
<path d="M82.8188 54.4367C84.0224 54.6376 85.3283 54.3499 85.7376 53.7961C86.1468 53.2423 85.5029 52.6233 84.2993 52.4224C83.0957 52.2215 81.7898 52.5093 81.3805 53.0631C80.9713 53.6169 81.6152 54.2358 82.8188 54.4367Z" fill="#D44C39"/>
<path d="M59.9931 40.098C61.8707 40.4129 63.9168 39.9677 64.5547 39.0935C65.1926 38.2194 64.1876 37.2638 62.304 36.9435C60.4204 36.6232 58.3803 37.0738 57.7424 37.9479C57.1045 38.8221 58.1095 39.7776 59.9931 40.098Z" fill="#D44C39"/>
<path d="M71.1747 41.9764C73.0523 42.2913 75.0984 41.8461 75.7363 40.972C76.3742 40.0978 75.3692 39.1423 73.4856 38.8219C71.602 38.5016 69.5619 38.9522 68.924 39.8264C68.2861 40.7005 69.2911 41.6561 71.1747 41.9764Z" fill="#D44C39"/>
<path d="M49.0582 54.8763C50.9358 55.1912 52.9819 54.746 53.6198 53.8719C54.2577 52.9977 53.2527 52.0422 51.3691 51.7218C49.4855 51.4015 47.4454 51.8521 46.8075 52.7263C46.1696 53.6004 47.1746 54.556 49.0582 54.8763Z" fill="#D44C39"/>
<path d="M60.2334 56.7608C62.111 57.0757 64.1571 56.6305 64.795 55.7564C65.4329 54.8823 64.4279 53.9267 62.5443 53.6064C60.6606 53.286 58.6205 53.7367 57.9826 54.6108C57.3447 55.4849 58.3497 56.4405 60.2334 56.7608Z" fill="#D44C39"/>
<path d="M70.9936 58.5741C72.8712 58.889 74.9173 58.4438 75.5552 57.5696C76.1931 56.6955 75.1881 55.7399 73.3045 55.4196C71.4209 55.0993 69.3808 55.5499 68.7429 56.424C68.105 57.2982 69.11 58.2537 70.9936 58.5741Z" fill="#D44C39"/>
<path d="M38.347 52.9764C40.2246 53.2913 42.2707 52.8461 42.9086 51.972C43.5465 51.0978 42.5415 50.1423 40.6579 49.8219C38.7743 49.5016 36.7342 49.9522 36.0963 50.8264C35.4583 51.7005 36.4633 52.6561 38.347 52.9764Z" fill="#D44C39"/>
<path d="M81.8074 43.8172C83.685 44.1321 85.7311 43.6869 86.369 42.8128C87.0069 41.9387 86.0019 40.9831 84.1183 40.6627C82.2346 40.3424 80.1945 40.7931 79.5566 41.6672C78.9187 42.5413 79.9237 43.4969 81.8074 43.8172Z" fill="#D44C39"/>
<path d="M49.1608 38.2244C51.0384 38.5393 53.0845 38.0941 53.7224 37.22C54.3603 36.3459 53.3553 35.3903 51.4717 35.07C49.5881 34.7496 47.548 35.2003 46.9101 36.0744C46.2722 36.9485 47.2772 37.9041 49.1608 38.2244Z" fill="#D44C39"/>
<path d="M57.9892 59.9694C59.1928 60.1703 60.4987 59.8826 60.908 59.3288C61.3172 58.775 60.6733 58.156 59.4697 57.9551C58.2661 57.7542 56.9602 58.042 56.5509 58.5958C56.1417 59.1496 56.7856 59.7685 57.9892 59.9694Z" fill="#D44C39"/>
<path d="M46.8077 58.0854C48.0113 58.2863 49.3172 57.9985 49.7264 57.4447C50.1356 56.8909 49.4917 56.272 48.2881 56.0711C47.0845 55.8702 45.7786 56.158 45.3694 56.7118C44.9601 57.2656 45.6041 57.8845 46.8077 58.0854Z" fill="#D44C39"/>
<path d="M74.2617 37.7631C75.4653 37.964 76.7712 37.6763 77.1804 37.1225C77.5897 36.5687 76.9457 35.9497 75.7421 35.7488C74.5385 35.548 73.2326 35.8357 72.8234 36.3895C72.4142 36.9433 73.0581 37.5623 74.2617 37.7631Z" fill="#D44C39"/>
<path d="M63.0792 35.8847C64.2828 36.0856 65.5887 35.7978 65.9979 35.2441C66.4071 34.6903 65.7632 34.0713 64.5596 33.8704C63.356 33.6695 62.0501 33.9573 61.6409 34.5111C61.2317 35.0649 61.8756 35.6838 63.0792 35.8847Z" fill="#D44C39"/>
<path d="M60.7876 10.0439V28.6209" stroke="#D44C39" stroke-width="3" stroke-miterlimit="10" stroke-linecap="round"/>
<path d="M60.7876 63.3516L60.7876 89.1977" stroke="#D44C39" stroke-width="3" stroke-miterlimit="10" stroke-linecap="round"/>
</svg>
