<svg width="87" height="80" viewBox="0 0 87 80" fill="none" xmlns="http://www.w3.org/2000/svg">
<g clip-path="url(#clip0_749_1482)">
<path d="M59.5763 13.8964V8.03893C59.5763 6.42255 58.3449 5.06895 56.7346 4.91617L16.258 1.08453C14.4185 0.910364 12.8266 2.35869 12.8266 4.20729V75.7954C12.8266 77.5829 14.3177 79.0068 16.1021 78.9273L56.5788 77.1246C58.2563 77.0512 59.5763 75.6701 59.5763 73.9926V72.8285" stroke="#D44C39" stroke-width="3" stroke-miterlimit="10" stroke-linecap="round"/>
<path d="M8.85441 8.14258L3.64224 11.8953C2.59822 12.647 1.97946 13.855 1.97946 15.1415V64.1681C1.97946 65.229 2.40089 66.2464 3.15103 66.9965L8.47553 72.321" stroke="#D44C39" stroke-width="3" stroke-miterlimit="10" stroke-linecap="round"/>
<path d="M84.0206 18.5559V68.7277C84.0206 70.6252 82.2514 72.0247 80.4059 71.5908L56.4963 65.9686C55.1671 65.6569 54.2291 64.4714 54.2291 63.1056V21.8375C54.2291 20.3678 55.3138 19.1242 56.7682 18.9256L80.6778 15.6409C82.4439 15.3995 84.0175 16.7714 84.0175 18.5528L84.0206 18.5559Z" stroke="#D44C39" stroke-width="3" stroke-miterlimit="10" stroke-linecap="round"/>
<path d="M25.8065 36.4795H42.8656C44.1278 36.4795 45.1511 35.4562 45.1511 34.194V17.1349C45.1511 15.8726 44.1278 14.8494 42.8656 14.8494L25.8065 14.8494C24.5442 14.8494 23.521 15.8726 23.521 17.1349L23.521 34.194C23.521 35.4562 24.5442 36.4795 25.8065 36.4795Z" stroke="#D44C39" stroke-width="3" stroke-miterlimit="10" stroke-linecap="round"/>
<path d="M31.5845 29.6475C33.8374 29.6475 35.6636 27.8212 35.6636 25.5684C35.6636 23.3155 33.8374 21.4893 31.5845 21.4893C29.3317 21.4893 27.5054 23.3155 27.5054 25.5684C27.5054 27.8212 29.3317 29.6475 31.5845 29.6475Z" stroke="#D44C39" stroke-width="3" stroke-miterlimit="10" stroke-linecap="round"/>
<path d="M34.4078 52.0905V45.7197" stroke="#D44C39" stroke-width="3" stroke-miterlimit="10" stroke-linecap="round"/>
<path d="M28.5748 49.5239L29.7482 45.2217" stroke="#D44C39" stroke-width="3" stroke-miterlimit="10" stroke-linecap="round"/>
<path d="M39.7519 49.4503L38.1264 45.2979" stroke="#D44C39" stroke-width="3" stroke-miterlimit="10" stroke-linecap="round"/>
<path d="M41.2736 31.6523H36.3634" stroke="#D44C39" stroke-width="3" stroke-miterlimit="10" stroke-linecap="round"/>
<path d="M41.2736 36.4795L40.1645 39.8406C39.8559 40.7786 38.9789 41.4111 37.992 41.4111H30.5395C29.6076 41.4111 28.7704 40.8459 28.419 39.9842L26.9982 36.4795" stroke="#D44C39" stroke-width="3" stroke-miterlimit="10" stroke-linecap="round"/>
<path d="M49.3402 58.6602L23.0779 59.2071C21.3729 59.2438 20.0071 60.6371 20.0071 62.3421V67.8268" stroke="#D44C39" stroke-width="3" stroke-miterlimit="10" stroke-linecap="round"/>
</g>
<defs>
<clipPath id="clip0_749_1482">
<rect width="87" height="80" fill="white"/>
</clipPath>
</defs>
</svg>
