<svg width="86" height="82" viewBox="0 0 86 82" fill="none" xmlns="http://www.w3.org/2000/svg">
<g clip-path="url(#clip0_749_1591)">
<path d="M44.9339 31.4507H3.9483C2.46865 31.4507 1.26917 32.6502 1.26917 34.1298V77.3859C1.26917 78.8656 2.46865 80.065 3.9483 80.065H44.9339C46.4136 80.065 47.6131 78.8656 47.6131 77.3859V34.1298C47.6131 32.6502 46.4136 31.4507 44.9339 31.4507Z" stroke="#D44C39" stroke-width="2.5" stroke-miterlimit="10"/>
<path d="M80.2568 50.1484H64.2515C61.7805 50.1484 59.7773 52.1516 59.7773 54.6226V71.8513C59.7773 74.3223 61.7805 76.3254 64.2515 76.3254H80.2568C82.7278 76.3254 84.7309 74.3223 84.7309 71.8513V54.6226C84.7309 52.1516 82.7278 50.1484 80.2568 50.1484Z" stroke="#D44C39" stroke-width="2.5" stroke-miterlimit="10"/>
<path d="M30.184 46.9434H18.6982C17.2288 46.9434 16.0377 48.1345 16.0377 49.6038V61.9123C16.0377 63.3816 17.2288 64.5727 18.6982 64.5727H30.184C31.6533 64.5727 32.8444 63.3816 32.8444 61.9123V49.6038C32.8444 48.1345 31.6533 46.9434 30.184 46.9434Z" stroke="#D44C39" stroke-width="2.5" stroke-miterlimit="10"/>
<path d="M31.9869 26.7765V5.16711C31.9869 3.38281 33.4347 1.93506 35.219 1.93506H69.7806C71.5649 1.93506 73.0126 3.38281 73.0126 5.16711V45.5678" stroke="#D44C39" stroke-width="2.5" stroke-miterlimit="10" stroke-linecap="round"/>
<path d="M22 56C22.5523 56 23 55.5523 23 55C23 54.4477 22.5523 54 22 54C21.4477 54 21 54.4477 21 55C21 55.5523 21.4477 56 22 56Z" fill="#D44C39"/>
<path d="M28 56C28.5523 56 29 55.5523 29 55C29 54.4477 28.5523 54 28 54C27.4477 54 27 54.4477 27 55C27 55.5523 27.4477 56 28 56Z" fill="#D44C39"/>
<path d="M25 59C25.5523 59 26 58.5523 26 58C26 57.4477 25.5523 57 25 57C24.4477 57 24 57.4477 24 58C24 58.5523 24.4477 59 25 59Z" fill="#D44C39"/>
<path d="M52.8528 18.7055C54.4283 18.7055 55.7055 17.4283 55.7055 15.8528C55.7055 14.2772 54.4283 13 52.8528 13C51.2772 13 50 14.2772 50 15.8528C50 17.4283 51.2772 18.7055 52.8528 18.7055Z" stroke="#D44C39" stroke-width="2.5" stroke-miterlimit="10"/>
<path d="M72.3209 62.1687C73.206 62.1687 73.9235 61.4512 73.9235 60.566C73.9235 59.6809 73.206 58.9634 72.3209 58.9634C71.4357 58.9634 70.7182 59.6809 70.7182 60.566C70.7182 61.4512 71.4357 62.1687 72.3209 62.1687Z" stroke="#D44C39" stroke-width="1.33556" stroke-miterlimit="10"/>
<path d="M68.3142 66.629V60.1649C68.3142 57.9532 70.1092 56.1582 72.3209 56.1582C74.5326 56.1582 76.3276 57.9532 76.3276 60.1649V66.629C76.3276 67.4837 75.6331 68.1782 74.7783 68.1782H69.8635C69.0087 68.1782 68.3142 67.4837 68.3142 66.629Z" stroke="#D44C39" stroke-width="2.2" stroke-miterlimit="10" stroke-linecap="round"/>
<path d="M51 64H56" stroke="#D44C39" stroke-width="2.5" stroke-miterlimit="10" stroke-linecap="round"/>
<path d="M32 9H53.25C56.9779 9 60 12.0221 60 15.75C60 19.4779 56.9779 22.5 53.25 22.5H32" stroke="#D44C39" stroke-width="2.5"/>
</g>
<defs>
<clipPath id="clip0_749_1591">
<rect width="86" height="82" fill="white"/>
</clipPath>
</defs>
</svg>
