<svg width="72" height="83" viewBox="0 0 72 83" fill="none" xmlns="http://www.w3.org/2000/svg">
<path d="M57.9067 26.3882V59.7736M49.9905 14.2811V39.4779C49.9905 40.6149 49.0438 41.5232 47.9078 41.4762L27.2094 40.6197C26.1379 40.5754 25.2921 39.6938 25.2921 38.6214V17.1837C25.2921 16.1864 26.0268 15.3415 27.0144 15.203L47.7127 12.3005C48.916 12.1318 49.9905 13.0661 49.9905 14.2811ZM4.11569 71.4317L58.8445 81.1469C59.5926 81.2797 60.3512 80.9771 60.8027 80.3661L69.9511 67.9828C70.2053 67.6387 70.3425 67.2222 70.3425 66.7944V14.3007C70.3425 13.8293 70.176 13.3732 69.8725 13.0126L60.7799 2.21199C60.3356 1.68427 59.6508 1.42275 58.9678 1.52003L3.21799 9.46114C2.2198 9.60332 1.48353 10.4663 1.5003 11.4744L2.46553 69.4957C2.48146 70.4528 3.17325 71.2644 4.11569 71.4317Z" stroke="#D34C39" stroke-width="3" stroke-linecap="round"/>
<circle cx="48.2346" cy="51.6015" r="1.5" stroke="#D34C39" stroke-width="1.65578"/>
<circle cx="48.2346" cy="59.3231" r="1.5" stroke="#D34C39" stroke-width="1.65578"/>
<circle cx="48.2346" cy="67.0449" r="1.5" stroke="#D34C39" stroke-width="1.65578"/>
</svg>
