<svg width="95" height="84" viewBox="0 0 95 84" fill="none" xmlns="http://www.w3.org/2000/svg">
<path d="M85.0952 2.90991H9.90484C7.47211 2.90991 5.5 4.87717 5.5 7.30391V77.5159C5.5 79.9427 7.47211 81.9099 9.90484 81.9099H85.0952C87.5279 81.9099 89.5 79.9427 89.5 77.5159V7.30391C89.5 4.87717 87.5279 2.90991 85.0952 2.90991Z" stroke="#D44C39" stroke-width="3" stroke-miterlimit="10"/>
<path d="M42.9152 41.565C45.1004 41.565 46.8719 39.8286 46.8719 37.6866C46.8719 35.5446 45.1004 33.8082 42.9152 33.8082C40.73 33.8082 38.9585 35.5446 38.9585 37.6866C38.9585 39.8286 40.73 41.565 42.9152 41.565Z" fill="#D44C39"/>
<path d="M42.9152 50.2996C45.1004 50.2996 46.8719 48.5632 46.8719 46.4212C46.8719 44.2793 45.1004 42.5428 42.9152 42.5428C40.73 42.5428 38.9585 44.2793 38.9585 46.4212C38.9585 48.5632 40.73 50.2996 42.9152 50.2996Z" fill="#D44C39"/>
<path d="M52.5206 41.565C54.7059 41.565 56.4773 39.8286 56.4773 37.6866C56.4773 35.5446 54.7059 33.8082 52.5206 33.8082C50.3354 33.8082 48.564 35.5446 48.564 37.6866C48.564 39.8286 50.3354 41.565 52.5206 41.565Z" fill="#D44C39"/>
<path d="M52.5246 50.4047C54.7098 50.4047 56.4812 48.6683 56.4812 46.5263C56.4812 44.3844 54.7098 42.6479 52.5246 42.6479C50.3393 42.6479 48.5679 44.3844 48.5679 46.5263C48.5679 48.6683 50.3393 50.4047 52.5246 50.4047Z" fill="#D44C39"/>
<path d="M61.6906 40.5537C63.3063 40.5537 64.6161 39.2698 64.6161 37.6861C64.6161 36.1023 63.3063 34.8185 61.6906 34.8185C60.0749 34.8185 58.7651 36.1023 58.7651 37.6861C58.7651 39.2698 60.0749 40.5537 61.6906 40.5537Z" fill="#D44C39"/>
<path d="M61.6906 49.2884C63.3063 49.2884 64.6161 48.0045 64.6161 46.4208C64.6161 44.8371 63.3063 43.5532 61.6906 43.5532C60.0749 43.5532 58.7651 44.8371 58.7651 46.4208C58.7651 48.0045 60.0749 49.2884 61.6906 49.2884Z" fill="#D44C39"/>
<path d="M33.5803 40.5537C35.196 40.5537 36.5057 39.2698 36.5057 37.6861C36.5057 36.1023 35.196 34.8185 33.5803 34.8185C31.9646 34.8185 30.6548 36.1023 30.6548 37.6861C30.6548 39.2698 31.9646 40.5537 33.5803 40.5537Z" fill="#D44C39"/>
<path d="M33.5803 49.2884C35.196 49.2884 36.5057 48.0045 36.5057 46.4208C36.5057 44.8371 35.196 43.5532 33.5803 43.5532C31.9646 43.5532 30.6548 44.8371 30.6548 46.4208C30.6548 48.0045 31.9646 49.2884 33.5803 49.2884Z" fill="#D44C39"/>
<path d="M26.3719 39.5214C27.4057 39.5214 28.2437 38.7 28.2437 37.6866C28.2437 36.6733 27.4057 35.8518 26.3719 35.8518C25.3381 35.8518 24.5 36.6733 24.5 37.6866C24.5 38.7 25.3381 39.5214 26.3719 39.5214Z" fill="#D44C39"/>
<path d="M26.3719 48.2561C27.4057 48.2561 28.2437 47.4346 28.2437 46.4212C28.2437 45.4079 27.4057 44.5864 26.3719 44.5864C25.3381 44.5864 24.5 45.4079 24.5 46.4212C24.5 47.4346 25.3381 48.2561 26.3719 48.2561Z" fill="#D44C39"/>
<path d="M68.4148 39.5214C69.4486 39.5214 70.2867 38.7 70.2867 37.6866C70.2867 36.6733 69.4486 35.8518 68.4148 35.8518C67.381 35.8518 66.543 36.6733 66.543 37.6866C66.543 38.7 67.381 39.5214 68.4148 39.5214Z" fill="#D44C39"/>
<path d="M68.4148 48.2561C69.4486 48.2561 70.2867 47.4346 70.2867 46.4212C70.2867 45.4079 69.4486 44.5864 68.4148 44.5864C67.381 44.5864 66.543 45.4079 66.543 46.4212C66.543 47.4346 67.381 48.2561 68.4148 48.2561Z" fill="#D44C39"/>
<path d="M42.9157 31.2484C44.5314 31.2484 45.8412 29.9645 45.8412 28.3808C45.8412 26.797 44.5314 25.5132 42.9157 25.5132C41.3 25.5132 39.9902 26.797 39.9902 28.3808C39.9902 29.9645 41.3 31.2484 42.9157 31.2484Z" fill="#D44C39"/>
<path d="M52.5212 31.2484C54.1369 31.2484 55.4467 29.9645 55.4467 28.3808C55.4467 26.797 54.1369 25.5132 52.5212 25.5132C50.9055 25.5132 49.5957 26.797 49.5957 28.3808C49.5957 29.9645 50.9055 31.2484 52.5212 31.2484Z" fill="#D44C39"/>
<path d="M42.8371 58.1771C44.4528 58.1771 45.7626 56.8932 45.7626 55.3095C45.7626 53.7258 44.4528 52.4419 42.8371 52.4419C41.2214 52.4419 39.9116 53.7258 39.9116 55.3095C39.9116 56.8932 41.2214 58.1771 42.8371 58.1771Z" fill="#D44C39"/>
<path d="M52.4426 58.1771C54.0583 58.1771 55.3681 56.8932 55.3681 55.3095C55.3681 53.7258 54.0583 52.4419 52.4426 52.4419C50.8269 52.4419 49.5171 53.7258 49.5171 55.3095C49.5171 56.8932 50.8269 58.1771 52.4426 58.1771Z" fill="#D44C39"/>
<path d="M61.6906 58.1771C63.3063 58.1771 64.6161 56.8932 64.6161 55.3095C64.6161 53.7258 63.3063 52.4419 61.6906 52.4419C60.0749 52.4419 58.7651 53.7258 58.7651 55.3095C58.7651 56.8932 60.0749 58.1771 61.6906 58.1771Z" fill="#D44C39"/>
<path d="M33.5803 58.0231C35.196 58.0231 36.5057 56.7393 36.5057 55.1556C36.5057 53.5718 35.196 52.288 33.5803 52.288C31.9646 52.288 30.6548 53.5718 30.6548 55.1556C30.6548 56.7393 31.9646 58.0231 33.5803 58.0231Z" fill="#D44C39"/>
<path d="M61.6906 31.3253C63.3063 31.3253 64.6161 30.0414 64.6161 28.4577C64.6161 26.874 63.3063 25.5901 61.6906 25.5901C60.0749 25.5901 58.7651 26.874 58.7651 28.4577C58.7651 30.0414 60.0749 31.3253 61.6906 31.3253Z" fill="#D44C39"/>
<path d="M33.5803 31.1713C35.196 31.1713 36.5057 29.8875 36.5057 28.3037C36.5057 26.72 35.196 25.4362 33.5803 25.4362C31.9646 25.4362 30.6548 26.72 30.6548 28.3037C30.6548 29.8875 31.9646 31.1713 33.5803 31.1713Z" fill="#D44C39"/>
<path d="M52.5203 63.9891C53.5541 63.9891 54.3922 63.1676 54.3922 62.1543C54.3922 61.1409 53.5541 60.3195 52.5203 60.3195C51.4865 60.3195 50.6484 61.1409 50.6484 62.1543C50.6484 63.1676 51.4865 63.9891 52.5203 63.9891Z" fill="#D44C39"/>
<path d="M42.9158 63.9891C43.9496 63.9891 44.7877 63.1676 44.7877 62.1543C44.7877 61.1409 43.9496 60.3195 42.9158 60.3195C41.882 60.3195 41.0439 61.1409 41.0439 62.1543C41.0439 63.1676 41.882 63.9891 42.9158 63.9891Z" fill="#D44C39"/>
<path d="M52.5203 23.5795C53.5541 23.5795 54.3922 22.7581 54.3922 21.7447C54.3922 20.7314 53.5541 19.9099 52.5203 19.9099C51.4865 19.9099 50.6484 20.7314 50.6484 21.7447C50.6484 22.7581 51.4865 23.5795 52.5203 23.5795Z" fill="#D44C39"/>
<path d="M42.9158 23.5795C43.9496 23.5795 44.7877 22.7581 44.7877 21.7447C44.7877 20.7314 43.9496 19.9099 42.9158 19.9099C41.882 19.9099 41.0439 20.7314 41.0439 21.7447C41.0439 22.7581 41.882 23.5795 42.9158 23.5795Z" fill="#D44C39"/>
</svg>
