<svg width="95" height="84" viewBox="0 0 95 84" fill="none" xmlns="http://www.w3.org/2000/svg">
<path d="M74.6504 20.8823H27.3422C25.8116 20.8823 24.5707 22.1231 24.5707 23.6538V67.9388C24.5707 69.4694 25.8116 70.7102 27.3422 70.7102H74.6504C76.181 70.7102 77.4219 69.4694 77.4219 67.9388V23.6538C77.4219 22.1231 76.181 20.8823 74.6504 20.8823Z" stroke="#D44C39" stroke-width="2.5" stroke-miterlimit="10"/>
<path d="M47.0729 45.6657C48.461 45.6657 49.5862 44.5627 49.5862 43.202C49.5862 41.8414 48.461 40.7384 47.0729 40.7384C45.6848 40.7384 44.5595 41.8414 44.5595 43.202C44.5595 44.5627 45.6848 45.6657 47.0729 45.6657Z" fill="#D44C39"/>
<path d="M47.0729 51.2141C48.461 51.2141 49.5862 50.1111 49.5862 48.7505C49.5862 47.3899 48.461 46.2869 47.0729 46.2869C45.6848 46.2869 44.5595 47.3899 44.5595 48.7505C44.5595 50.1111 45.6848 51.2141 47.0729 51.2141Z" fill="#D44C39"/>
<path d="M53.1747 45.6657C54.5628 45.6657 55.688 44.5627 55.688 43.202C55.688 41.8414 54.5628 40.7384 53.1747 40.7384C51.7866 40.7384 50.6613 41.8414 50.6613 43.202C50.6613 44.5627 51.7866 45.6657 53.1747 45.6657Z" fill="#D44C39"/>
<path d="M53.1771 51.2808C54.5652 51.2808 55.6904 50.1778 55.6904 48.8171C55.6904 47.4565 54.5652 46.3535 53.1771 46.3535C51.789 46.3535 50.6637 47.4565 50.6637 48.8171C50.6637 50.1778 51.789 51.2808 53.1771 51.2808Z" fill="#D44C39"/>
<path d="M58.9996 45.0232C60.0259 45.0232 60.8579 44.2077 60.8579 43.2017C60.8579 42.1957 60.0259 41.3801 58.9996 41.3801C57.9732 41.3801 57.1412 42.1957 57.1412 43.2017C57.1412 44.2077 57.9732 45.0232 58.9996 45.0232Z" fill="#D44C39"/>
<path d="M58.9996 50.5717C60.0259 50.5717 60.8579 49.7562 60.8579 48.7501C60.8579 47.7441 60.0259 46.9286 58.9996 46.9286C57.9732 46.9286 57.1412 47.7441 57.1412 48.7501C57.1412 49.7562 57.9732 50.5717 58.9996 50.5717Z" fill="#D44C39"/>
<path d="M41.1428 45.0232C42.1691 45.0232 43.0011 44.2077 43.0011 43.2017C43.0011 42.1957 42.1691 41.3801 41.1428 41.3801C40.1164 41.3801 39.2844 42.1957 39.2844 43.2017C39.2844 44.2077 40.1164 45.0232 41.1428 45.0232Z" fill="#D44C39"/>
<path d="M41.1428 50.5717C42.1691 50.5717 43.0011 49.7562 43.0011 48.7501C43.0011 47.7441 42.1691 46.9286 41.1428 46.9286C40.1164 46.9286 39.2844 47.7441 39.2844 48.7501C39.2844 49.7562 40.1164 50.5717 41.1428 50.5717Z" fill="#D44C39"/>
<path d="M36.564 44.3675C37.2207 44.3675 37.7531 43.8457 37.7531 43.202C37.7531 42.5583 37.2207 42.0365 36.564 42.0365C35.9074 42.0365 35.375 42.5583 35.375 43.202C35.375 43.8457 35.9074 44.3675 36.564 44.3675Z" fill="#D44C39"/>
<path d="M36.564 49.916C37.2207 49.916 37.7531 49.3942 37.7531 48.7505C37.7531 48.1068 37.2207 47.585 36.564 47.585C35.9074 47.585 35.375 48.1068 35.375 48.7505C35.375 49.3942 35.9074 49.916 36.564 49.916Z" fill="#D44C39"/>
<path d="M63.2706 44.3675C63.9273 44.3675 64.4596 43.8457 64.4596 43.202C64.4596 42.5583 63.9273 42.0365 63.2706 42.0365C62.6139 42.0365 62.0815 42.5583 62.0815 43.202C62.0815 43.8457 62.6139 44.3675 63.2706 44.3675Z" fill="#D44C39"/>
<path d="M63.2706 49.916C63.9273 49.916 64.4596 49.3942 64.4596 48.7505C64.4596 48.1068 63.9273 47.585 63.2706 47.585C62.6139 47.585 62.0815 48.1068 62.0815 48.7505C62.0815 49.3942 62.6139 49.916 63.2706 49.916Z" fill="#D44C39"/>
<path d="M47.073 39.1123C48.0994 39.1123 48.9314 38.2968 48.9314 37.2908C48.9314 36.2848 48.0994 35.4692 47.073 35.4692C46.0467 35.4692 45.2147 36.2848 45.2147 37.2908C45.2147 38.2968 46.0467 39.1123 47.073 39.1123Z" fill="#D44C39"/>
<path d="M53.1748 39.1123C54.2011 39.1123 55.0331 38.2968 55.0331 37.2908C55.0331 36.2848 54.2011 35.4692 53.1748 35.4692C52.1485 35.4692 51.3165 36.2848 51.3165 37.2908C51.3165 38.2968 52.1485 39.1123 53.1748 39.1123Z" fill="#D44C39"/>
<path d="M47.0233 56.2181C48.0496 56.2181 48.8816 55.4025 48.8816 54.3965C48.8816 53.3905 48.0496 52.575 47.0233 52.575C45.997 52.575 45.165 53.3905 45.165 54.3965C45.165 55.4025 45.997 56.2181 47.0233 56.2181Z" fill="#D44C39"/>
<path d="M53.125 56.2181C54.1514 56.2181 54.9834 55.4025 54.9834 54.3965C54.9834 53.3905 54.1514 52.575 53.125 52.575C52.0987 52.575 51.2667 53.3905 51.2667 54.3965C51.2667 55.4025 52.0987 56.2181 53.125 56.2181Z" fill="#D44C39"/>
<path d="M58.9996 56.2181C60.0259 56.2181 60.8579 55.4025 60.8579 54.3965C60.8579 53.3905 60.0259 52.575 58.9996 52.575C57.9732 52.575 57.1412 53.3905 57.1412 54.3965C57.1412 55.4025 57.9732 56.2181 58.9996 56.2181Z" fill="#D44C39"/>
<path d="M41.1428 56.1203C42.1691 56.1203 43.0011 55.3047 43.0011 54.2987C43.0011 53.2927 42.1691 52.4772 41.1428 52.4772C40.1164 52.4772 39.2844 53.2927 39.2844 54.2987C39.2844 55.3047 40.1164 56.1203 41.1428 56.1203Z" fill="#D44C39"/>
<path d="M58.9996 39.1612C60.0259 39.1612 60.8579 38.3456 60.8579 37.3396C60.8579 36.3336 60.0259 35.5181 58.9996 35.5181C57.9732 35.5181 57.1412 36.3336 57.1412 37.3396C57.1412 38.3456 57.9732 39.1612 58.9996 39.1612Z" fill="#D44C39"/>
<path d="M41.1428 39.0634C42.1691 39.0634 43.0011 38.2479 43.0011 37.2418C43.0011 36.2358 42.1691 35.4203 41.1428 35.4203C40.1164 35.4203 39.2844 36.2358 39.2844 37.2418C39.2844 38.2479 40.1164 39.0634 41.1428 39.0634Z" fill="#D44C39"/>
<path d="M53.1746 59.9099C53.8313 59.9099 54.3636 59.3881 54.3636 58.7444C54.3636 58.1007 53.8313 57.5789 53.1746 57.5789C52.5179 57.5789 51.9855 58.1007 51.9855 58.7444C51.9855 59.3881 52.5179 59.9099 53.1746 59.9099Z" fill="#D44C39"/>
<path d="M47.0731 59.9099C47.7298 59.9099 48.2622 59.3881 48.2622 58.7444C48.2622 58.1007 47.7298 57.5789 47.0731 57.5789C46.4164 57.5789 45.8841 58.1007 45.8841 58.7444C45.8841 59.3881 46.4164 59.9099 47.0731 59.9099Z" fill="#D44C39"/>
<path d="M53.1746 34.2409C53.8313 34.2409 54.3636 33.7191 54.3636 33.0754C54.3636 32.4317 53.8313 31.9099 53.1746 31.9099C52.5179 31.9099 51.9855 32.4317 51.9855 33.0754C51.9855 33.7191 52.5179 34.2409 53.1746 34.2409Z" fill="#D44C39"/>
<path d="M47.0731 34.2409C47.7298 34.2409 48.2622 33.7191 48.2622 33.0754C48.2622 32.4317 47.7298 31.9099 47.0731 31.9099C46.4164 31.9099 45.8841 32.4317 45.8841 33.0754C45.8841 33.7191 46.4164 34.2409 47.0731 34.2409Z" fill="#D44C39"/>
<path d="M62.7355 14.5924V4.74732C62.7355 3.61637 63.6526 2.69922 64.7836 2.69922H90.1581C91.2891 2.69922 92.2062 3.61637 92.2062 4.74732V28.4354C92.2062 29.5664 91.2891 30.4835 90.1581 30.4835H82.4981" stroke="#D44C39" stroke-width="2.5" stroke-miterlimit="10" stroke-linecap="round"/>
<path d="M40.6539 76.1089V79.1483C40.6539 80.3372 39.6908 81.3003 38.5019 81.3003H3.94382C2.75492 81.3003 1.79181 80.3372 1.79181 79.1483V46.8122C1.79181 45.6233 2.75492 44.6602 3.94382 44.6602H19.1319" stroke="#D44C39" stroke-width="2.5" stroke-miterlimit="10" stroke-linecap="round"/>
<path d="M75.04 5.99417C74.4626 6.176 74.1429 6.78944 74.3227 7.3669C74.5045 7.94437 75.118 8.26407 75.6954 8.08424C76.2729 7.90241 76.5946 7.28897 76.4128 6.71151C76.2309 6.13404 75.6175 5.81234 75.04 5.99417Z" fill="#D44C39"/>
<path d="M81.532 6.20205C81.0205 6.44783 80.8047 7.06326 81.0545 7.57478C81.3023 8.08631 81.9197 8.29812 82.4292 8.04835C82.9367 7.79858 83.1466 7.18714 82.9008 6.67961C82.653 6.17208 82.0416 5.95828 81.534 6.20405L81.532 6.20205Z" fill="#D44C39"/>
<path d="M71.6192 9.52495C71.0677 9.74275 70.796 10.3662 71.0098 10.9177C71.2236 11.4712 71.843 11.7469 72.3985 11.5371C72.96 11.3253 73.2397 10.6959 73.0239 10.1384C72.8081 9.5789 72.1767 9.30316 71.6192 9.52495Z" fill="#D44C39"/>
<path d="M78.2291 9.51527C77.6916 9.74706 77.4418 10.3685 77.6716 10.906C77.9014 11.4435 78.5228 11.6933 79.0603 11.4655C79.5998 11.2357 79.8516 10.6123 79.6198 10.0728C79.39 9.53325 78.7646 9.28349 78.2271 9.51527H78.2291Z" fill="#D44C39"/>
<path d="M84.7491 9.49723C84.3754 9.65108 84.1197 10.0028 84.0877 10.4064C84.0557 10.81 84.2555 11.1977 84.6012 11.4075C84.9469 11.6173 85.3825 11.6153 85.7262 11.4015C86.1997 11.1077 86.3696 10.4963 86.1138 10.0008C85.8601 9.50322 85.2666 9.28542 84.7491 9.49723Z" fill="#D44C39"/>
<path d="M75.1659 12.7017C74.5985 12.8615 74.2668 13.449 74.4206 14.0164C74.5745 14.5859 75.1599 14.9236 75.7294 14.7737C76.3069 14.6219 76.6486 14.0284 76.4927 13.453C76.3368 12.8775 75.7394 12.5398 75.1659 12.7017Z" fill="#D44C39"/>
<path d="M87.9641 12.694C87.5645 12.7859 87.2508 13.0937 87.1489 13.4893C87.047 13.8849 87.1749 14.3065 87.4786 14.5783C87.7823 14.852 88.2139 14.934 88.5975 14.7901C89.139 14.5863 89.4308 13.9988 89.2629 13.4453C89.0951 12.8918 88.5276 12.5622 87.9641 12.694Z" fill="#D44C39"/>
<path d="M68.3643 12.848C67.8328 13.1737 67.6649 13.869 67.9886 14.4005C68.3123 14.934 69.0057 15.1059 69.5392 14.7862C70.0787 14.4625 70.2525 13.7631 69.9268 13.2256C69.6011 12.6881 68.8998 12.5183 68.3643 12.848Z" fill="#D44C39"/>
<path d="M81.3523 12.8762C80.8667 13.1899 80.7168 13.8313 81.0126 14.3268C81.3083 14.8244 81.9437 14.9962 82.4512 14.7185C82.7949 14.5287 83.0087 14.167 83.0087 13.7754C83.0087 13.3817 82.7929 13.0221 82.4492 12.8342C82.1036 12.6464 81.6839 12.6624 81.3543 12.8742L81.3523 12.8762Z" fill="#D44C39"/>
<path d="M78.2171 16.0532C77.6616 16.315 77.4258 16.9764 77.6876 17.5319C77.9493 18.0853 78.6127 18.3231 79.1662 18.0594C79.7197 17.7976 79.9555 17.1362 79.6937 16.5827C79.432 16.0292 78.7706 15.7915 78.2171 16.0532Z" fill="#D44C39"/>
<path d="M84.6232 16.0629C84.2615 16.2088 84.0058 16.5385 83.9538 16.9261C83.9039 17.3138 84.0657 17.6974 84.3794 17.9312C84.6931 18.165 85.1068 18.211 85.4644 18.0531C86.0019 17.8133 86.2497 17.1879 86.0199 16.6464C85.7901 16.1049 85.1707 15.8451 84.6232 16.0649V16.0629Z" fill="#D44C39"/>
<path d="M71.7132 16.1787C71.1657 16.4205 70.9139 17.0559 71.1457 17.6074C71.3775 18.1589 72.0049 18.4246 72.5624 18.2048C72.932 18.0589 73.1958 17.7233 73.2477 17.3296C73.3017 16.936 73.1378 16.5423 72.8181 16.3046C72.5004 16.0648 72.0768 16.0168 71.7132 16.1787Z" fill="#D44C39"/>
<path d="M81.6939 19.5015C81.1324 19.6594 80.8047 20.2409 80.9586 20.8023C81.1125 21.3638 81.6919 21.6975 82.2534 21.5477C82.8229 21.3958 83.1586 20.8103 83.0027 20.2429C82.8469 19.6754 82.2594 19.3437 81.6919 19.5035L81.6939 19.5015Z" fill="#D44C39"/>
<path d="M84.5992 22.8687C84.0957 23.1604 83.9199 23.7998 84.2036 24.3074C84.4873 24.8149 85.1267 24.9987 85.6363 24.723C85.974 24.5412 86.1858 24.1895 86.1938 23.8078C86.1998 23.4242 85.9999 23.0665 85.6702 22.8727C85.3405 22.6789 84.9309 22.6769 84.5992 22.8687Z" fill="#D44C39"/>
<path d="M75.6955 8.08424C75.118 8.26607 74.5046 7.94437 74.3227 7.3669C74.1409 6.78944 74.4626 6.176 75.0401 5.99417C75.6175 5.81234 76.233 6.13404 76.4128 6.71151C76.5946 7.28897 76.2729 7.90241 75.6955 8.08424Z" fill="#D44C39"/>
<path d="M82.4292 8.04839C81.9197 8.29816 81.3022 8.08636 81.0545 7.57483C80.8067 7.0633 81.0205 6.44787 81.532 6.2021C82.0416 5.95633 82.653 6.17013 82.8988 6.67766C83.1445 7.18519 82.9347 7.79862 82.4272 8.04639L82.4292 8.04839Z" fill="#D44C39"/>
<path d="M72.3985 11.5393C71.843 11.7491 71.2236 11.4713 71.0098 10.9199C70.796 10.3664 71.0677 9.74494 71.6192 9.52714C72.1767 9.30535 72.8081 9.58309 73.0239 10.1406C73.2397 10.7001 72.96 11.3275 72.3985 11.5393Z" fill="#D44C39"/>
<path d="M79.0623 11.4655C78.5248 11.6953 77.9034 11.4435 77.6736 10.906C77.4438 10.3685 77.6936 9.74706 78.2311 9.51527C78.7706 9.28349 79.394 9.53325 79.6238 10.0728C79.8536 10.6123 79.6038 11.2357 79.0643 11.4655H79.0623Z" fill="#D44C39"/>
<path d="M85.7262 11.4013C85.3825 11.6151 84.9489 11.6171 84.6012 11.4073C84.2555 11.1975 84.0577 10.8099 84.0877 10.4063C84.1197 10.0026 84.3754 9.65096 84.7491 9.4971C85.2666 9.2833 85.8581 9.5031 86.1138 10.0006C86.3696 10.4982 86.1997 11.1076 85.7262 11.4013Z" fill="#D44C39"/>
<path d="M75.7294 14.7737C75.1599 14.9236 74.5745 14.5859 74.4206 14.0164C74.2668 13.447 74.5985 12.8595 75.1659 12.7017C75.7414 12.5398 76.3368 12.8775 76.4927 13.453C76.6486 14.0284 76.3069 14.6219 75.7294 14.7737Z" fill="#D44C39"/>
<path d="M88.5975 14.7904C88.2139 14.9343 87.7843 14.8524 87.4786 14.5786C87.1749 14.3049 87.047 13.8853 87.1489 13.4896C87.2508 13.094 87.5645 12.7863 87.9641 12.6944C88.5276 12.5645 89.0951 12.8922 89.2629 13.4457C89.4308 13.9992 89.139 14.5886 88.5975 14.7904Z" fill="#D44C39"/>
<path d="M69.5411 14.7862C69.0056 15.1059 68.3143 14.934 67.9906 14.4005C67.6669 13.867 67.8347 13.1737 68.3662 12.848C68.9017 12.5183 69.6031 12.6881 69.9288 13.2256C70.2545 13.7631 70.0806 14.4625 69.5411 14.7862Z" fill="#D44C39"/>
<path d="M82.4512 14.7204C81.9437 14.9981 81.3083 14.8243 81.0126 14.3288C80.7168 13.8312 80.8667 13.1898 81.3523 12.8781C81.682 12.6663 82.1016 12.6503 82.4472 12.8381C82.7909 13.026 83.0067 13.3856 83.0067 13.7793C83.0067 14.1709 82.7949 14.5326 82.4492 14.7224L82.4512 14.7204Z" fill="#D44C39"/>
<path d="M79.1663 18.0594C78.6128 18.3211 77.9494 18.0853 77.6876 17.5319C77.4259 16.9764 77.6636 16.315 78.2171 16.0532C78.7706 15.7915 79.432 16.0292 79.6938 16.5827C79.9555 17.1362 79.7197 17.7976 79.1663 18.0594Z" fill="#D44C39"/>
<path d="M85.4644 18.0528C85.1068 18.2107 84.6931 18.1647 84.3794 17.9309C84.0657 17.6971 83.9039 17.3135 83.9538 16.9258C84.0038 16.5382 84.2615 16.2085 84.6232 16.0626C85.1707 15.8448 85.7901 16.1026 86.0199 16.6441C86.2497 17.1856 86.0019 17.811 85.4644 18.0508V18.0528Z" fill="#D44C39"/>
<path d="M72.5603 18.2068C72.0048 18.4246 71.3754 18.1588 71.1436 17.6093C70.9139 17.0578 71.1656 16.4224 71.7111 16.1806C72.0748 16.0188 72.4984 16.0667 72.8161 16.3065C73.1338 16.5463 73.2977 16.9379 73.2457 17.3316C73.1917 17.7252 72.93 18.0609 72.5603 18.2068Z" fill="#D44C39"/>
<path d="M82.2534 21.5457C81.6899 21.6956 81.1125 21.3639 80.9586 20.8004C80.8047 20.239 81.1324 19.6575 81.6939 19.4996C82.2614 19.3398 82.8489 19.6715 83.0047 20.239C83.1606 20.8064 82.8229 21.3919 82.2554 21.5437L82.2534 21.5457Z" fill="#D44C39"/>
<path d="M89.0831 21.3001C88.7714 21.8057 88.112 21.9695 87.6004 21.6678C87.0889 21.3661 86.9151 20.7087 87.2068 20.1912C87.4006 19.8495 87.7663 19.6377 88.1599 19.6397C88.5536 19.6397 88.9152 19.8555 89.107 20.1991C89.2989 20.5428 89.2889 20.9644 89.0831 21.3001Z" fill="#D44C39"/>
<path d="M85.6363 24.723C85.1247 24.9987 84.4873 24.8149 84.2036 24.3074C83.9199 23.7998 84.0957 23.1584 84.5992 22.8687C84.9309 22.6769 85.3405 22.6789 85.6702 22.8727C85.9999 23.0665 86.1998 23.4242 86.1938 23.8078C86.1878 24.1915 85.974 24.5412 85.6363 24.723Z" fill="#D44C39"/>
<path d="M69.2414 8.02241C68.6879 8.22622 68.0705 7.96846 67.8307 7.43095C67.589 6.89345 67.8048 6.26004 68.3243 5.98229C68.6939 5.78448 69.1435 5.81045 69.4872 6.04823C69.8329 6.28601 70.0167 6.69563 69.9648 7.11125C69.9128 7.52686 69.6331 7.87854 69.2414 8.0244V8.02241Z" fill="#D44C39"/>
<path d="M28.1674 73.9634C25.9655 75.6798 23.194 76.7029 20.1848 76.7029C13.0075 76.7029 7.18884 70.8843 7.18884 63.7069C7.18884 56.5296 13.0075 50.7109 20.1848 50.7109" stroke="#D44C39" stroke-width="2" stroke-miterlimit="10" stroke-linecap="round"/>
<path d="M20.1848 67.8032C17.9229 67.8032 16.0906 65.9709 16.0906 63.709C16.0906 61.447 17.9229 59.6147 20.1848 59.6147" stroke="#D44C39" stroke-width="2" stroke-miterlimit="10" stroke-linecap="round"/>
<path d="M15.3773 51.6021L18.4564 59.9963" stroke="#D44C39" stroke-width="2" stroke-miterlimit="10" stroke-linecap="round"/>
<path d="M8.4397 58.1021L16.4463 61.393" stroke="#D44C39" stroke-width="2" stroke-miterlimit="10" stroke-linecap="round"/>
<path d="M8.29181 69.1279L15.8828 64.9678" stroke="#D44C39" stroke-width="2" stroke-miterlimit="10" stroke-linecap="round"/>
<path d="M15.4572 75.7938L19.0418 67.915" stroke="#D44C39" stroke-width="2" stroke-miterlimit="10" stroke-linecap="round"/>
</svg>
