<svg width="80" height="80" viewBox="0 0 80 80" fill="none" xmlns="http://www.w3.org/2000/svg">
<g clip-path="url(#clip0_749_1606)">
<path d="M22.8422 18.553H57.154C59.5216 18.553 61.4429 20.4743 61.4429 22.8419V57.1576C61.4429 59.5253 59.5216 61.4466 57.154 61.4466H22.8422C20.4745 61.4466 18.5532 59.5253 18.5532 57.1576V22.8419C18.5532 20.4743 20.4745 18.553 22.8422 18.553Z" stroke="#D44C39" stroke-width="2.5" stroke-linecap="round" stroke-linejoin="round"/>
<path d="M36.3146 11.516V18.553" stroke="#D44C39" stroke-width="2.5" stroke-linecap="round" stroke-linejoin="round"/>
<path d="M43.8523 11.516V18.553" stroke="#D44C39" stroke-width="2.5" stroke-linecap="round" stroke-linejoin="round"/>
<path d="M40.002 1.10608C42.0941 1.10608 43.7941 2.80614 43.7941 4.89823C43.7941 6.99032 42.0941 8.69038 40.002 8.69038C37.9099 8.69038 36.2098 6.99032 36.2098 4.89823C36.2098 2.80614 37.9099 1.10608 40.002 1.10608Z" stroke="#D44C39" stroke-width="2.5" stroke-linecap="round" stroke-linejoin="round"/>
<path d="M25.4234 1.10608C27.5155 1.10608 29.2155 2.80614 29.2155 4.89823C29.2155 6.99032 27.5155 8.69038 25.4234 8.69038C23.3313 8.69038 21.6312 6.99032 21.6312 4.89823C21.6312 2.80614 23.3313 1.10608 25.4234 1.10608Z" stroke="#D44C39" stroke-width="2.5" stroke-linecap="round" stroke-linejoin="round"/>
<path d="M40.002 9.02795V18.553" stroke="#D44C39" stroke-width="2.5" stroke-linecap="round" stroke-linejoin="round"/>
<path d="M28.4547 7.55701L32.4603 11.0154V18.5531" stroke="#D44C39" stroke-width="2.5" stroke-linecap="round" stroke-linejoin="round"/>
<path d="M54.5767 1.10608C52.4846 1.10608 50.7845 2.80614 50.7845 4.89823C50.7845 6.99032 52.4846 8.69038 54.5767 8.69038C56.6688 8.69038 58.3688 6.99032 58.3688 4.89823C58.3688 2.80614 56.6688 1.10608 54.5767 1.10608Z" stroke="#D44C39" stroke-width="2.5" stroke-linecap="round" stroke-linejoin="round"/>
<path d="M51.5492 7.55701L47.5397 11.0154V18.5531" stroke="#D44C39" stroke-width="2.5" stroke-linecap="round" stroke-linejoin="round"/>
<path d="M11.5162 43.6852H18.5533" stroke="#D44C39" stroke-width="2.5" stroke-linecap="round" stroke-linejoin="round"/>
<path d="M11.5162 36.1475H18.5533" stroke="#D44C39" stroke-width="2.5" stroke-linecap="round" stroke-linejoin="round"/>
<path d="M1.1062 40.0017C1.1062 37.9097 2.80626 36.2096 4.89835 36.2096C6.99044 36.2096 8.6905 37.9097 8.6905 40.0017C8.6905 42.0938 6.99044 43.7939 4.89835 43.7939C2.80626 43.7939 1.1062 42.0938 1.1062 40.0017Z" stroke="#D44C39" stroke-width="2.5" stroke-linecap="round" stroke-linejoin="round"/>
<path d="M1.1062 54.5765C1.1062 52.4844 2.80626 50.7843 4.89835 50.7843C6.99044 50.7843 8.6905 52.4844 8.6905 54.5765C8.6905 56.6685 6.99044 58.3686 4.89835 58.3686C2.80626 58.3686 1.1062 56.6685 1.1062 54.5765Z" stroke="#D44C39" stroke-width="2.5" stroke-linecap="round" stroke-linejoin="round"/>
<path d="M9.0282 40.0018H18.5532" stroke="#D44C39" stroke-width="2.5" stroke-linecap="round" stroke-linejoin="round"/>
<path d="M7.55322 51.5451L11.0155 47.5394H18.5532" stroke="#D44C39" stroke-width="2.5" stroke-linecap="round" stroke-linejoin="round"/>
<path d="M1.1062 25.4231C1.1062 27.5152 2.80626 29.2153 4.89835 29.2153C6.99044 29.2153 8.6905 27.5152 8.6905 25.4231C8.6905 23.331 6.99044 21.631 4.89835 21.631C2.80626 21.631 1.1062 23.3272 1.1062 25.4231Z" stroke="#D44C39" stroke-width="2.5" stroke-linecap="round" stroke-linejoin="round"/>
<path d="M7.55322 28.4546L11.0155 32.4602H18.5532" stroke="#D44C39" stroke-width="2.5" stroke-linecap="round" stroke-linejoin="round"/>
<path d="M68.4838 43.6852H61.4468" stroke="#D44C39" stroke-width="2.5" stroke-linecap="round" stroke-linejoin="round"/>
<path d="M68.4838 36.1475H61.4468" stroke="#D44C39" stroke-width="2.5" stroke-linecap="round" stroke-linejoin="round"/>
<path d="M78.8937 40.0017C78.8937 37.9097 77.1937 36.2096 75.1016 36.2096C73.0095 36.2096 71.3094 37.9097 71.3094 40.0017C71.3094 42.0938 73.0095 43.7939 75.1016 43.7939C77.1937 43.7939 78.8937 42.0938 78.8937 40.0017Z" stroke="#D44C39" stroke-width="2.5" stroke-linecap="round" stroke-linejoin="round"/>
<path d="M78.8937 54.5765C78.8937 52.4844 77.1937 50.7843 75.1016 50.7843C73.0095 50.7843 71.3094 52.4844 71.3094 54.5765C71.3094 56.6685 73.0095 58.3686 75.1016 58.3686C77.1937 58.3686 78.8937 56.6685 78.8937 54.5765Z" stroke="#D44C39" stroke-width="2.5" stroke-linecap="round" stroke-linejoin="round"/>
<path d="M70.9718 40.0018H61.4468" stroke="#D44C39" stroke-width="2.5" stroke-linecap="round" stroke-linejoin="round"/>
<path d="M72.4467 51.5451L68.9845 47.5394H61.4468" stroke="#D44C39" stroke-width="2.5" stroke-linecap="round" stroke-linejoin="round"/>
<path d="M78.8937 25.4231C78.8937 27.5152 77.1937 29.2153 75.1016 29.2153C73.0095 29.2153 71.3094 27.5152 71.3094 25.4231C71.3094 23.331 73.0095 21.631 75.1016 21.631C77.1937 21.631 78.8937 23.3272 78.8937 25.4231Z" stroke="#D44C39" stroke-width="2.5" stroke-linecap="round" stroke-linejoin="round"/>
<path d="M72.4467 28.4546L68.9845 32.4602H61.4468" stroke="#D44C39" stroke-width="2.5" stroke-linecap="round" stroke-linejoin="round"/>
<path d="M36.3146 68.4837V61.4467" stroke="#D44C39" stroke-width="2.5" stroke-linecap="round" stroke-linejoin="round"/>
<path d="M43.8523 68.4837V61.4467" stroke="#D44C39" stroke-width="2.5" stroke-linecap="round" stroke-linejoin="round"/>
<path d="M40.002 78.8937C42.0941 78.8937 43.7941 77.1937 43.7941 75.1016C43.7941 73.0095 42.0941 71.3094 40.002 71.3094C37.9099 71.3094 36.2098 73.0095 36.2098 75.1016C36.2098 77.1937 37.9099 78.8937 40.002 78.8937Z" stroke="#D44C39" stroke-width="2.5" stroke-linecap="round" stroke-linejoin="round"/>
<path d="M25.4234 78.8937C27.5155 78.8937 29.2155 77.1937 29.2155 75.1016C29.2155 73.0095 27.5155 71.3094 25.4234 71.3094C23.3313 71.3094 21.6312 73.0095 21.6312 75.1016C21.6312 77.1937 23.3313 78.8937 25.4234 78.8937Z" stroke="#D44C39" stroke-width="2.5" stroke-linecap="round" stroke-linejoin="round"/>
<path d="M40.002 70.9717V61.4467" stroke="#D44C39" stroke-width="2.5" stroke-linecap="round" stroke-linejoin="round"/>
<path d="M28.4547 72.4466L32.4603 68.9883V61.4467" stroke="#D44C39" stroke-width="2.5" stroke-linecap="round" stroke-linejoin="round"/>
<path d="M54.5767 78.8937C52.4846 78.8937 50.7845 77.1937 50.7845 75.1016C50.7845 73.0095 52.4846 71.3094 54.5767 71.3094C56.6688 71.3094 58.3688 73.0095 58.3688 75.1016C58.3688 77.1937 56.6688 78.8937 54.5767 78.8937Z" stroke="#D44C39" stroke-width="2.5" stroke-linecap="round" stroke-linejoin="round"/>
<path d="M51.5492 72.4466L47.5397 68.9883V61.4467" stroke="#D44C39" stroke-width="2.5" stroke-linecap="round" stroke-linejoin="round"/>
<path d="M32.4603 46.8487L37.642 33.1511L42.8198 46.8487" stroke="#D44C39" stroke-width="2.5" stroke-linecap="round" stroke-linejoin="round"/>
<path d="M34.3273 41.9114H40.7471" stroke="#D44C39" stroke-width="2.5" stroke-linecap="round" stroke-linejoin="round"/>
<path d="M47.5397 33.1511V46.8487" stroke="#D44C39" stroke-width="2.5" stroke-linecap="round" stroke-linejoin="round"/>
</g>
<defs>
<clipPath id="clip0_749_1606">
<rect width="80" height="80" fill="white"/>
</clipPath>
</defs>
</svg>
