<?xml version="1.0" encoding="UTF-8" standalone="no"?><!DOCTYPE svg PUBLIC "-//W3C//DTD SVG 1.1//EN" "http://www.w3.org/Graphics/SVG/1.1/DTD/svg11.dtd"><svg width="100%" height="100%" viewBox="0 0 8320 8074" version="1.1" xmlns="http://www.w3.org/2000/svg" xmlns:xlink="http://www.w3.org/1999/xlink" xml:space="preserve" xmlns:serif="http://www.serif.com/" style="fill-rule:evenodd;clip-rule:evenodd;stroke-linejoin:round;stroke-miterlimit:2;"><g id="background-banner"><path d="M2141.59,1575.25c-0,291.167 -236.006,527.145 -527.156,527.145c-291.15,-0 -527.15,-235.978 -527.15,-527.145c0,-291.167 236,-527.144 527.15,-527.144c291.15,-0 527.156,235.977 527.156,527.144" style="fill:#f4f4f5;fill-rule:nonzero;"/><path d="M4031.22,3214.95c0,399.528 -323.877,723.405 -723.405,723.405c-399.522,0 -723.406,-323.877 -723.406,-723.405c0,-399.528 323.884,-723.406 723.406,-723.406c399.528,0 723.405,323.878 723.405,723.406" style="fill:#f4f4f5;fill-rule:nonzero;"/><path d="M2141.59,3214.95c-0,291.139 -236.017,527.155 -527.156,527.155c-291.139,0 -527.15,-236.016 -527.15,-527.155c0,-291.139 236.011,-527.156 527.15,-527.156c291.139,0 527.156,236.017 527.156,527.156" style="fill:#f4f4f5;fill-rule:nonzero;"/><path d="M658.939,3214.95c-0,181.961 -147.511,329.472 -329.472,329.472c-181.961,0 -329.467,-147.511 -329.467,-329.472c0,-181.961 147.506,-329.472 329.467,-329.472c181.961,-0 329.472,147.511 329.472,329.472" style="fill:#f4f4f5;fill-rule:nonzero;"/><path d="M3637.29,341.91c-0,181.961 -147.512,329.472 -329.473,329.472c-181.961,0 -329.466,-147.511 -329.466,-329.472c-0,-181.961 147.505,-329.472 329.466,-329.472c181.961,-0 329.473,147.511 329.473,329.472" style="fill:#f4f4f5;fill-rule:nonzero;"/><path d="M5334.91,329.472c0,181.961 -147.511,329.472 -329.472,329.472c-181.961,0 -329.472,-147.511 -329.472,-329.472c-0,-181.961 147.511,-329.472 329.472,-329.472c181.961,0 329.472,147.511 329.472,329.472" style="fill:#f4f4f5;fill-rule:nonzero;"/><path d="M3637.29,7743.65c-0,181.961 -147.512,329.472 -329.473,329.472c-181.961,0 -329.466,-147.511 -329.466,-329.472c-0,-181.961 147.505,-329.472 329.466,-329.472c181.961,-0 329.473,147.511 329.473,329.472" style="fill:#f4f4f5;fill-rule:nonzero;"/><path d="M5334.91,7731.21c0,181.961 -147.511,329.472 -329.472,329.472c-181.961,0 -329.472,-147.511 -329.472,-329.472c-0,-181.961 147.511,-329.472 329.472,-329.472c181.961,-0 329.472,147.511 329.472,329.472" style="fill:#f4f4f5;fill-rule:nonzero;"/><path d="M658.939,4856.6c-0,181.962 -147.511,329.473 -329.472,329.473c-181.961,-0 -329.467,-147.511 -329.467,-329.473c0,-181.961 147.506,-329.472 329.467,-329.472c181.961,0 329.472,147.511 329.472,329.472" style="fill:#f4f4f5;fill-rule:nonzero;"/><path d="M8319.98,3214.95c-0,181.961 -147.512,329.472 -329.473,329.472c-181.961,0 -329.466,-147.511 -329.466,-329.472c-0,-181.961 147.505,-329.472 329.466,-329.472c181.961,-0 329.473,147.511 329.473,329.472" style="fill:#f4f4f5;fill-rule:nonzero;"/><path d="M8319.98,4856.6c-0,181.962 -147.512,329.473 -329.473,329.473c-181.961,-0 -329.466,-147.511 -329.466,-329.473c-0,-181.961 147.505,-329.472 329.466,-329.472c181.961,0 329.473,147.511 329.473,329.472" style="fill:#f4f4f5;fill-rule:nonzero;"/><path d="M7221.73,3214.95c0,291.139 -236.016,527.155 -527.155,527.155c-291.139,0 -527.15,-236.016 -527.15,-527.155c-0,-291.139 236.011,-527.156 527.15,-527.156c291.139,0 527.155,236.017 527.155,527.156" style="fill:#f4f4f5;fill-rule:nonzero;"/><path d="M2141.59,4875.26c-0,291.139 -236.017,527.156 -527.156,527.156c-291.139,0 -527.15,-236.017 -527.15,-527.156c0,-291.138 236.011,-527.155 527.15,-527.155c291.139,-0 527.156,236.017 527.156,527.155" style="fill:#f4f4f5;fill-rule:nonzero;"/><path d="M7221.73,4875.26c0,291.139 -236.016,527.156 -527.155,527.156c-291.139,0 -527.15,-236.017 -527.15,-527.156c-0,-291.138 236.011,-527.155 527.15,-527.155c291.139,-0 527.155,236.017 527.155,527.155" style="fill:#f4f4f5;fill-rule:nonzero;"/><path d="M2141.59,1575.25c-0,291.139 -236.017,527.156 -527.156,527.156c-291.139,-0 -527.15,-236.017 -527.15,-527.156c0,-291.139 236.011,-527.155 527.15,-527.155c291.139,-0 527.156,236.016 527.156,527.155" style="fill:#f4f4f5;fill-rule:nonzero;"/><path d="M3834.97,1575.25c-0,291.139 -236.017,527.156 -527.156,527.156c-291.139,-0 -527.15,-236.017 -527.15,-527.156c0,-291.139 236.011,-527.155 527.15,-527.155c291.139,-0 527.156,236.016 527.156,527.155" style="fill:#f4f4f5;fill-rule:nonzero;"/><path d="M5528.35,1575.25c-0,291.139 -236.017,527.156 -527.156,527.156c-291.139,-0 -527.15,-236.017 -527.15,-527.156c0,-291.139 236.011,-527.155 527.15,-527.155c291.139,-0 527.156,236.016 527.156,527.155" style="fill:#f4f4f5;fill-rule:nonzero;"/><path d="M7221.73,1575.25c0,291.139 -236.016,527.156 -527.155,527.156c-291.139,-0 -527.15,-236.017 -527.15,-527.156c-0,-291.139 236.011,-527.155 527.15,-527.155c291.139,-0 527.155,236.016 527.155,527.155" style="fill:#f4f4f5;fill-rule:nonzero;"/><path d="M2141.59,6500.2c-0,291.139 -236.017,527.155 -527.156,527.155c-291.139,0 -527.15,-236.016 -527.15,-527.155c0,-291.139 236.011,-527.156 527.15,-527.156c291.139,0 527.156,236.017 527.156,527.156" style="fill:#f4f4f5;fill-rule:nonzero;"/><path d="M3834.97,6500.2c-0,291.139 -236.017,527.155 -527.156,527.155c-291.139,0 -527.15,-236.016 -527.15,-527.155c0,-291.139 236.011,-527.156 527.15,-527.156c291.139,0 527.156,236.017 527.156,527.156" style="fill:#f4f4f5;fill-rule:nonzero;"/><path d="M5528.35,6500.2c-0,291.139 -236.017,527.155 -527.156,527.155c-291.139,0 -527.15,-236.016 -527.15,-527.155c0,-291.139 236.011,-527.156 527.15,-527.156c291.139,0 527.156,236.017 527.156,527.156" style="fill:#f4f4f5;fill-rule:nonzero;"/><path d="M7221.73,6500.2c0,291.139 -236.016,527.155 -527.155,527.155c-291.139,0 -527.15,-236.016 -527.15,-527.155c-0,-291.139 236.011,-527.156 527.15,-527.156c291.139,0 527.155,236.017 527.155,527.156" style="fill:#f4f4f5;fill-rule:nonzero;"/><path d="M5728.84,3214.95c0,399.528 -323.878,723.405 -723.405,723.405c-399.523,0 -723.406,-323.877 -723.406,-723.405c0,-399.528 323.883,-723.406 723.406,-723.406c399.527,0 723.405,323.878 723.405,723.406" style="fill:#f4f4f5;fill-rule:nonzero;"/><path d="M4031.22,4875.26c0,399.528 -323.877,723.406 -723.405,723.406c-399.522,0 -723.406,-323.878 -723.406,-723.406c0,-399.527 323.884,-723.405 723.406,-723.405c399.528,-0 723.405,323.878 723.405,723.405" style="fill:#f4f4f5;fill-rule:nonzero;"/><path d="M5728.84,4875.26c0,399.528 -323.878,723.406 -723.405,723.406c-399.523,0 -723.406,-323.878 -723.406,-723.406c0,-399.527 323.883,-723.405 723.406,-723.405c399.527,-0 723.405,323.878 723.405,723.405" style="fill:#f4f4f5;fill-rule:nonzero;"/></g></svg>