<?xml version="1.0" encoding="UTF-8" standalone="no"?>
<!DOCTYPE svg PUBLIC "-//W3C//DTD SVG 1.1//EN" "http://www.w3.org/Graphics/SVG/1.1/DTD/svg11.dtd">
<svg width="100%" height="100%" viewBox="0 0 139 139" version="1.1" xmlns="http://www.w3.org/2000/svg" xmlns:xlink="http://www.w3.org/1999/xlink" xml:space="preserve" xmlns:serif="http://www.serif.com/" style="fill-rule:evenodd;clip-rule:evenodd;stroke-linejoin:round;stroke-miterlimit:2;">
    <g transform="matrix(1,0,0,1,-2649.89,-8014.95)">
        <g transform="matrix(5.55556,0,0,5.55556,0,0)">
            <g transform="matrix(1,0,0,1,499.897,1449.46)">
                <path d="M0,11.46C0,14.14 -2.309,16.147 -4.99,16.147L-16.129,16.147C-18.81,16.147 -20.833,14.14 -20.833,11.46L-20.833,0.32C-20.833,-0.583 -20.66,-1.426 -20.229,-2.151L-16.254,3.003C-14.741,4.946 -12.725,6.016 -10.541,6.016C-8.358,6.016 -6.333,4.946 -4.819,3.003L-0.744,-2.154C-0.312,-1.428 0,-0.584 0,0.32L0,11.46ZM-4.99,-4.687C-3.976,-4.687 -3.034,-4.301 -2.254,-3.768L-6.473,1.686C-7.583,3.111 -9.035,3.914 -10.561,3.914C-12.088,3.914 -13.54,3.139 -14.65,1.713L-18.867,-3.77C-18.087,-4.305 -17.144,-4.687 -16.129,-4.687L-4.99,-4.687ZM2.083,0.174C2.083,-3.661 -1.026,-6.77 -4.861,-6.77L-15.972,-6.77C-19.808,-6.77 -22.917,-3.661 -22.917,0.174L-22.917,11.285C-22.917,15.121 -19.808,18.23 -15.972,18.23L-4.861,18.23C-1.026,18.23 2.083,15.121 2.083,11.285L2.083,0.174Z" style="fill:rgb(140,140,140);fill-rule:nonzero;"/>
            </g>
        </g>
    </g>
</svg>
