<?xml version="1.0" encoding="UTF-8" standalone="no"?>
<!DOCTYPE svg PUBLIC "-//W3C//DTD SVG 1.1//EN" "http://www.w3.org/Graphics/SVG/1.1/DTD/svg11.dtd">
<svg width="100%" height="100%" viewBox="0 0 1279 393" version="1.1" xmlns="http://www.w3.org/2000/svg" xmlns:xlink="http://www.w3.org/1999/xlink" xml:space="preserve" xmlns:serif="http://www.serif.com/" style="fill-rule:evenodd;clip-rule:evenodd;stroke-linejoin:round;stroke-miterlimit:2;">
    <g transform="matrix(1,0,0,1,-2363.09,-10375.6)">
        <g transform="matrix(2,0,0,2,0,0)">
            <g id="footer-logo">
                <g transform="matrix(195.999,0,0,-195.999,1181.55,5285.8)">
                    <path d="M0.498,0.5C0.223,0.499 -0,0.275 -0,0C-0,-0.276 0.224,-0.5 0.5,-0.5C0.775,-0.5 0.998,-0.278 1,-0.003L1,0L0.998,0C0.998,-0.137 0.942,-0.262 0.852,-0.352C0.762,-0.442 0.637,-0.498 0.5,-0.498C0.363,-0.498 0.238,-0.442 0.148,-0.352C0.058,-0.262 0.002,-0.137 0.002,0C0.002,0.137 0.058,0.262 0.148,0.352C0.238,0.442 0.363,0.498 0.5,0.498C0.637,0.498 0.762,0.442 0.852,0.352C0.942,0.262 0.998,0.137 0.998,0L1,0L1,0.003C0.998,0.277 0.776,0.499 0.502,0.5L0.498,0.5Z" style="fill:url(#_Linear1);fill-rule:nonzero;"/>
                </g>
                <g transform="matrix(196,0,0,-196,1329.2,5285.8)">
                    <path d="M0.497,0.5C0.222,0.498 0,0.275 0,0C0,-0.276 0.224,-0.5 0.5,-0.5C0.776,-0.5 1,-0.276 1,0L0.998,0C0.998,-0.137 0.942,-0.262 0.852,-0.352C0.762,-0.442 0.637,-0.498 0.5,-0.498C0.363,-0.498 0.238,-0.442 0.148,-0.352C0.058,-0.262 0.002,-0.137 0.002,0C0.002,0.137 0.058,0.262 0.148,0.352C0.238,0.442 0.363,0.498 0.5,0.498C0.637,0.498 0.762,0.442 0.852,0.352C0.942,0.262 0.998,0.137 0.998,0L1,0C1,0.275 0.778,0.498 0.503,0.5L0.497,0.5Z" style="fill:url(#_Linear2);fill-rule:nonzero;"/>
                </g>
                <g transform="matrix(196.001,0,0,-196.001,1476.95,5285.8)">
                    <path d="M0.497,0.5C0.222,0.498 0,0.275 0,0C0,-0.276 0.224,-0.5 0.5,-0.5C0.776,-0.5 1,-0.276 1,0L0.998,0C0.998,-0.137 0.942,-0.262 0.852,-0.352C0.762,-0.442 0.637,-0.498 0.5,-0.498C0.363,-0.498 0.238,-0.442 0.148,-0.352C0.058,-0.262 0.002,-0.137 0.002,0C0.002,0.137 0.058,0.262 0.148,0.352C0.238,0.442 0.363,0.498 0.5,0.498C0.637,0.498 0.762,0.442 0.852,0.352C0.942,0.262 0.998,0.137 0.998,0L1,0C1,0.275 0.778,0.498 0.503,0.5L0.497,0.5Z" style="fill:url(#_Linear3);fill-rule:nonzero;"/>
                </g>
                <g transform="matrix(196,0,0,-196,1624.69,5285.8)">
                    <path d="M0.497,0.5C0.222,0.498 0,0.275 0,0C0,-0.276 0.224,-0.5 0.5,-0.5C0.776,-0.5 1,-0.276 1,0L0.998,0C0.998,-0.137 0.942,-0.262 0.852,-0.352C0.762,-0.442 0.637,-0.498 0.5,-0.498C0.363,-0.498 0.238,-0.442 0.148,-0.352C0.058,-0.262 0.002,-0.137 0.002,0C0.002,0.137 0.058,0.262 0.148,0.352C0.238,0.442 0.363,0.498 0.5,0.498C0.637,0.498 0.762,0.442 0.852,0.352C0.942,0.262 0.998,0.137 0.998,0L1,0C1,0.275 0.778,0.498 0.503,0.5L0.497,0.5Z" style="fill:url(#_Linear4);fill-rule:nonzero;"/>
                </g>
            </g>
        </g>
    </g>
    <defs>
        <linearGradient id="_Linear1" x1="0" y1="0" x2="1" y2="0" gradientUnits="userSpaceOnUse" gradientTransform="matrix(1,0,0,-1,0,-3.98982e-07)"><stop offset="0" style="stop-color:rgb(196,86,65);stop-opacity:1"/><stop offset="1" style="stop-color:rgb(18,18,18);stop-opacity:1"/></linearGradient>
        <linearGradient id="_Linear2" x1="0" y1="0" x2="1" y2="0" gradientUnits="userSpaceOnUse" gradientTransform="matrix(1,0,0,-1,0,-3.9898e-07)"><stop offset="0" style="stop-color:rgb(196,86,65);stop-opacity:1"/><stop offset="1" style="stop-color:rgb(18,18,18);stop-opacity:1"/></linearGradient>
        <linearGradient id="_Linear3" x1="0" y1="0" x2="1" y2="0" gradientUnits="userSpaceOnUse" gradientTransform="matrix(1,0,0,-1,0,-3.98978e-07)"><stop offset="0" style="stop-color:rgb(196,86,65);stop-opacity:1"/><stop offset="1" style="stop-color:rgb(18,18,18);stop-opacity:1"/></linearGradient>
        <linearGradient id="_Linear4" x1="0" y1="0" x2="1" y2="0" gradientUnits="userSpaceOnUse" gradientTransform="matrix(1,0,0,-1,0,-3.9898e-07)"><stop offset="0" style="stop-color:rgb(196,86,65);stop-opacity:1"/><stop offset="1" style="stop-color:rgb(18,18,18);stop-opacity:1"/></linearGradient>
    </defs>
</svg>
