<?xml version="1.0" encoding="UTF-8" standalone="no"?>
<!DOCTYPE svg PUBLIC "-//W3C//DTD SVG 1.1//EN" "http://www.w3.org/Graphics/SVG/1.1/DTD/svg11.dtd">
<svg width="100%" height="100%" viewBox="0 0 195 195" version="1.1" xmlns="http://www.w3.org/2000/svg" xmlns:xlink="http://www.w3.org/1999/xlink" xml:space="preserve" xmlns:serif="http://www.serif.com/" style="fill-rule:evenodd;clip-rule:evenodd;stroke-linejoin:round;stroke-miterlimit:2;">
    <g transform="matrix(1,0,0,1,-5686.5,-13986.8)">
        <g transform="matrix(5.55556,0,0,5.55556,0,0)">
            <g transform="matrix(1,0,0,1,1041.21,2529.6)">
                <path d="M0,11.043C-3.045,11.043 -5.521,8.566 -5.521,5.522C-5.521,2.477 -3.045,0.001 0,0.001C3.044,0.001 5.521,2.477 5.521,5.522C5.521,8.566 3.044,11.043 0,11.043M0,-3.098C-4.753,-3.098 -8.62,0.769 -8.62,5.522C-8.62,10.274 -4.753,14.141 0,14.141C4.753,14.141 8.62,10.274 8.62,5.522C8.62,0.769 4.753,-3.098 0,-3.098" style="fill:rgb(134,134,134);fill-rule:nonzero;"/>
            </g>
            <g transform="matrix(1,0,0,1,1034.08,2549.33)">
                <path d="M0,-28.414C-3.981,-28.414 -7.22,-25.175 -7.22,-21.194L-7.22,-7.22C-7.22,-3.238 -3.981,0.001 0,0.001L13.974,0.001C17.955,0.001 21.194,-3.238 21.194,-7.22L21.194,-21.194C21.194,-25.175 17.955,-28.414 13.974,-28.414L0,-28.414ZM13.974,3.293L0,3.293C-5.797,3.293 -10.513,-1.423 -10.513,-7.22L-10.513,-21.194C-10.513,-26.991 -5.797,-31.707 0,-31.707L13.974,-31.707C19.771,-31.707 24.487,-26.991 24.487,-21.194L24.487,-7.22C24.487,-1.423 19.771,3.293 13.974,3.293" style="fill:rgb(134,134,134);fill-rule:nonzero;"/>
            </g>
        </g>
    </g>
</svg>
