<?xml version="1.0" encoding="UTF-8" standalone="no"?>
<!DOCTYPE svg PUBLIC "-//W3C//DTD SVG 1.1//EN" "http://www.w3.org/Graphics/SVG/1.1/DTD/svg11.dtd">
<svg width="100%" height="100%" viewBox="0 0 42 42" version="1.1" xmlns="http://www.w3.org/2000/svg" xmlns:xlink="http://www.w3.org/1999/xlink" xml:space="preserve" xmlns:serif="http://www.serif.com/" style="fill-rule:evenodd;clip-rule:evenodd;stroke-linejoin:round;stroke-miterlimit:2;">
    <g transform="matrix(1,0,0,1,-1669.06,-7134.02)">
        <g>
            <g transform="matrix(1,0,0,1,1689.98,7175.87)">
                <path d="M0,-41.849C-5.683,-41.849 -6.395,-41.825 -8.627,-41.723C-10.854,-41.621 -12.375,-41.267 -13.706,-40.75C-15.083,-40.216 -16.249,-39.5 -17.413,-38.337C-18.576,-37.174 -19.291,-36.006 -19.826,-34.63C-20.343,-33.299 -20.697,-31.779 -20.798,-29.551C-20.9,-27.319 -20.924,-26.607 -20.924,-20.924C-20.924,-15.241 -20.9,-14.529 -20.798,-12.297C-20.697,-10.07 -20.343,-8.549 -19.826,-7.218C-19.291,-5.842 -18.576,-4.675 -17.413,-3.512C-16.249,-2.348 -15.083,-1.633 -13.706,-1.098C-12.375,-0.581 -10.854,-0.227 -8.627,-0.125C-6.395,-0.024 -5.683,0 0,0C5.683,0 6.395,-0.024 8.627,-0.125C10.854,-0.227 12.375,-0.581 13.706,-1.098C15.083,-1.633 16.249,-2.348 17.413,-3.512C18.576,-4.675 19.291,-5.842 19.826,-7.218C20.343,-8.549 20.697,-10.07 20.799,-12.297C20.9,-14.529 20.924,-15.241 20.924,-20.924C20.924,-26.607 20.9,-27.319 20.799,-29.551C20.697,-31.779 20.343,-33.299 19.826,-34.63C19.291,-36.006 18.576,-37.174 17.413,-38.337C16.249,-39.5 15.083,-40.216 13.706,-40.75C12.375,-41.267 10.854,-41.621 8.627,-41.723C6.395,-41.825 5.683,-41.849 0,-41.849M0,-38.079C5.587,-38.079 6.249,-38.058 8.455,-37.957C10.495,-37.864 11.603,-37.523 12.341,-37.236C13.318,-36.856 14.015,-36.403 14.747,-35.671C15.479,-34.938 15.932,-34.242 16.312,-33.265C16.599,-32.527 16.939,-31.42 17.033,-29.379C17.133,-27.173 17.155,-26.511 17.155,-20.924C17.155,-15.337 17.133,-14.675 17.033,-12.469C16.939,-10.429 16.599,-9.321 16.312,-8.584C15.932,-7.607 15.479,-6.91 14.747,-6.177C14.015,-5.446 13.318,-4.992 12.341,-4.612C11.603,-4.326 10.495,-3.985 8.455,-3.892C6.249,-3.791 5.588,-3.77 0,-3.77C-5.588,-3.77 -6.249,-3.791 -8.455,-3.892C-10.495,-3.985 -11.603,-4.326 -12.34,-4.612C-13.318,-4.992 -14.014,-5.446 -14.747,-6.177C-15.479,-6.91 -15.932,-7.607 -16.312,-8.584C-16.598,-9.321 -16.939,-10.429 -17.032,-12.469C-17.133,-14.675 -17.154,-15.337 -17.154,-20.924C-17.154,-26.511 -17.133,-27.173 -17.032,-29.379C-16.939,-31.42 -16.598,-32.527 -16.312,-33.265C-15.932,-34.242 -15.479,-34.938 -14.747,-35.671C-14.014,-36.403 -13.318,-36.856 -12.34,-37.236C-11.603,-37.523 -10.495,-37.864 -8.455,-37.957C-6.249,-38.058 -5.587,-38.079 0,-38.079" style="fill:white;fill-rule:nonzero;"/>
            </g>
            <g transform="matrix(1,0,0,1,1689.98,7147.97)">
                <path d="M0,13.95C-3.852,13.95 -6.975,10.827 -6.975,6.975C-6.975,3.123 -3.852,-0 0,-0C3.852,-0 6.975,3.123 6.975,6.975C6.975,10.827 3.852,13.95 0,13.95M0,-3.77C-5.934,-3.77 -10.745,1.041 -10.745,6.975C-10.745,12.909 -5.934,17.72 0,17.72C5.934,17.72 10.745,12.909 10.745,6.975C10.745,1.041 5.934,-3.77 0,-3.77" style="fill:white;fill-rule:nonzero;"/>
            </g>
            <g transform="matrix(0,-1,-1,0,1701.15,7141.27)">
                <path d="M-2.511,-2.511C-3.898,-2.511 -5.022,-1.387 -5.022,0C-5.022,1.387 -3.898,2.511 -2.511,2.511C-1.125,2.511 0,1.387 0,0C0,-1.387 -1.125,-2.511 -2.511,-2.511" style="fill:white;fill-rule:nonzero;"/>
            </g>
        </g>
    </g>
</svg>
