<?xml version="1.0" encoding="UTF-8" standalone="no"?>
<!DOCTYPE svg PUBLIC "-//W3C//DTD SVG 1.1//EN" "http://www.w3.org/Graphics/SVG/1.1/DTD/svg11.dtd">
<svg width="100%" height="100%" viewBox="0 0 139 153" version="1.1" xmlns="http://www.w3.org/2000/svg" xmlns:xlink="http://www.w3.org/1999/xlink" xml:space="preserve" xmlns:serif="http://www.serif.com/" style="fill-rule:evenodd;clip-rule:evenodd;stroke-linejoin:round;stroke-miterlimit:2;">
    <g transform="matrix(1,0,0,1,-5365.74,-8014.95)">
        <g transform="matrix(5.55556,0,0,5.55556,0,0)">
            <g transform="matrix(1,0,0,1,978.261,1470.2)">
                <path d="M0,-27.513C-6.225,-27.513 -12.427,-22.627 -12.427,-18.9C-12.427,-14.775 -8.661,-8.124 -5.28,-2.984C-3.972,-0.996 -1.968,0 0.036,0C2.016,0 3.996,-0.971 5.308,-2.918C8.744,-8.016 12.573,-14.622 12.573,-18.747C12.573,-22.489 6.323,-27.474 0.073,-27.513L0,-27.513M0.004,-27.513L0.004,-25.552L0.061,-25.552C5.398,-25.519 10.612,-21.223 10.612,-18.747C10.612,-15.877 8.151,-10.644 3.682,-4.014C2.802,-2.709 1.474,-1.961 0.036,-1.961C-1.423,-1.961 -2.763,-2.726 -3.642,-4.062C-8.043,-10.752 -10.467,-16.022 -10.467,-18.9C-10.467,-21.343 -5.294,-25.552 0.001,-25.552L0.004,-27.513Z" style="fill:rgb(140,140,140);fill-rule:nonzero;"/>
            </g>
            <g transform="matrix(1,0,0,1,978.334,1459.02)">
                <path d="M0,-10.374C-2.838,-10.374 -5.147,-8.047 -5.147,-5.187C-5.147,-2.327 -2.838,0 0,0C2.838,0 5.147,-2.327 5.147,-5.187C5.147,-8.047 2.838,-10.374 0,-10.374M0,-8.413C1.76,-8.413 3.186,-6.969 3.186,-5.187C3.186,-3.405 1.76,-1.961 0,-1.961C-1.76,-1.961 -3.186,-3.405 -3.186,-5.187C-3.186,-6.969 -1.76,-8.413 0,-8.413" style="fill:rgb(140,140,140);fill-rule:nonzero;"/>
            </g>
        </g>
    </g>
</svg>
