<?xml version="1.0" encoding="UTF-8" standalone="no"?>
<!DOCTYPE svg PUBLIC "-//W3C//DTD SVG 1.1//EN" "http://www.w3.org/Graphics/SVG/1.1/DTD/svg11.dtd">
<svg width="100%" height="100%" viewBox="0 0 358 58" version="1.1" xmlns="http://www.w3.org/2000/svg" xmlns:xlink="http://www.w3.org/1999/xlink" xml:space="preserve" xmlns:serif="http://www.serif.com/" style="fill-rule:evenodd;clip-rule:evenodd;stroke-linejoin:round;stroke-miterlimit:2;">
    <g transform="matrix(1,0,0,1,-150,-55.6732)">
        <g id="Layer-1" serif:id="Layer 1">
            <g transform="matrix(1,0,0,1,0,-6258.16)">
                <rect x="0" y="6258.17" width="1920" height="1080" style="fill:transparent;"/>
            </g>
        </g>
        <g id="logo">
            <g transform="matrix(0,-1,-1,0,152.342,76.2836)">
                <path d="M-2.342,-2.342C-3.635,-2.342 -4.684,-1.294 -4.684,0C-4.684,1.293 -3.635,2.342 -2.342,2.342C-1.049,2.342 0,1.293 0,0C0,-1.294 -1.049,-2.342 -2.342,-2.342" style="fill:rgb(211,76,57);fill-rule:nonzero;"/>
            </g>
            <g transform="matrix(0,-1,-1,0,161.475,74.8786)">
                <path d="M-3.747,-3.747C-5.816,-3.747 -7.494,-2.069 -7.494,0C-7.494,2.069 -5.816,3.747 -3.747,3.747C-1.678,3.747 0,2.069 0,0C0,-2.069 -1.678,-3.747 -3.747,-3.747" style="fill:rgb(211,76,57);fill-rule:nonzero;"/>
            </g>
            <g transform="matrix(0,-1,-1,0,173.419,73.4736)">
                <path d="M-5.152,-5.152C-7.997,-5.152 -10.304,-2.845 -10.304,-0C-10.304,2.846 -7.997,5.152 -5.152,5.152C-2.306,5.152 -0,2.846 -0,-0C-0,-2.845 -2.306,-5.152 -5.152,-5.152" style="fill:rgb(211,76,57);fill-rule:nonzero;"/>
            </g>
            <g transform="matrix(0,1,1,0,206.675,76.2836)">
                <path d="M2.342,-2.342C1.049,-2.342 0,-1.294 0,0C0,1.293 1.049,2.342 2.342,2.342C3.635,2.342 4.684,1.293 4.684,0C4.684,-1.294 3.635,-2.342 2.342,-2.342" style="fill:rgb(211,76,57);fill-rule:nonzero;"/>
            </g>
            <g transform="matrix(0,1,1,0,197.541,74.8786)">
                <path d="M3.747,-3.747C1.678,-3.747 -0,-2.069 -0,0C-0,2.069 1.678,3.747 3.747,3.747C5.816,3.747 7.494,2.069 7.494,0C7.494,-2.069 5.816,-3.747 3.747,-3.747" style="fill:rgb(211,76,57);fill-rule:nonzero;"/>
            </g>
            <g transform="matrix(0,1,1,0,185.597,73.4736)">
                <path d="M5.152,-5.152C2.306,-5.152 0,-2.845 0,-0C0,2.846 2.306,5.152 5.152,5.152C7.997,5.152 10.304,2.846 10.304,-0C10.304,-2.845 7.997,-5.152 5.152,-5.152" style="fill:rgb(211,76,57);fill-rule:nonzero;"/>
            </g>
            <g transform="matrix(0,-1,-1,0,152.342,87.9935)">
                <path d="M-2.342,-2.342C-3.635,-2.342 -4.684,-1.294 -4.684,0C-4.684,1.293 -3.635,2.342 -2.342,2.342C-1.049,2.342 0,1.293 0,0C0,-1.294 -1.049,-2.342 -2.342,-2.342" style="fill:rgb(211,76,57);fill-rule:nonzero;"/>
            </g>
            <g transform="matrix(0,-1,-1,0,161.475,86.5885)">
                <path d="M-3.747,-3.747C-5.816,-3.747 -7.494,-2.069 -7.494,0C-7.494,2.069 -5.816,3.747 -3.747,3.747C-1.678,3.747 0,2.069 0,0C0,-2.069 -1.678,-3.747 -3.747,-3.747" style="fill:rgb(211,76,57);fill-rule:nonzero;"/>
            </g>
            <g transform="matrix(0,-1,-1,0,173.419,85.1835)">
                <path d="M-5.152,-5.152C-7.998,-5.152 -10.304,-2.845 -10.304,-0C-10.304,2.846 -7.998,5.152 -5.152,5.152C-2.307,5.152 -0,2.846 -0,-0C-0,-2.845 -2.307,-5.152 -5.152,-5.152" style="fill:rgb(211,76,57);fill-rule:nonzero;"/>
            </g>
            <g transform="matrix(0,1,1,0,206.675,87.9935)">
                <path d="M2.342,-2.342C1.049,-2.342 0,-1.294 0,0C0,1.293 1.049,2.342 2.342,2.342C3.635,2.342 4.684,1.293 4.684,0C4.684,-1.294 3.635,-2.342 2.342,-2.342" style="fill:rgb(211,76,57);fill-rule:nonzero;"/>
            </g>
            <g transform="matrix(0,1,1,0,197.541,86.5885)">
                <path d="M3.747,-3.747C1.678,-3.747 -0,-2.069 -0,0C-0,2.069 1.678,3.747 3.747,3.747C5.816,3.747 7.494,2.069 7.494,0C7.494,-2.069 5.816,-3.747 3.747,-3.747" style="fill:rgb(211,76,57);fill-rule:nonzero;"/>
            </g>
            <g transform="matrix(0,1,1,0,185.597,85.1835)">
                <path d="M5.152,-5.152C2.307,-5.152 0,-2.845 0,-0C0,2.846 2.307,5.152 5.152,5.152C7.998,5.152 10.304,2.846 10.304,-0C10.304,-2.845 7.998,-5.152 5.152,-5.152" style="fill:rgb(211,76,57);fill-rule:nonzero;"/>
            </g>
            <g transform="matrix(0,-1,-1,0,161.475,63.1681)">
                <path d="M-3.747,-3.747C-5.816,-3.747 -7.494,-2.069 -7.494,0C-7.494,2.069 -5.816,3.747 -3.747,3.747C-1.678,3.747 0,2.069 0,0C0,-2.069 -1.678,-3.747 -3.747,-3.747" style="fill:rgb(211,76,57);fill-rule:nonzero;"/>
            </g>
            <g transform="matrix(0,1,1,0,197.541,63.1681)">
                <path d="M3.747,-3.747C1.678,-3.747 -0,-2.069 -0,0C-0,2.069 1.678,3.747 3.747,3.747C5.816,3.747 7.494,2.069 7.494,0C7.494,-2.069 5.816,-3.747 3.747,-3.747" style="fill:rgb(211,76,57);fill-rule:nonzero;"/>
            </g>
            <g transform="matrix(0,1,1,0,185.519,63.1681)">
                <path d="M3.747,-3.747C1.678,-3.747 -0,-2.069 -0,0C-0,2.069 1.678,3.747 3.747,3.747C5.816,3.747 7.494,2.069 7.494,0C7.494,-2.069 5.816,-3.747 3.747,-3.747" style="fill:rgb(211,76,57);fill-rule:nonzero;"/>
            </g>
            <g transform="matrix(0,-1,-1,0,173.497,63.1681)">
                <path d="M-3.747,-3.747C-5.816,-3.747 -7.494,-2.069 -7.494,0C-7.494,2.069 -5.816,3.747 -3.747,3.747C-1.678,3.747 0,2.069 0,0C0,-2.069 -1.678,-3.747 -3.747,-3.747" style="fill:rgb(211,76,57);fill-rule:nonzero;"/>
            </g>
            <g transform="matrix(0,-1,-1,0,161.475,98.299)">
                <path d="M-3.747,-3.747C-5.816,-3.747 -7.494,-2.069 -7.494,0C-7.494,2.069 -5.816,3.747 -3.747,3.747C-1.678,3.747 0,2.069 0,0C0,-2.069 -1.678,-3.747 -3.747,-3.747" style="fill:rgb(211,76,57);fill-rule:nonzero;"/>
            </g>
            <g transform="matrix(0,1,1,0,197.541,98.299)">
                <path d="M3.747,-3.747C1.678,-3.747 -0,-2.069 -0,0C-0,2.069 1.678,3.747 3.747,3.747C5.816,3.747 7.494,2.069 7.494,0C7.494,-2.069 5.816,-3.747 3.747,-3.747" style="fill:rgb(211,76,57);fill-rule:nonzero;"/>
            </g>
            <g transform="matrix(0,1,1,0,185.519,98.299)">
                <path d="M3.747,-3.747C1.678,-3.747 -0,-2.069 -0,0C-0,2.069 1.678,3.747 3.747,3.747C5.816,3.747 7.494,2.069 7.494,0C7.494,-2.069 5.816,-3.747 3.747,-3.747" style="fill:rgb(211,76,57);fill-rule:nonzero;"/>
            </g>
            <g transform="matrix(0,-1,-1,0,173.497,98.299)">
                <path d="M-3.747,-3.747C-5.816,-3.747 -7.494,-2.069 -7.494,0C-7.494,2.069 -5.816,3.747 -3.747,3.747C-1.678,3.747 0,2.069 0,0C0,-2.069 -1.678,-3.747 -3.747,-3.747" style="fill:rgb(211,76,57);fill-rule:nonzero;"/>
            </g>
            <g transform="matrix(0,1,1,0,185.759,55.6732)">
                <path d="M2.342,-2.342C1.049,-2.342 0,-1.294 0,0C0,1.293 1.049,2.342 2.342,2.342C3.635,2.342 4.684,1.293 4.684,0C4.684,-1.294 3.635,-2.342 2.342,-2.342" style="fill:rgb(211,76,57);fill-rule:nonzero;"/>
            </g>
            <g transform="matrix(0,-1,-1,0,173.257,55.6732)">
                <path d="M-2.342,-2.342C-3.635,-2.342 -4.684,-1.293 -4.684,0C-4.684,1.293 -3.635,2.342 -2.342,2.342C-1.049,2.342 0,1.293 0,0C0,-1.293 -1.049,-2.342 -2.342,-2.342" style="fill:rgb(211,76,57);fill-rule:nonzero;"/>
            </g>
            <g transform="matrix(0,1,1,0,185.759,108.604)">
                <path d="M2.342,-2.342C1.049,-2.342 0,-1.294 0,0C0,1.293 1.049,2.342 2.342,2.342C3.635,2.342 4.684,1.293 4.684,0C4.684,-1.294 3.635,-2.342 2.342,-2.342" style="fill:rgb(211,76,57);fill-rule:nonzero;"/>
            </g>
            <g transform="matrix(0,-1,-1,0,173.257,108.604)">
                <path d="M-2.342,-2.342C-3.635,-2.342 -4.684,-1.293 -4.684,0C-4.684,1.293 -3.635,2.342 -2.342,2.342C-1.049,2.342 0,1.293 0,0C0,-1.293 -1.049,-2.342 -2.342,-2.342" style="fill:rgb(211,76,57);fill-rule:nonzero;"/>
            </g>
            <g transform="matrix(1,0,0,1,241.775,95.5034)">
                <path d="M0,-21.994C1.951,-21.994 3.613,-21.307 4.986,-19.934C6.359,-18.561 7.046,-16.899 7.046,-14.948L7.046,0L3.444,0L3.444,-14.948C3.444,-15.893 3.11,-16.703 2.442,-17.379C1.775,-18.054 0.96,-18.392 0,-18.392C-0.945,-18.392 -1.756,-18.054 -2.431,-17.379C-3.107,-16.703 -3.444,-15.893 -3.444,-14.948L-3.444,0L-7.046,0L-7.046,-14.948C-7.046,-15.893 -7.384,-16.703 -8.059,-17.379C-8.734,-18.054 -9.545,-18.392 -10.49,-18.392C-11.436,-18.392 -12.246,-18.054 -12.921,-17.379C-13.597,-16.703 -13.934,-15.893 -13.934,-14.948L-13.934,0L-17.536,0L-17.536,-14.948C-17.536,-16.899 -16.846,-18.561 -15.465,-19.934C-14.084,-21.307 -12.426,-21.994 -10.49,-21.994C-9.455,-21.994 -8.483,-21.784 -7.575,-21.364C-6.667,-20.943 -5.89,-20.373 -5.245,-19.653C-4.585,-20.373 -3.804,-20.943 -2.904,-21.364C-2.003,-21.784 -1.035,-21.994 0,-21.994" style="fill-rule:nonzero;"/>
            </g>
            <g transform="matrix(1,0,0,1,260.743,73.464)">
                <path d="M0,22.039L0,0L15.42,0L15.42,3.602L3.602,3.602L3.602,9.23L12.021,9.23L12.021,12.832L3.602,12.832L3.602,18.437L15.42,18.437L15.42,22.039L0,22.039Z" style="fill-rule:nonzero;"/>
            </g>
            <g transform="matrix(1,0,0,1,288.084,91.9015)">
                <path d="M0,-14.835L0,-18.437L18.639,-18.437L18.639,-14.835L11.12,-14.835L11.12,3.602L7.519,3.602L7.519,-14.835L0,-14.835Z" style="fill-rule:nonzero;"/>
            </g>
            <g transform="matrix(1,0,0,1,322.247,84.112)">
                <path d="M0,0.788L10.468,0.788L10.468,-1.755C10.468,-3.211 9.957,-4.449 8.937,-5.47C7.916,-6.49 6.686,-7.001 5.245,-7.001C3.789,-7.001 2.551,-6.49 1.531,-5.47C0.51,-4.449 0,-3.211 0,-1.755L0,0.788ZM5.245,-10.603C6.866,-10.603 8.344,-10.205 9.68,-9.41C11.016,-8.614 12.081,-7.548 12.876,-6.212C13.672,-4.877 14.07,-3.391 14.07,-1.755L14.07,11.391L10.468,11.391L10.468,4.39L0,4.39L0,11.391L-3.602,11.391L-3.602,-1.755C-3.602,-3.391 -3.204,-4.877 -2.409,-6.212C-1.613,-7.548 -0.548,-8.614 0.788,-9.41C2.124,-10.205 3.609,-10.603 5.245,-10.603" style="fill-rule:nonzero;"/>
            </g>
            <g transform="matrix(1,0,0,1,359.269,77.066)">
                <path d="M0,14.835C2.04,14.835 3.785,14.111 5.234,12.663C6.682,11.214 7.406,9.47 7.406,7.429C7.406,5.388 6.678,3.64 5.222,2.184C3.766,0.729 2.018,0.001 -0.022,0.001C-2.064,0.001 -3.808,0.725 -5.256,2.172C-6.705,3.621 -7.429,5.366 -7.429,7.406C-7.429,9.462 -6.705,11.214 -5.256,12.663C-3.808,14.111 -2.056,14.835 0,14.835M-0.022,-3.602C2.003,-3.602 3.849,-3.102 5.515,-2.104C7.181,-1.106 8.513,0.226 9.511,1.891C10.509,3.557 11.008,5.403 11.008,7.429C11.008,9.455 10.509,11.301 9.511,12.966C8.513,14.632 7.181,15.96 5.515,16.951C3.849,17.942 2.011,18.437 0,18.437C-2.026,18.437 -3.876,17.942 -5.549,16.951C-7.223,15.96 -8.554,14.629 -9.545,12.956C-10.535,11.282 -11.031,9.432 -11.031,7.406C-11.031,5.396 -10.535,3.557 -9.545,1.891C-8.554,0.226 -7.226,-1.106 -5.56,-2.104C-3.895,-3.102 -2.048,-3.602 -0.022,-3.602" style="fill-rule:nonzero;"/>
            </g>
            <g transform="matrix(1,0,0,1,392.599,86.3415)">
                <path d="M0,-3.67C0.765,-3.67 1.422,-3.94 1.97,-4.48C2.517,-5.021 2.791,-5.681 2.791,-6.461C2.791,-7.227 2.517,-7.879 1.97,-8.42C1.422,-8.96 0.765,-9.23 0,-9.23L-6.799,-9.23L-6.799,-3.67L0,-3.67ZM0,-12.832C1.756,-12.832 3.26,-12.209 4.514,-10.963C5.766,-9.717 6.393,-8.217 6.393,-6.461C6.393,-4.691 5.766,-3.182 4.514,-1.937C3.26,-0.691 1.756,-0.068 0,-0.068L-6.799,-0.068L-6.799,9.162L-10.4,9.162L-10.4,-12.832L0,-12.832Z" style="fill-rule:nonzero;"/>
            </g>
            <g transform="matrix(1,0,0,1,410.914,91.9015)">
                <path d="M0,-14.835L0,-18.437L18.639,-18.437L18.639,-14.835L11.12,-14.835L11.12,3.602L7.519,3.602L7.519,-14.835L0,-14.835Z" style="fill-rule:nonzero;"/>
            </g>
            <g transform="matrix(-1,0,0,1,886.552,-7169.2)">
                <rect x="441.475" y="7242.67" width="3.602" height="22.039"/>
            </g>
            <g transform="matrix(1,0,0,1,468.007,91.9009)">
                <path d="M0,-14.812C-2.041,-14.812 -3.786,-14.088 -5.234,-12.64C-6.682,-11.191 -7.406,-9.447 -7.406,-7.406C-7.406,-5.365 -6.682,-3.621 -5.234,-2.172C-3.786,-0.724 -2.041,0 0,0C2.131,0 3.992,-0.848 5.583,-2.544L8.284,-0.18C7.218,1.036 5.969,1.97 4.536,2.623C3.103,3.275 1.59,3.602 0,3.602C-2.026,3.602 -3.872,3.107 -5.538,2.116C-7.204,1.126 -8.532,-0.203 -9.522,-1.869C-10.513,-3.534 -11.008,-5.38 -11.008,-7.406C-11.008,-9.432 -10.513,-11.278 -9.522,-12.944C-8.532,-14.609 -7.204,-15.937 -5.538,-16.928C-3.872,-17.919 -2.026,-18.414 0,-18.414C1.59,-18.414 3.103,-18.087 4.536,-17.435C5.969,-16.782 7.218,-15.855 8.284,-14.654L5.583,-12.268C3.992,-13.964 2.131,-14.812 0,-14.812" style="fill-rule:nonzero;"/>
            </g>
            <g transform="matrix(1,0,0,1,501.471,86.2964)">
                <path d="M0,-3.58C1.77,-3.58 3.279,-2.957 4.525,-1.711C5.77,-0.466 6.393,1.043 6.393,2.813C6.393,4.569 5.77,6.074 4.525,7.327C3.279,8.58 1.77,9.207 0,9.207L-12.336,9.207L-12.336,5.605L0,5.605C0.765,5.605 1.422,5.331 1.97,4.783C2.517,4.235 2.791,3.579 2.791,2.813C2.791,2.048 2.517,1.392 1.97,0.844C1.422,0.296 0.765,0.022 0,0.022L-6.866,0.022C-8.622,0.022 -10.127,-0.604 -11.379,-1.858C-12.633,-3.11 -13.259,-4.615 -13.259,-6.371C-13.259,-8.142 -12.633,-9.654 -11.379,-10.907C-10.127,-12.16 -8.622,-12.787 -6.866,-12.787L5.11,-12.787L5.11,-9.185L-6.866,-9.185C-7.632,-9.185 -8.288,-8.911 -8.835,-8.364C-9.383,-7.816 -9.658,-7.151 -9.658,-6.371C-9.658,-5.606 -9.383,-4.949 -8.835,-4.402C-8.288,-3.853 -7.632,-3.58 -6.866,-3.58L0,-3.58Z" style="fill-rule:nonzero;"/>
            </g>
        </g>
    </g>
</svg>
