<?xml version="1.0" encoding="UTF-8" standalone="no"?><!DOCTYPE svg PUBLIC "-//W3C//DTD SVG 1.1//EN" "http://www.w3.org/Graphics/SVG/1.1/DTD/svg11.dtd"><svg width="100%" height="100%" viewBox="0 0 1565 839" version="1.1" xmlns="http://www.w3.org/2000/svg" xmlns:xlink="http://www.w3.org/1999/xlink" xml:space="preserve" xmlns:serif="http://www.serif.com/" style="fill-rule:evenodd;clip-rule:evenodd;stroke-linejoin:round;stroke-miterlimit:2;"><g id="Layer-1" serif:id="Layer 1"><g id="Logo-icon" serif:id="Logo icon"><g id="Icon-logo" serif:id="Icon logo"><path d="M746.254,24.002c0,12.775 -10.354,23.129 -23.129,23.129c-12.775,0 -23.129,-10.354 -23.129,-23.129c-0,-12.771 10.354,-23.129 23.129,-23.129c12.775,-0 23.129,10.358 23.129,23.129" style="fill:#121212;fill-rule:nonzero;"/><path d="M865.429,23.129c0,12.775 -10.354,23.129 -23.129,23.129c-12.775,0 -23.129,-10.354 -23.129,-23.129c-0,-12.775 10.354,-23.129 23.129,-23.129c12.775,0 23.129,10.354 23.129,23.129" style="fill:#121212;fill-rule:nonzero;"/><path d="M641.254,110.585c-0,20.441 -16.567,37.004 -37.009,37.004c-20.437,-0 -37.004,-16.563 -37.004,-37.004c0,-20.442 16.567,-37.005 37.004,-37.005c20.442,0 37.009,16.563 37.009,37.005" style="fill:#121212;fill-rule:nonzero;"/><path d="M773.909,225.695c-0,28.046 -22.738,50.783 -50.784,50.783c-28.05,0 -50.783,-22.737 -50.783,-50.783c0,-28.046 22.733,-50.783 50.783,-50.783c28.046,-0 50.784,22.737 50.784,50.783" style="fill:#121212;fill-rule:nonzero;"/><path d="M641.254,225.695c-0,20.437 -16.567,37.008 -37.009,37.008c-20.437,0 -37.004,-16.571 -37.004,-37.008c0,-20.438 16.567,-37.008 37.004,-37.008c20.442,-0 37.009,16.57 37.009,37.008" style="fill:#121212;fill-rule:nonzero;"/><path d="M537.169,225.695c0,12.775 -10.354,23.129 -23.129,23.129c-12.775,0 -23.129,-10.354 -23.129,-23.129c-0,-12.775 10.354,-23.129 23.129,-23.129c12.775,-0 23.129,10.354 23.129,23.129" style="fill:#121212;fill-rule:nonzero;"/><path d="M746.254,543.615c0,12.775 -10.354,23.129 -23.129,23.129c-12.775,-0 -23.129,-10.354 -23.129,-23.129c-0,-12.771 10.354,-23.13 23.129,-23.13c12.775,0 23.129,10.359 23.129,23.13" style="fill:#121212;fill-rule:nonzero;"/><path d="M865.429,542.742c0,12.775 -10.354,23.129 -23.129,23.129c-12.775,0 -23.129,-10.354 -23.129,-23.129c-0,-12.771 10.354,-23.129 23.129,-23.129c12.775,-0 23.129,10.358 23.129,23.129" style="fill:#121212;fill-rule:nonzero;"/><path d="M537.169,340.941c0,12.771 -10.354,23.129 -23.129,23.129c-12.775,0 -23.129,-10.358 -23.129,-23.129c-0,-12.775 10.354,-23.129 23.129,-23.129c12.775,0 23.129,10.354 23.129,23.129" style="fill:#121212;fill-rule:nonzero;"/><path d="M1074.99,225.695c-0,12.775 -10.354,23.129 -23.129,23.129c-12.775,0 -23.129,-10.354 -23.129,-23.129c-0,-12.775 10.354,-23.129 23.129,-23.129c12.775,-0 23.129,10.354 23.129,23.129" style="fill:#121212;fill-rule:nonzero;"/><path d="M1074.99,340.941c-0,12.771 -10.354,23.129 -23.129,23.129c-12.775,0 -23.129,-10.358 -23.129,-23.129c-0,-12.775 10.354,-23.129 23.129,-23.129c12.775,0 23.129,10.354 23.129,23.129" style="fill:#121212;fill-rule:nonzero;"/><path d="M997.887,225.695c0,20.437 -16.567,37.008 -37.008,37.008c-20.438,0 -37.004,-16.571 -37.004,-37.008c-0,-20.438 16.566,-37.008 37.004,-37.008c20.441,-0 37.008,16.57 37.008,37.008" style="fill:#121212;fill-rule:nonzero;"/><path d="M641.254,342.25c-0,20.437 -16.567,37.008 -37.009,37.008c-20.437,-0 -37.004,-16.571 -37.004,-37.008c0,-20.438 16.567,-37.005 37.004,-37.005c20.442,0 37.009,16.567 37.009,37.005" style="fill:#121212;fill-rule:nonzero;"/><path d="M997.887,342.25c0,20.437 -16.567,37.008 -37.008,37.008c-20.438,-0 -37.004,-16.571 -37.004,-37.008c-0,-20.438 16.566,-37.005 37.004,-37.005c20.441,0 37.008,16.567 37.008,37.005" style="fill:#121212;fill-rule:nonzero;"/><path d="M641.254,110.585c-0,20.437 -16.567,37.008 -37.009,37.008c-20.437,-0 -37.004,-16.571 -37.004,-37.008c0,-20.438 16.567,-37.009 37.004,-37.009c20.442,0 37.009,16.571 37.009,37.009" style="fill:#121212;fill-rule:nonzero;"/><path d="M760.132,110.585c-0,20.437 -16.567,37.008 -37.009,37.008c-20.437,-0 -37.004,-16.571 -37.004,-37.008c0,-20.438 16.567,-37.009 37.004,-37.009c20.442,0 37.009,16.571 37.009,37.009" style="fill:#121212;fill-rule:nonzero;"/><path d="M879.01,110.585c-0,20.437 -16.567,37.008 -37.009,37.008c-20.437,-0 -37.004,-16.571 -37.004,-37.008c0,-20.438 16.567,-37.009 37.004,-37.009c20.442,0 37.009,16.571 37.009,37.009" style="fill:#121212;fill-rule:nonzero;"/><path d="M997.887,110.585c0,20.437 -16.567,37.008 -37.008,37.008c-20.438,-0 -37.004,-16.571 -37.004,-37.008c-0,-20.438 16.566,-37.009 37.004,-37.009c20.441,0 37.008,16.571 37.008,37.009" style="fill:#121212;fill-rule:nonzero;"/><path d="M641.254,456.324c-0,20.438 -16.567,37.004 -37.009,37.004c-20.437,0 -37.004,-16.566 -37.004,-37.004c0,-20.437 16.567,-37.008 37.004,-37.008c20.442,-0 37.009,16.571 37.009,37.008" style="fill:#121212;fill-rule:nonzero;"/><path d="M760.132,456.324c-0,20.438 -16.567,37.004 -37.009,37.004c-20.437,0 -37.004,-16.566 -37.004,-37.004c0,-20.437 16.567,-37.008 37.004,-37.008c20.442,-0 37.009,16.571 37.009,37.008" style="fill:#121212;fill-rule:nonzero;"/><path d="M879.01,456.324c-0,20.438 -16.567,37.004 -37.009,37.004c-20.437,0 -37.004,-16.566 -37.004,-37.004c0,-20.437 16.567,-37.008 37.004,-37.008c20.442,-0 37.009,16.571 37.009,37.008" style="fill:#121212;fill-rule:nonzero;"/><path d="M997.887,456.324c0,20.438 -16.567,37.004 -37.008,37.004c-20.438,0 -37.004,-16.566 -37.004,-37.004c-0,-20.437 16.566,-37.008 37.004,-37.008c20.441,-0 37.008,16.571 37.008,37.008" style="fill:#121212;fill-rule:nonzero;"/><path d="M893.084,225.695c0,28.046 -22.737,50.783 -50.783,50.783c-28.05,0 -50.784,-22.737 -50.784,-50.783c0,-28.046 22.734,-50.783 50.784,-50.783c28.046,-0 50.783,22.737 50.783,50.783" style="fill:#121212;fill-rule:nonzero;"/><path d="M773.909,342.25c-0,28.045 -22.738,50.783 -50.784,50.783c-28.05,-0 -50.783,-22.738 -50.783,-50.783c0,-28.046 22.733,-50.784 50.783,-50.784c28.046,0 50.784,22.738 50.784,50.784" style="fill:#121212;fill-rule:nonzero;"/><path d="M893.084,342.25c0,28.045 -22.737,50.783 -50.783,50.783c-28.05,-0 -50.784,-22.738 -50.784,-50.783c0,-28.046 22.734,-50.784 50.784,-50.784c28.046,0 50.783,22.738 50.783,50.784" style="fill:#121212;fill-rule:nonzero;"/></g><g id="Logo-text" serif:id="Logo text"><path d="M96.742,717.219c10.762,0 19.933,3.792 27.508,11.367c7.575,7.575 11.367,16.741 11.367,27.508l-0,82.463l-19.875,-0l-0,-82.463c-0,-5.221 -1.846,-9.692 -5.525,-13.412c-3.684,-3.725 -8.175,-5.592 -13.475,-5.592c-5.213,-0 -9.684,1.867 -13.413,5.592c-3.725,3.72 -5.587,8.191 -5.587,13.412l-0,82.463l-19.867,-0l0,-82.463c0,-5.221 -1.871,-9.692 -5.592,-13.412c-3.729,-3.725 -8.195,-5.592 -13.412,-5.592c-5.217,-0 -9.688,1.867 -13.417,5.592c-3.721,3.72 -5.583,8.191 -5.583,13.412l-0,82.463l-19.871,-0l0,-82.463c0,-10.767 3.804,-19.933 11.421,-27.508c7.621,-7.575 16.767,-11.367 27.45,-11.367c5.712,0 11.075,1.154 16.083,3.475c5.009,2.321 9.288,5.467 12.85,9.442c3.642,-3.975 7.946,-7.121 12.921,-9.442c4.967,-2.321 10.304,-3.475 16.017,-3.475" style="fill:#c65741;fill-rule:nonzero;"/><path d="M201.383,838.553l0,-121.583l85.071,-0l0,19.87l-65.2,0l0,31.055l46.442,-0l-0,19.866l-46.442,0l0,30.921l65.2,0l0,19.871l-85.071,-0Z" style="fill:#c65741;fill-rule:nonzero;"/><path d="M352.222,736.84l0,-19.871l102.825,0l0,19.871l-41.475,0l0,101.713l-19.871,-0l0,-101.713l-41.479,0Z" style="fill:#c65741;fill-rule:nonzero;"/><path d="M540.69,780.059l57.75,-0l0,-14.034c0,-8.025 -2.817,-14.858 -8.442,-20.495c-5.633,-5.625 -12.425,-8.442 -20.37,-8.442c-8.034,-0 -14.863,2.817 -20.492,8.442c-5.634,5.637 -8.446,12.47 -8.446,20.495l0,14.034Zm28.938,-62.842c8.941,0 17.091,2.196 24.462,6.583c7.375,4.388 13.25,10.263 17.633,17.634c4.392,7.371 6.588,15.571 6.588,24.591l-0,72.525l-19.871,0l0,-38.62l-57.75,-0l0,38.62l-19.871,0l0,-72.525c0,-9.02 2.196,-17.22 6.579,-24.591c4.392,-7.371 10.267,-13.246 17.638,-17.634c7.375,-4.387 15.567,-6.583 24.591,-6.583" style="fill:#c65741;fill-rule:nonzero;"/><path d="M744.935,818.684c11.254,0 20.883,-3.996 28.875,-11.983c7.991,-7.992 11.983,-17.617 11.983,-28.875c-0,-11.254 -4.017,-20.904 -12.046,-28.938c-8.033,-8.029 -17.679,-12.05 -28.937,-12.05c-11.259,0 -20.884,4.004 -28.875,11.988c-7.988,7.991 -11.984,17.621 -11.984,28.875c0,11.346 3.996,21.008 11.984,29c7.991,7.987 17.658,11.983 29,11.983m-0.125,-101.712c11.175,-0 21.362,2.754 30.55,8.262c9.191,5.5 16.537,12.85 22.041,22.042c5.504,9.187 8.259,19.371 8.259,30.55c-0,11.179 -2.755,21.358 -8.259,30.55c-5.504,9.187 -12.85,16.516 -22.041,21.979c-9.188,5.467 -19.33,8.2 -30.425,8.2c-11.175,-0 -21.38,-2.733 -30.613,-8.2c-9.233,-5.463 -16.579,-12.808 -22.042,-22.042c-5.466,-9.229 -8.2,-19.437 -8.2,-30.612c0,-11.088 2.734,-21.238 8.2,-30.425c5.463,-9.192 12.792,-16.542 21.98,-22.042c9.191,-5.508 19.375,-8.262 30.55,-8.262" style="fill:#c65741;fill-rule:nonzero;"/><path d="M928.807,767.766c4.225,0 7.842,-1.491 10.867,-4.475c3.016,-2.979 4.533,-6.621 4.533,-10.925c0,-4.221 -1.517,-7.821 -4.533,-10.804c-3.025,-2.983 -6.642,-4.471 -10.867,-4.471l-37.508,0l-0,30.675l37.508,0Zm0,-50.546c9.683,0 17.983,3.43 24.9,10.313c6.913,6.867 10.371,15.146 10.371,24.833c-0,9.771 -3.458,18.092 -10.371,24.959c-6.917,6.879 -15.217,10.312 -24.9,10.312l-37.508,0l-0,50.913l-19.871,-0l-0,-121.33l57.379,0Z" style="fill:#c65741;fill-rule:nonzero;"/><path d="M1029.85,736.84l0,-19.871l102.825,0l0,19.871l-41.475,0l0,101.713l-19.871,-0l0,-101.713l-41.479,0Z" style="fill:#c65741;fill-rule:nonzero;"/><rect x="1198.44" y="716.968" width="19.871" height="121.583" style="fill:#c65741;"/><path d="M1344.81,736.964c-11.262,0 -20.883,3.996 -28.875,11.983c-7.991,7.992 -11.983,17.621 -11.983,28.88c0,11.262 3.992,20.883 11.983,28.87c7.992,7.992 17.613,11.988 28.875,11.988c11.759,-0 22.021,-4.675 30.8,-14.038l14.905,13.042c-5.884,6.704 -12.78,11.863 -20.684,15.463c-7.904,3.604 -16.246,5.4 -25.021,5.4c-11.175,-0 -21.362,-2.73 -30.55,-8.196c-9.191,-5.463 -16.521,-12.788 -21.979,-21.979c-5.466,-9.192 -8.2,-19.371 -8.2,-30.55c0,-11.18 2.734,-21.363 8.2,-30.55c5.458,-9.192 12.788,-16.521 21.979,-21.984c9.188,-5.466 19.375,-8.2 30.55,-8.2c8.775,0 17.117,1.809 25.021,5.409c7.904,3.6 14.8,8.712 20.684,15.333l-14.905,13.171c-8.779,-9.359 -19.041,-14.042 -30.8,-14.042" style="fill:#c65741;fill-rule:nonzero;"/><path d="M1529.43,768.012c9.766,0 18.087,3.442 24.958,10.309c6.871,6.871 10.313,15.196 10.313,24.962c-0.001,9.692 -3.442,17.988 -10.313,24.896c-6.871,6.917 -15.192,10.371 -24.958,10.371l-68.059,-0l0,-19.871l68.059,0c4.225,0 7.841,-1.504 10.866,-4.533c3.017,-3.013 4.534,-6.638 4.534,-10.863c-0,-4.216 -1.517,-7.841 -4.534,-10.871c-3.025,-3.012 -6.641,-4.529 -10.866,-4.529l-37.879,0c-9.684,0 -17.992,-3.458 -24.896,-10.362c-6.917,-6.917 -10.375,-15.217 -10.375,-24.909c-0,-9.77 3.458,-18.108 10.375,-25.02c6.904,-6.913 15.212,-10.371 24.896,-10.371l66.066,-0l0,19.871l-66.066,-0c-4.226,-0 -7.842,1.508 -10.867,4.529c-3.025,3.029 -4.534,6.687 -4.534,10.991c0.001,4.225 1.509,7.842 4.534,10.867c3.025,3.025 6.641,4.533 10.867,4.533l37.879,0Z" style="fill:#c65741;fill-rule:nonzero;"/></g></g><g id="menu"></g></g></svg>