<?xml version="1.0" encoding="UTF-8" standalone="no"?>
<!DOCTYPE svg PUBLIC "-//W3C//DTD SVG 1.1//EN" "http://www.w3.org/Graphics/SVG/1.1/DTD/svg11.dtd">
<svg width="100%" height="100%" viewBox="0 0 139 143" version="1.1" xmlns="http://www.w3.org/2000/svg" xmlns:xlink="http://www.w3.org/1999/xlink" xml:space="preserve" xmlns:serif="http://www.serif.com/" style="fill-rule:evenodd;clip-rule:evenodd;stroke-linejoin:round;stroke-miterlimit:2;">
    <g transform="matrix(1,0,0,1,-8081.6,-8014.95)">
        <g transform="matrix(5.55556,0,0,5.55556,0,0)">
            <g transform="matrix(1,0,0,1,1477.07,1446.42)">
                <path d="M0,17.798L-0.107,17.905C-0.526,18.323 -1.208,18.325 -1.627,17.906L-3.739,15.794C-4.157,15.375 -4.157,14.693 -3.739,14.275L-3.631,14.167C-3.421,13.957 -3.146,13.852 -2.871,13.852C-2.597,13.852 -2.321,13.957 -2.112,14.167L0,16.278C0.419,16.697 0.419,17.379 0,17.798M-18.542,-1.001L-18.434,-1.109C-18.225,-1.318 -17.95,-1.423 -17.675,-1.423C-17.4,-1.423 -17.124,-1.318 -16.915,-1.109L-14.803,1.003C-14.384,1.422 -14.384,2.103 -14.803,2.522L-14.911,2.63C-15.314,3.033 -16.028,3.032 -16.43,2.63L-18.542,0.518C-18.961,0.099 -18.961,-0.582 -18.542,-1.001M1.63,14.649L-0.482,12.537C-1.8,11.219 -3.943,11.219 -5.26,12.537L-5.368,12.645C-6.686,13.962 -6.686,16.106 -5.368,17.423L-3.998,18.793C-6.257,20.056 -9.17,19.733 -11.088,17.816L-18.349,10.555C-20.352,8.552 -20.617,5.463 -19.151,3.168L-18.06,4.259C-17.401,4.919 -16.535,5.248 -15.67,5.248C-14.805,5.248 -13.941,4.919 -13.283,4.261L-13.173,4.152C-11.856,2.834 -11.856,0.691 -13.173,-0.627L-15.285,-2.739C-16.602,-4.056 -18.746,-4.056 -20.064,-2.739L-20.172,-2.631C-21.263,-1.539 -21.436,0.113 -20.719,1.4C-23.158,4.625 -22.917,9.246 -19.978,12.185L-12.718,19.445C-11.112,21.051 -9.002,21.854 -6.893,21.854C-5.2,21.854 -3.512,21.328 -2.079,20.294C-1.69,20.443 -1.28,20.523 -0.868,20.523C-0.002,20.523 0.864,20.193 1.524,19.534L1.631,19.426C2.947,18.109 2.946,15.966 1.63,14.649" style="fill:rgb(140,140,140);fill-rule:nonzero;"/>
            </g>
        </g>
    </g>
</svg>
