<?xml version="1.0" encoding="UTF-8" standalone="no"?>
<!DOCTYPE svg PUBLIC "-//W3C//DTD SVG 1.1//EN" "http://www.w3.org/Graphics/SVG/1.1/DTD/svg11.dtd">
<svg width="100%" height="100%" viewBox="0 0 167 171" version="1.1" xmlns="http://www.w3.org/2000/svg" xmlns:xlink="http://www.w3.org/1999/xlink" xml:space="preserve" xmlns:serif="http://www.serif.com/" style="fill-rule:evenodd;clip-rule:evenodd;stroke-linejoin:round;stroke-miterlimit:2;">
    <g transform="matrix(1,0,0,1,-5250,-13998.9)">
        <g transform="matrix(5.55556,0,0,5.55556,0,0)">
            <g transform="matrix(1,0,0,1,959.229,2533.26)">
                <path d="M0,3.732L-1.187,2.035L-10.628,-11.471L-6.563,-11.471L1.056,-0.571L2.243,1.126L12.147,15.293L8.082,15.293L0,3.733L0,3.732ZM3.625,-0.481L14.793,-13.463L12.146,-13.463L2.449,-2.191L-5.296,-13.463L-14.229,-13.463L-2.517,3.582L-14.229,17.195L-11.582,17.195L-1.342,5.292L6.837,17.195L15.77,17.195L3.624,-0.481L3.625,-0.481Z" style="fill:rgb(134,134,134);fill-rule:nonzero;"/>
            </g>
        </g>
    </g>
</svg>
