<svg width="120" height="120" viewBox="0 0 120 120" fill="none" xmlns="http://www.w3.org/2000/svg">
<g clip-path="url(#clip0_953_24716)">
<path d="M19.8 89.1862L31.4 71.6862M43 48.3529L54.6 30.8529M66.2 30.8529L77.8 48.3529M89.4 71.6862L101 89.1862M77.8 71.6862L66.2 89.1862M43 71.6862L54.6 89.1862M48.8 19.1862C48.8 22.2804 50.0221 25.2479 52.1975 27.4358C54.373 29.6237 57.3235 30.8529 60.4 30.8529C63.4765 30.8529 66.427 29.6237 68.6024 27.4358C70.7778 25.2479 72 22.2804 72 19.1862C72 16.092 70.7778 13.1245 68.6024 10.9366C66.427 8.74869 63.4765 7.51953 60.4 7.51953C57.3235 7.51953 54.373 8.74869 52.1975 10.9366C50.0221 13.1245 48.8 16.092 48.8 19.1862ZM25.6 60.0195C25.6 63.1137 26.8221 66.0812 28.9975 68.2691C31.1729 70.457 34.1235 71.6862 37.2 71.6862C40.2765 71.6862 43.227 70.457 45.4024 68.2691C47.5778 66.0812 48.8 63.1137 48.8 60.0195C48.8 56.9253 47.5778 53.9579 45.4024 51.77C43.227 49.582 40.2765 48.3529 37.2 48.3529C34.1235 48.3529 31.1729 49.582 28.9975 51.77C26.8221 53.9579 25.6 56.9253 25.6 60.0195ZM48.8 100.853C48.8 103.947 50.0221 106.915 52.1975 109.102C54.373 111.29 57.3235 112.52 60.4 112.52C63.4765 112.52 66.427 111.29 68.6024 109.102C70.7778 106.915 72 103.947 72 100.853C72 97.7587 70.7778 94.7912 68.6024 92.6033C66.427 90.4154 63.4765 89.1862 60.4 89.1862C57.3235 89.1862 54.373 90.4154 52.1975 92.6033C50.0221 94.7912 48.8 97.7587 48.8 100.853ZM95.2 100.853C95.2 103.947 96.4221 106.915 98.5975 109.102C100.773 111.29 103.723 112.52 106.8 112.52C109.876 112.52 112.827 111.29 115.002 109.102C117.178 106.915 118.4 103.947 118.4 100.853C118.4 97.7587 117.178 94.7912 115.002 92.6033C112.827 90.4154 109.876 89.1862 106.8 89.1862C103.723 89.1862 100.773 90.4154 98.5975 92.6033C96.4221 94.7912 95.2 97.7587 95.2 100.853ZM2.39996 100.853C2.39996 103.947 3.6221 106.915 5.79752 109.102C7.97295 111.29 10.9235 112.52 14 112.52C17.0765 112.52 20.027 111.29 22.2024 109.102C24.3778 106.915 25.6 103.947 25.6 100.853C25.6 97.7587 24.3778 94.7912 22.2024 92.6033C20.027 90.4154 17.0765 89.1862 14 89.1862C10.9235 89.1862 7.97295 90.4154 5.79752 92.6033C3.6221 94.7912 2.39996 97.7587 2.39996 100.853ZM72 60.0195C72 63.1137 73.2221 66.0812 75.3975 68.2691C77.573 70.457 80.5235 71.6862 83.6 71.6862C86.6765 71.6862 89.627 70.457 91.8024 68.2691C93.9778 66.0812 95.2 63.1137 95.2 60.0195C95.2 56.9253 93.9778 53.9579 91.8024 51.77C89.627 49.582 86.6765 48.3529 83.6 48.3529C80.5235 48.3529 77.573 49.582 75.3975 51.77C73.2221 53.9579 72 56.9253 72 60.0195Z" stroke="#D44C39" stroke-width="3" stroke-linecap="round" stroke-linejoin="round"/>
</g>
<defs>
<clipPath id="clip0_953_24716">
<rect width="120" height="120" fill="white"/>
</clipPath>
</defs>
</svg>
