<svg width="125" height="107" viewBox="0 0 125 107" fill="none" xmlns="http://www.w3.org/2000/svg">
<path d="M94.8361 63.1256L62.0831 45.3655C61.6651 45.1389 61.1587 45.1491 60.7502 45.3923L45.2045 54.6495L30.9258 63.1522C30.0523 63.6723 30.0466 64.9352 30.9153 65.4633L60.7402 83.5934C61.1538 83.8448 61.6704 83.8553 62.0939 83.6209L94.8464 65.4911C95.7783 64.9752 95.7725 63.6334 94.8361 63.1256Z" stroke="#D44C39" stroke-width="3" stroke-linecap="round" stroke-dasharray="6.74 8.09"/>
<path d="M95 65V79.6721C95 80.1583 94.7383 80.6068 94.315 80.8461L60.4285 100L29.655 81.5466C29.2486 81.303 29 80.8639 29 80.3901V65M60.4285 100V83.0738" stroke="#D44C39" stroke-width="3"/>
<path d="M29.6105 64H20.4071C18.2172 64 16.2446 65.3239 15.4149 67.3505L3.04547 97.5616C1.59236 101.111 4.2026 105 8.03765 105H116.915C120.763 105 123.374 101.088 121.897 97.5349L109.337 67.3237C108.501 65.3113 106.536 64 104.356 64H95.6936" stroke="#D44C39" stroke-width="3"/>
<rect x="40.5" y="1.5" width="43" height="11" rx="2.5458" stroke="#D44C39" stroke-width="3"/>
<path d="M52 14V25.7534L62.303 36L72 25.7534V14" stroke="#D44C39" stroke-width="3"/>
<path d="M63.5 36C63.5135 35.6022 63.3673 35.2206 63.0858 34.9393C62.8047 34.658 62.4113 34.5 62 34.5C61.5887 34.5 61.1953 34.658 60.9142 34.9393C60.6327 35.2206 60.4865 35.6022 60.5 36C60.5156 36.4667 60.5313 36.9333 60.5469 37.4C60.8281 45.8 61.1094 54.2 61.3906 62.6C61.4063 63.0667 61.4219 63.5333 61.4375 64C61.4424 64.1443 61.506 64.2826 61.6114 64.3847C61.7169 64.4867 61.8557 64.544 62 64.544C62.1443 64.544 62.2831 64.4867 62.3886 64.3847C62.494 64.2826 62.5576 64.1443 62.5625 64C62.5781 63.5333 62.5938 63.0667 62.6094 62.6C62.8906 54.2 63.1719 45.8 63.4531 37.4C63.4688 36.9333 63.4844 36.4667 63.5 36Z" fill="#D44C39"/>
</svg>
