<svg width="121" height="74" viewBox="0 0 121 74" fill="none" xmlns="http://www.w3.org/2000/svg">
<path d="M1.5 69.2727H14.2568V72.5H1.5V69.2727ZM33.3919 69.2727H49.3378V72.5H33.3919V69.2727ZM84.4189 72.5H68.473V69.2727H84.4189V72.5ZM119.5 72.5H103.554V69.2727H119.5V72.5ZM119.5 46.6818H103.554V49.9091H119.5V46.6818ZM119.5 24.0909H103.554V27.3182H119.5V24.0909ZM119.5 1.5H103.554V4.72727H119.5V1.5ZM84.4189 46.6818H68.473V49.9091H84.4189V46.6818ZM33.3919 49.9091H49.3378V46.6818H33.3919V49.9091ZM33.3919 24.0909H49.3378V27.3182H33.3919V24.0909Z" stroke="#D34C39" stroke-width="3" stroke-linecap="round" stroke-linejoin="round"/>
</svg>
