<svg width="114" height="108" viewBox="0 0 114 108" fill="none" xmlns="http://www.w3.org/2000/svg">
<path d="M90.3 106.5V45.7118C90.3 44.2461 89.7153 42.8405 88.6744 41.8041C87.6336 40.7678 86.2219 40.1856 84.75 40.1856H29.25C27.7781 40.1856 26.3664 40.7678 25.3256 41.8041C24.2847 42.8405 23.7 44.2461 23.7 45.7118V106.5M23.7 62.2904H90.3M23.7 84.3952H90.3M112.5 95.4476C112.5 98.3789 111.331 101.19 109.249 103.263C107.167 105.336 104.344 106.5 101.4 106.5H12.6C9.6561 106.5 6.83277 105.336 4.75112 103.263C2.66946 101.19 1.5 98.3789 1.5 95.4476V34.6594C1.49877 32.578 2.08779 30.5387 3.19925 28.776C4.31071 27.0133 5.89944 25.5989 7.7826 24.6956L51.9051 2.73448C53.4808 1.92331 55.2289 1.5 57.0028 1.5C58.7767 1.5 60.5247 1.92331 62.1004 2.73448L106.212 24.6956C108.096 25.5981 109.686 27.0122 110.798 28.7749C111.911 30.5377 112.501 32.5775 112.5 34.6594V95.4476Z" stroke="#D34C39" stroke-width="3" stroke-linecap="round" stroke-linejoin="round"/>
</svg>
