<svg width="120" height="125" viewBox="0 0 120 125" fill="none" xmlns="http://www.w3.org/2000/svg">
<path d="M60.3 10.0195C67.1944 10.0195 74.0213 11.3775 80.3909 14.0159C86.7605 16.6542 92.548 20.5214 97.4231 25.3964C102.298 30.2715 106.165 36.0591 108.804 42.4287C111.442 48.7982 112.8 55.6251 112.8 62.5195C112.8 69.4139 111.442 76.2408 108.804 82.6104C106.165 88.98 102.298 94.7676 97.4231 99.6426C92.548 104.518 86.7605 108.385 80.3909 111.023C74.0213 113.662 67.1944 115.02 60.3 115.02C53.4056 115.02 46.5787 113.662 40.2091 111.023C33.8395 108.385 28.052 104.518 23.1769 99.6426C18.3018 94.7676 14.4347 88.98 11.7963 82.6104C9.15796 76.2408 7.8 69.4139 7.8 62.5195C7.8 55.6251 9.15796 48.7982 11.7963 42.4287C14.4347 36.0591 18.3018 30.2715 23.1769 25.3964C28.052 20.5214 33.8395 16.6542 40.2091 14.0159C46.5787 11.3775 53.4056 10.0195 60.3 10.0195ZM60.3 115.02V10.0195M60.3 45.0195L87.425 17.8945M60.3 75.9362L103.292 32.9445M60.3 106.853L111.925 55.2279" stroke="#D44C39" stroke-width="3" stroke-linecap="round" stroke-linejoin="round"/>
</svg>
