<svg width="108" height="108" viewBox="0 0 108 108" fill="none" xmlns="http://www.w3.org/2000/svg">
<path d="M27.75 14.625C27.75 11.144 29.1328 7.80564 31.5942 5.34422C34.0556 2.88281 37.394 1.5 40.875 1.5H93.375C96.856 1.5 100.194 2.88281 102.656 5.34422C105.117 7.80564 106.5 11.144 106.5 14.625V67.125C106.5 70.606 105.117 73.9444 102.656 76.4058C100.194 78.8672 96.856 80.25 93.375 80.25H40.875C37.394 80.25 34.0556 78.8672 31.5942 76.4058C29.1328 73.9444 27.75 70.606 27.75 67.125V14.625Z" stroke="#D44C39" stroke-width="3" stroke-linecap="round" stroke-linejoin="round"/>
<path d="M34.3125 73.6875L73.6875 34.3125M1.5 40.875C1.5 37.394 2.88281 34.0556 5.34422 31.5942C7.80564 29.1328 11.144 27.75 14.625 27.75H67.125C70.606 27.75 73.9444 29.1328 76.4058 31.5942C78.8672 34.0556 80.25 37.394 80.25 40.875V93.375C80.25 96.856 78.8672 100.194 76.4058 102.656C73.9444 105.117 70.606 106.5 67.125 106.5H14.625C11.144 106.5 7.80564 105.117 5.34422 102.656C2.88281 100.194 1.5 96.856 1.5 93.375V40.875Z" stroke="#D44C39" stroke-width="3" stroke-linecap="round" stroke-linejoin="round"/>
</svg>
