<svg width="108" height="108" viewBox="0 0 108 108" fill="none" xmlns="http://www.w3.org/2000/svg">
<path d="M1.5 14.625C1.5 11.144 2.88281 7.80564 5.34422 5.34422C7.80564 2.88281 11.144 1.5 14.625 1.5H93.375C96.856 1.5 100.194 2.88281 102.656 5.34422C105.117 7.80564 106.5 11.144 106.5 14.625V93.375C106.5 96.856 105.117 100.194 102.656 102.656C100.194 105.117 96.856 106.5 93.375 106.5H14.625C11.144 106.5 7.80564 105.117 5.34422 102.656C2.88281 100.194 1.5 96.856 1.5 93.375V14.625Z" stroke="#D44C39" stroke-width="3" stroke-linecap="round" stroke-linejoin="round"/>
<path d="M1.5 34.3125H40.875L47.4375 21.1875L60.5625 47.4375L67.125 34.3125H106.5M1.5 67.125H106.5" stroke="#D44C39" stroke-width="3" stroke-linecap="round" stroke-linejoin="round"/>
<path d="M67.125 86.8125V86.8781M86.8125 86.8125V86.8781" stroke="#D44C39" stroke-width="5" stroke-linecap="round" stroke-linejoin="round"/>
</svg>
