<svg width="108" height="108" viewBox="0 0 108 108" fill="none" xmlns="http://www.w3.org/2000/svg">
<path d="M11.7513 96.2487C5.18749 89.685 1.5 80.7826 1.5 71.5C1.5 62.2174 5.18749 53.315 11.7513 46.7513C18.315 40.1875 27.2174 36.5 36.5 36.5C45.7826 36.5 54.685 40.1875 61.2487 46.7513C67.8125 53.315 71.5 62.2174 71.5 71.5C71.5 80.7826 67.8125 89.685 61.2487 96.2487C54.685 102.813 45.7826 106.5 36.5 106.5C27.2174 106.5 18.315 102.813 11.7513 96.2487Z" stroke="#D44C39" stroke-width="3" stroke-linecap="round" stroke-linejoin="round"/>
<path d="M66.9375 88.8542L105.548 17.8392M19.46 40.91L90.7258 2.22917M24.8325 71.5C24.8325 74.5942 26.0616 77.5616 28.2495 79.7496C30.4375 81.9375 33.4049 83.1667 36.4991 83.1667C39.5933 83.1667 42.5608 81.9375 44.7487 79.7496C46.9366 77.5616 48.1658 74.5942 48.1658 71.5C48.1658 68.4058 46.9366 65.4383 44.7487 63.2504C42.5608 61.0625 39.5933 59.8333 36.4991 59.8333C33.4049 59.8333 30.4375 61.0625 28.2495 63.2504C26.0616 65.4383 24.8325 68.4058 24.8325 71.5ZM83.1658 13.1667C83.1658 16.2609 84.395 19.2283 86.5829 21.4162C88.7708 23.6042 91.7383 24.8333 94.8325 24.8333C97.9266 24.8333 100.894 23.6042 103.082 21.4162C105.27 19.2283 106.499 16.2609 106.499 13.1667C106.499 10.0725 105.27 7.10501 103.082 4.91709C100.894 2.72916 97.9266 1.5 94.8325 1.5C91.7383 1.5 88.7708 2.72916 86.5829 4.91709C84.395 7.10501 83.1658 10.0725 83.1658 13.1667Z" stroke="#D44C39" stroke-width="3" stroke-linecap="round" stroke-linejoin="round"/>
<path d="M28.2501 79.7493C26.0622 77.5613 24.833 74.5939 24.833 71.4997C24.833 68.4055 26.0622 65.438 28.2501 63.2501C30.438 61.0622 33.4055 59.833 36.4997 59.833C39.5939 59.833 42.5613 61.0622 44.7493 63.2501C46.9372 65.438 48.1663 68.4055 48.1663 71.4997C48.1663 74.5939 46.9372 77.5613 44.7493 79.7493C42.5613 81.9372 39.5939 83.1663 36.4997 83.1663C33.4055 83.1663 30.438 81.9372 28.2501 79.7493Z" stroke="#D44C39" stroke-width="3" stroke-linecap="round" stroke-linejoin="round"/>
</svg>
