<svg width="120" height="125" viewBox="0 0 120 125" fill="none" xmlns="http://www.w3.org/2000/svg">
<path d="M9.16563 46.887C7.72786 46.13 7.74509 44.0653 9.19529 43.3323L59.7718 17.7719C60.3418 17.4838 61.0151 17.4853 61.5838 17.7758L111.596 43.3265C113.04 44.064 113.053 46.1222 111.618 46.8773L61.3114 73.3615C60.7282 73.6685 60.0311 73.6685 59.4479 73.3614L9.16563 46.887Z" stroke="#D44C39" stroke-width="3" stroke-miterlimit="10"/>
<path d="M80.2467 69.0059L108.66 84.5562C110.031 85.3065 110.05 87.2686 108.694 88.0458L62.5888 114.474C61.9727 114.827 61.2156 114.827 60.5995 114.474L14.4662 88.0267C13.1176 87.2536 13.1279 85.305 14.4845 84.5462L41.485 69.4422" stroke="#D44C39" stroke-width="3" stroke-miterlimit="10" stroke-linecap="round" stroke-linejoin="round"/>
<path d="M55.8408 45.7658C58.3864 46.1947 61.1427 45.5866 62.0092 44.4084C62.8758 43.2303 61.5098 41.9326 58.9641 41.5037C56.4185 41.0748 53.6623 41.6829 52.7957 42.8611C51.9291 44.0392 53.2952 45.3369 55.8408 45.7658Z" fill="#D44C39"/>
<path d="M52.3193 50.5656C54.8649 50.9945 57.6212 50.3864 58.4878 49.2082C59.3543 48.0301 57.9883 46.7324 55.4427 46.3035C52.897 45.8746 50.1408 46.4827 49.2742 47.6609C48.4076 48.839 49.7737 50.1367 52.3193 50.5656Z" fill="#D44C39"/>
<path d="M67.0156 47.6447C69.5612 48.0736 72.3175 47.4655 73.184 46.2873C74.0506 45.1092 72.6846 43.8115 70.1389 43.3826C67.5933 42.9537 64.8371 43.5618 63.9705 44.74C63.1039 45.9181 64.47 47.2158 67.0156 47.6447Z" fill="#D44C39"/>
<path d="M63.459 52.5041C66.0046 52.933 68.7608 52.3249 69.6274 51.1467C70.494 49.9685 69.1279 48.6709 66.5823 48.242C64.0367 47.8131 61.2805 48.4212 60.4139 49.5993C59.5473 50.7775 60.9134 52.0751 63.459 52.5041Z" fill="#D44C39"/>
<path d="M78.0948 48.8885C79.9725 49.2034 82.0186 48.7582 82.6565 47.8841C83.2944 47.0099 82.2894 46.0544 80.4058 45.734C78.5221 45.4137 76.482 45.8643 75.8441 46.7385C75.2062 47.6126 76.2112 48.5682 78.0948 48.8885Z" fill="#D44C39"/>
<path d="M74.5743 53.6883C76.4519 54.0032 78.4981 53.558 79.136 52.6839C79.7739 51.8097 78.7689 50.8542 76.8852 50.5338C75.0016 50.2135 72.9615 50.6641 72.3236 51.5383C71.6857 52.4124 72.6907 53.368 74.5743 53.6883Z" fill="#D44C39"/>
<path d="M45.38 43.3778C47.2576 43.6927 49.3037 43.2475 49.9416 42.3733C50.5795 41.4992 49.5745 40.5436 47.6909 40.2233C45.8073 39.903 43.7672 40.3536 43.1293 41.2277C42.4914 42.1019 43.4964 43.0574 45.38 43.3778Z" fill="#D44C39"/>
<path d="M41.8673 48.1766C43.7449 48.4915 45.791 48.0463 46.4289 47.1722C47.0668 46.298 46.0618 45.3425 44.1782 45.0221C42.2946 44.7018 40.2545 45.1524 39.6166 46.0266C38.9787 46.9007 39.9837 47.8563 41.8673 48.1766Z" fill="#D44C39"/>
<path d="M37.413 41.3957C38.6166 41.5966 39.9225 41.3088 40.3317 40.755C40.741 40.2012 40.097 39.5823 38.8934 39.3814C37.6898 39.1805 36.3839 39.4683 35.9747 40.0221C35.5655 40.5759 36.2094 41.1948 37.413 41.3957Z" fill="#D44C39"/>
<path d="M33.8935 46.1955C35.0971 46.3964 36.403 46.1086 36.8122 45.5548C37.2214 45.001 36.5775 44.3821 35.3739 44.1812C34.1703 43.9803 32.8644 44.2681 32.4552 44.8219C32.046 45.3757 32.6899 45.9946 33.8935 46.1955Z" fill="#D44C39"/>
<path d="M86.3329 49.6369C87.5365 49.8378 88.8424 49.55 89.2517 48.9962C89.6609 48.4425 89.017 47.8235 87.8134 47.6226C86.6098 47.4217 85.3039 47.7095 84.8946 48.2633C84.4854 48.8171 85.1293 49.436 86.3329 49.6369Z" fill="#D44C39"/>
<path d="M82.8193 54.4367C84.0229 54.6376 85.3288 54.3499 85.738 53.7961C86.1472 53.2423 85.5033 52.6233 84.2997 52.4224C83.0961 52.2215 81.7902 52.5093 81.381 53.0631C80.9717 53.6169 81.6157 54.2358 82.8193 54.4367Z" fill="#D44C39"/>
<path d="M59.9933 40.0985C61.8709 40.4134 63.917 39.9682 64.5549 39.094C65.1928 38.2199 64.1878 37.2643 62.3042 36.944C60.4206 36.6237 58.3805 37.0743 57.7426 37.9484C57.1046 38.8226 58.1097 39.7781 59.9933 40.0985Z" fill="#D44C39"/>
<path d="M71.1749 41.9764C73.0525 42.2913 75.0986 41.8461 75.7366 40.972C76.3745 40.0978 75.3695 39.1423 73.4858 38.8219C71.6022 38.5016 69.5621 38.9522 68.9242 39.8264C68.2863 40.7005 69.2913 41.6561 71.1749 41.9764Z" fill="#D44C39"/>
<path d="M49.0587 54.8768C50.9363 55.1917 52.9824 54.7465 53.6203 53.8724C54.2583 52.9982 53.2532 52.0427 51.3696 51.7223C49.486 51.402 47.4459 51.8526 46.808 52.7268C46.1701 53.6009 47.1751 54.5565 49.0587 54.8768Z" fill="#D44C39"/>
<path d="M60.2335 56.7606C62.1111 57.0755 64.1572 56.6303 64.7951 55.7561C65.4331 54.882 64.4281 53.9264 62.5444 53.6061C60.6608 53.2858 58.6207 53.7364 57.9828 54.6105C57.3449 55.4847 58.3499 56.4402 60.2335 56.7606Z" fill="#D44C39"/>
<path d="M70.9933 58.5741C72.8709 58.889 74.917 58.4438 75.5549 57.5696C76.1928 56.6955 75.1878 55.7399 73.3042 55.4196C71.4206 55.0993 69.3805 55.5499 68.7426 56.424C68.1046 57.2982 69.1097 58.2537 70.9933 58.5741Z" fill="#D44C39"/>
<path d="M38.3468 52.9764C40.2244 53.2913 42.2705 52.8461 42.9084 51.972C43.5463 51.0978 42.5413 50.1423 40.6577 49.8219C38.7741 49.5016 36.734 49.9522 36.0961 50.8264C35.4582 51.7005 36.4632 52.6561 38.3468 52.9764Z" fill="#D44C39"/>
<path d="M81.8077 43.8172C83.6853 44.1321 85.7315 43.6869 86.3694 42.8128C87.0073 41.9387 86.0023 40.9831 84.1186 40.6627C82.235 40.3424 80.1949 40.7931 79.557 41.6672C78.9191 42.5413 79.9241 43.4969 81.8077 43.8172Z" fill="#D44C39"/>
<path d="M49.1613 38.2244C51.0389 38.5393 53.085 38.0941 53.7229 37.22C54.3608 36.3459 53.3558 35.3903 51.4722 35.07C49.5885 34.7496 47.5484 35.2003 46.9105 36.0744C46.2726 36.9485 47.2776 37.9041 49.1613 38.2244Z" fill="#D44C39"/>
<path d="M57.9892 59.9699C59.1928 60.1708 60.4987 59.8831 60.9079 59.3293C61.3171 58.7755 60.6732 58.1565 59.4696 57.9556C58.266 57.7547 56.9601 58.0425 56.5509 58.5963C56.1417 59.1501 56.7856 59.769 57.9892 59.9699Z" fill="#D44C39"/>
<path d="M46.8075 58.0852C48.0111 58.286 49.317 57.9983 49.7263 57.4445C50.1355 56.8907 49.4916 56.2717 48.288 56.0709C47.0844 55.87 45.7785 56.1577 45.3692 56.7115C44.96 57.2653 45.6039 57.8843 46.8075 58.0852Z" fill="#D44C39"/>
<path d="M74.2616 37.7639C75.4652 37.9648 76.7711 37.677 77.1804 37.1232C77.5896 36.5694 76.9457 35.9505 75.7421 35.7496C74.5385 35.5487 73.2326 35.8364 72.8233 36.3902C72.4141 36.944 73.058 37.563 74.2616 37.7639Z" fill="#D44C39"/>
<path d="M63.079 35.885C64.2826 36.0859 65.5885 35.7981 65.9978 35.2443C66.407 34.6905 65.763 34.0716 64.5595 33.8707C63.3559 33.6698 62.05 33.9575 61.6407 34.5113C61.2315 35.0651 61.8754 35.6841 63.079 35.885Z" fill="#D44C39"/>
<path d="M60.7881 10.0439V28.6209" stroke="#D44C39" stroke-width="3" stroke-miterlimit="10" stroke-linecap="round"/>
<path d="M60.7881 63.3516L60.7881 89.1977" stroke="#D44C39" stroke-width="3" stroke-miterlimit="10" stroke-linecap="round"/>
</svg>
