<svg width="105" height="105" viewBox="0 0 105 105" fill="none" xmlns="http://www.w3.org/2000/svg">
<path d="M30.2119 2.57234L34.4459 2.97289C35.939 3.11414 37.142 4.22927 37.4031 5.76577L37.403 5.76674L37.5908 7.17251L37.5914 7.17649C37.7987 8.54148 38.6909 9.73857 39.9579 10.4157L39.9578 10.4167C41.3306 11.215 42.7889 11.2433 44.0858 10.5806L45.3175 9.95164C46.6894 9.27647 48.3683 9.63581 49.3641 10.8396L52.144 14.1994C53.1396 15.4033 53.1769 17.1198 52.2565 18.3407L51.4077 19.4326L51.3997 19.4436C50.6221 20.5959 50.3746 22.0244 50.8023 23.405C51.2285 24.7803 52.2398 25.8848 53.5444 26.3452L53.5473 26.3465L54.8939 26.7937L54.8987 26.7951C56.3532 27.2319 57.225 28.7168 57.0827 30.2221L56.6822 34.4561C56.5408 35.9502 55.4245 37.1529 53.8864 37.413L52.4826 37.6009L52.4795 37.6016C51.1142 37.8089 49.9156 38.7006 49.2384 39.968C48.4401 41.3408 48.4118 42.7991 49.0744 44.0959L49.7035 45.3267L49.7034 45.3276C50.3785 46.6994 50.0199 48.3785 48.8164 49.3744L45.4557 52.1542C44.2518 53.1496 42.5352 53.187 41.3144 52.2666L40.2225 51.4178C39.0756 50.5259 37.6414 50.2785 36.2601 50.7065C34.8885 51.1316 33.7874 52.1388 33.3247 53.4383L33.3238 53.4382L32.7706 54.7749L32.7669 54.7833L32.7639 54.7938C32.327 56.2482 30.8423 57.1203 29.3369 56.9779L25.1029 56.5773C23.6077 56.4357 22.4041 55.3167 22.1455 53.7766L22.1446 53.7765L21.9795 52.1718L21.9785 52.1619L21.931 51.9072C21.6569 50.646 20.7961 49.5512 19.6046 48.917C18.2338 48.1225 16.778 48.095 15.4832 48.7567L14.2514 49.3866C12.9652 50.0194 11.4091 49.7431 10.3992 48.7142L10.2048 48.4986L10.2021 48.4954L7.41318 45.2417C6.41977 44.038 6.38278 42.3226 7.30252 41.1026L7.30164 41.1015L8.15229 40.0107C9.04392 38.8641 9.29036 37.4303 8.86253 36.0493C8.43641 34.674 7.42582 33.5696 6.1214 33.1091L6.11761 33.1078L4.77199 32.6597L4.76625 32.6582L4.50046 32.5644C3.20655 32.0359 2.4487 30.6426 2.58223 29.2312L2.98269 24.9981C3.12414 23.5029 4.2425 22.2984 5.78255 22.0397L5.78167 22.0386L7.18142 21.8523C8.5455 21.751 9.74238 20.8532 10.4166 19.5912C11.2149 18.2185 11.2432 16.7602 10.5805 15.4633L9.95053 14.2315L9.9515 14.2316C9.27645 12.8597 9.63479 11.1797 10.8386 10.1839L14.186 7.51367L14.1891 7.512C15.3929 6.51634 17.1096 6.47754 18.3306 7.39764L19.4224 8.24741L19.5452 8.0903L19.4223 8.24838L19.4335 8.25532C20.5857 9.03295 22.0142 9.28051 23.3948 8.85274C24.77 8.42659 25.8745 7.41604 26.335 6.11161L26.3363 6.10781L26.7834 4.7621L26.7849 4.75636C27.2217 3.3019 28.7066 2.4301 30.2119 2.57234ZM54.1083 29.7896L53.9683 29.7342L52.5267 29.1711L52.5239 29.1699C50.3143 28.3366 48.6122 26.5107 47.8881 24.2544L47.8865 24.2503L47.749 23.8067C47.13 21.5824 47.5995 19.3133 48.9431 17.4887L48.9422 17.4877L49.7907 16.3987L49.8878 16.2744L49.7896 16.1514L47.0207 12.6857L46.9224 12.5626L46.7799 12.6286L45.44 13.2493L45.4338 13.2527C43.3618 14.3026 40.7647 14.2651 38.6895 13.1335L38.6867 13.1323L38.2863 12.9061C36.3269 11.7233 35.0234 9.72906 34.7417 7.56118L34.7418 7.56021L34.554 6.15444L34.5342 6.00052L34.38 5.98201L30.05 5.46546L29.8968 5.44704L29.84 5.59175L29.2769 7.0334L29.2757 7.03526C28.4425 9.245 26.6147 10.9466 24.3583 11.6709C22.1412 12.3407 19.749 12.0734 17.9499 10.8723L17.5982 10.6193L16.5045 9.76841L16.3803 9.67132L16.2561 9.77042L12.7905 12.5393L12.6685 12.6367L12.7344 12.7793L13.3551 14.12L13.3584 14.1262C14.4081 16.1982 14.3708 18.7945 13.2394 20.8696L13.2381 20.8724C12.0949 23.0543 9.97867 24.517 7.66604 24.8173L6.26027 25.0051L6.10627 25.0259L6.08775 25.1801L5.5713 29.5091L5.55278 29.6633L5.69661 29.7191L7.13914 30.2832L7.14109 30.2834C9.35083 31.1166 11.0526 32.9435 11.7768 35.1999L11.7784 35.2039C12.5945 37.5693 12.1434 40.1242 10.7252 41.961L9.87416 43.0556L9.77706 43.1798L9.87626 43.303L12.6452 46.7686L12.7425 46.8906L12.885 46.8256L14.2249 46.204L14.2258 46.205L14.2321 46.2007C15.4256 45.5908 16.792 45.4071 18.1384 45.5344C19.1677 45.6318 20.0737 45.9243 20.9626 46.4245L20.9682 46.4279C23.15 47.5712 24.6128 49.6864 24.9131 51.999L24.9142 52.009L24.9172 52.0181L25.2199 53.3288L25.2521 53.4652L25.3908 53.4823L29.7209 53.9978L29.8741 54.0163L29.9309 53.8725L30.494 52.4309L30.4949 52.431L30.4979 52.4205C31.2256 50.2081 33.0475 48.5068 35.3047 47.7822L35.3097 47.7817C37.5257 47.0171 39.8188 47.3545 41.7004 48.5805L42.0714 48.8373L43.1614 49.685L43.2856 49.7821L43.4087 49.6838L46.8744 46.9149L46.9965 46.8166L46.9305 46.674L46.3098 45.3342L46.3074 45.3281L46.1231 44.933C45.2664 42.9329 45.3648 40.5291 46.4256 38.5837L46.4278 38.5809C47.5711 36.3993 49.6864 34.9363 51.9989 34.6359L51.9988 34.6369L52.0099 34.634L53.5316 34.3513L53.6793 34.3241L54.1083 29.7896Z" fill="#D34C39" stroke="white" stroke-width="0.4"/>
<path d="M30.9782 17.0615C37.9595 17.7221 43.1496 23.9966 42.4892 30.978C41.8285 37.9603 35.6587 43.1592 28.5727 42.489C21.5913 41.8286 16.4014 35.5539 17.0617 28.5725C17.7221 21.5911 23.9967 16.4011 30.9782 17.0615ZM30.6854 20.1561C25.3892 19.6551 20.6573 23.569 20.1563 28.8653C19.6554 34.1614 23.5693 38.8934 28.8654 39.3944C34.2688 39.9055 38.8936 35.9798 39.3946 30.6853C39.8956 25.3891 35.9815 20.6573 30.6854 20.1561Z" fill="#D34C39" stroke="white" stroke-width="0.4"/>
<path d="M54.3716 55.3685L58.0758 55.7189C59.4764 55.8515 60.6741 56.871 60.8406 58.2738L60.8405 58.2748L60.9523 59.3536L60.9545 59.3715C61.1829 60.5148 61.8784 61.4828 62.8437 62.0261L62.8503 62.0296C63.8584 62.5478 64.9161 62.5738 65.9128 62.1948L66.1117 62.1135L66.1179 62.1112L67.2328 61.5761L67.2337 61.5772C68.4913 60.9946 70.0671 61.344 70.9675 62.4326L73.2676 65.2134L73.2739 65.2199C74.2644 66.3076 74.222 67.9035 73.409 69.0386L72.6739 70.0373L72.6705 70.0429C72.0224 70.9872 71.789 72.2025 72.1414 73.2612L72.1413 73.2622C72.4805 74.4147 73.2986 75.2872 74.4006 75.6232L74.4005 75.6242L75.5325 76.05L75.5324 76.051C76.8006 76.5468 77.5765 77.6986 77.6255 79.184L77.6255 79.4851L77.2762 83.1776C77.1434 84.5792 76.1218 85.777 74.7173 85.9421L74.7163 85.942L74.7063 85.944L73.5115 86.1517L73.5066 86.1522C72.3724 86.3787 71.4067 86.9639 70.8494 88.0481C70.2968 89.1232 70.3033 90.2546 70.7646 91.3085L70.768 91.3147L71.3027 92.4335C71.8837 93.6908 71.5344 95.2654 70.4464 96.1653L67.6658 98.4644L67.6582 98.4716C66.6378 99.4006 65.1703 99.4209 64.0556 98.7487L63.8376 98.6055L62.8408 97.8716L62.8353 97.8672C61.8866 97.2164 60.7766 96.9978 59.6168 97.3391C58.4641 97.6783 57.5908 98.4961 57.2549 99.5983L56.8269 100.732L56.8242 100.74C56.4078 101.992 55.0227 102.869 53.6277 102.737L49.9235 102.387C48.5321 102.255 47.3342 101.137 47.168 99.7231L46.9697 99.7456L47.1681 99.7221L47.1661 99.7121L46.9594 98.5174L46.9579 98.5124C46.7295 97.3692 46.0346 96.4021 45.0695 95.8589L45.063 95.8553L44.8603 95.7577C43.8462 95.3047 42.7897 95.3378 41.8016 95.7704L41.7954 95.7738L40.6786 96.3077C39.4212 96.8899 37.8461 96.5404 36.9457 95.4523L34.6456 92.6716C33.7457 91.5836 33.6969 89.9713 34.5034 88.8453L35.2384 87.8466L35.2394 87.8467L35.2429 87.8411C35.8517 86.9536 36.0948 85.8267 35.8293 84.8155L35.7697 84.6156C35.4292 83.4662 34.6119 82.5959 33.5117 82.2607L32.3781 81.8327L32.3705 81.83L32.1405 81.7415C31.0127 81.2412 30.2489 79.9414 30.3726 78.6335L30.723 74.9293C30.8474 73.615 31.7527 72.4787 33.0229 72.2061L33.282 72.1639L33.2929 72.162L34.4867 71.9542L34.4867 71.9551L34.4917 71.9536C35.635 71.7253 36.603 71.0306 37.1462 70.0654L37.1497 70.0588C37.7025 68.9835 37.6952 67.8514 37.2337 66.7974L37.2303 66.7912L36.6956 65.6724C36.1148 64.4151 36.465 62.8414 37.5528 61.9416L40.3335 59.6415C41.4212 58.7419 43.0329 58.6922 44.1589 59.4982L44.1588 59.4992L45.1575 60.2342L45.1574 60.2352L45.163 60.2386C46.1095 60.8881 47.3282 61.1204 48.3885 60.7645C49.538 60.424 50.4092 59.6078 50.7444 58.5076L51.1714 57.3738L51.1741 57.3662C51.5905 56.1143 52.9765 55.2365 54.3716 55.3685ZM74.5591 78.8939L74.3809 78.8594L73.3496 78.6559C71.3494 77.9459 69.8456 76.3554 69.2087 74.3267C68.5697 72.2914 68.8896 70.0435 70.1782 68.4122L70.1826 68.4067L70.9177 67.4081L71.0122 67.2797L70.9079 67.159L68.5987 64.4843L68.4873 64.356L68.3426 64.4443L67.4431 64.9939C65.6007 65.8507 63.3247 65.8403 61.4557 64.8365C59.5789 63.8286 58.2964 62.0482 57.9771 59.9452L57.9765 59.9412L57.7697 58.7465L57.7423 58.5909L57.5853 58.5809L54.0821 58.3564L53.9076 58.3448L53.8736 58.5172L53.6701 59.5485C52.9602 61.5489 51.3697 63.0535 49.3408 63.6904C47.3127 64.3271 45.0699 63.9081 43.42 62.7154L43.421 62.7155L42.4223 61.9805L42.2939 61.8859L42.1732 61.9902L39.4984 64.3004L39.3703 64.4108L39.4585 64.5565L40.0082 65.4541C40.8655 67.2965 40.8545 69.5731 39.8508 71.4424C38.8428 73.3192 37.0624 74.6017 34.9594 74.921L34.9554 74.9216L33.7606 75.1294L33.6001 75.1574L33.5945 75.3197L33.486 78.7269L33.4807 78.8971L33.6474 78.9295L34.6788 79.1321C36.6791 79.842 38.1837 81.4325 38.8207 83.4613C39.4597 85.4968 39.1389 87.7453 37.8501 89.3767L37.8456 89.3822L37.1107 90.3799L37.0161 90.5092L37.1204 90.6299L39.4305 93.3047L39.5588 93.4522L39.7088 93.3281L40.5007 92.6722C41.5791 92.1612 42.7299 91.964 43.9566 92.08C44.8748 92.1669 45.6755 92.4474 46.4757 92.8363L46.4766 92.8364C48.3535 93.8443 49.636 95.6247 49.9552 97.7277L49.9559 97.7317L50.1636 98.9265L50.1902 99.0811L50.348 99.0921L53.8503 99.3165L54.0258 99.3272L54.0598 99.1548L54.2623 98.1234C54.9723 96.1233 56.5629 94.6194 58.5915 93.9825C60.6199 93.3456 62.8633 93.7646 64.5133 94.9576L64.5134 94.9566L65.51 95.6924L65.6384 95.787L65.7601 95.6828L68.4339 93.3726L68.5631 93.2612L68.4738 93.1164L67.9267 92.222C67.0677 90.3788 67.078 88.1002 68.0826 86.2296C69.0905 84.3531 70.8703 83.0703 72.973 82.7509L74.0428 82.6412L74.2062 82.6243L74.5591 78.8939Z" fill="#D34C39" stroke="white" stroke-width="0.4"/>
<path d="M54.8884 69.0868C60.2821 69.597 64.2265 74.365 63.7165 79.7586C63.2062 85.1525 58.4375 89.0969 53.0437 88.5866C47.65 88.0761 43.7064 83.3076 44.2166 77.9139C44.7271 72.5204 49.4949 68.5768 54.8884 69.0868ZM54.6057 72.0754C50.8974 71.7248 47.5563 74.4884 47.2052 78.1966C46.8544 81.9051 49.618 85.2469 53.3264 85.598C57.035 85.9489 60.377 83.1845 60.7279 79.4759C61.0784 75.7675 58.3141 72.4262 54.6057 72.0754Z" fill="#D34C39" stroke="white" stroke-width="0.4"/>
<path d="M82.9409 20.9091L86.0102 21.1995C87.2968 21.3212 88.3979 22.3245 88.5737 23.6324L88.5736 23.6333L88.6954 24.6062L88.6972 24.6181C88.8398 25.3842 89.2918 26.0807 89.979 26.509L90.1193 26.5909L90.1278 26.5946C90.9766 27.0079 91.8925 27.109 92.6429 26.708L92.6438 26.7091L93.5408 26.2593L93.5399 26.2583C94.7982 25.6783 96.1596 26.0127 96.9615 26.9822L98.8778 29.2989C99.6788 30.3849 99.7335 31.783 98.9474 32.7937L98.9464 32.7945L98.3364 33.5912L98.3308 33.5985L98.3261 33.6069C97.9238 34.2515 97.7205 35.1487 97.9892 35.9862C98.2392 36.7653 98.8085 37.3713 99.5168 37.6933L99.6602 37.7539L99.6716 37.758L100.601 38.0588C101.864 38.5876 102.634 39.765 102.524 40.9284L102.234 43.9977C102.111 45.3 101.232 46.2599 100.04 46.5191L99.798 46.5619L98.8272 46.683L98.8516 46.8814L98.8263 46.6829L98.8153 46.6848C97.9981 46.8368 97.2602 47.3416 96.8424 48.1078L96.8378 48.1152C96.4246 48.9639 96.3238 49.88 96.7244 50.6304L96.7243 50.6314L97.1708 51.5211L97.1708 51.5221C97.7543 52.7819 97.4222 54.1459 96.4512 54.949L94.1419 56.8592C93.0549 57.6657 91.6529 57.7229 90.6397 56.9349L90.6389 56.9339L89.8422 56.3239L89.8349 56.3183L89.8265 56.3136L89.573 56.1729C88.9579 55.8681 88.1791 55.7414 87.4463 55.9766C86.6155 56.2433 85.9821 56.8736 85.6795 57.6477L85.6755 57.6591L85.3763 58.5813C84.8507 59.8441 83.6743 60.6224 82.399 60.5018L79.3297 60.2115C78.0274 60.0883 77.0675 59.2095 76.8083 58.0179L76.7655 57.7755L76.6445 56.8047L76.6427 56.7928L76.61 56.6406C76.4388 55.9351 76.0023 55.3017 75.361 54.902L75.2196 54.8199L75.2122 54.8153L74.89 54.675C74.136 54.3845 73.3525 54.3511 72.6961 54.7018L71.8043 55.1491C70.5446 55.7323 69.1814 55.3995 68.3784 54.4288L66.4621 52.112C65.6632 51.029 65.6064 49.6355 66.3858 48.6254L66.9649 48.0515L66.9812 48.0353L66.9938 48.0159C67.3961 47.3713 67.5986 46.4732 67.3298 45.6356C67.0736 44.7007 66.445 44.066 65.6697 43.763L65.6583 43.7589L64.7371 43.4599C63.4738 42.9345 62.695 41.7581 62.8156 40.4825L63.106 37.4132C63.2374 36.024 64.2284 35.0241 65.5419 34.849L65.541 34.8479L66.5127 34.728L66.5246 34.7262C67.2906 34.5836 67.9872 34.1315 68.4155 33.4444L68.4975 33.3031L68.5011 33.2956C68.9186 32.4382 69.0018 31.6335 68.6188 30.7867L68.6156 30.7796L68.1658 29.8826L68.1649 29.8816L68.066 29.6623C67.6234 28.5525 67.9764 27.2164 68.8887 26.4619L71.2054 24.5456C72.2914 23.7445 73.6894 23.6898 74.7002 24.476L74.701 24.477L75.4977 25.087L75.505 25.0926L75.5134 25.0973C76.158 25.4996 77.0552 25.7028 77.8927 25.4342C78.6717 25.1842 79.2778 24.6148 79.5998 23.9066L79.6604 23.7632L79.6645 23.7518L79.9664 22.821C80.4937 21.5631 81.6683 20.7887 82.9409 20.9091ZM99.5975 41.1224L99.4339 41.0785L98.8149 40.914C97.1266 40.3417 95.8193 38.8806 95.2561 37.1705L95.2536 37.1654L95.1437 36.8244C94.6528 35.1159 95.0544 33.3419 96.0548 31.9835L96.4228 31.4846L96.5151 31.359L96.4157 31.2378L94.8822 29.3849L94.7828 29.2647L94.642 29.3318L94.0822 29.5986L94.0791 29.6003C92.3451 30.4686 90.3942 30.3866 88.8282 29.5175C87.2526 28.6429 86.0612 27.0824 85.8171 25.3148L85.7721 24.6808L85.7606 24.512L83.0948 24.2598L83.0508 24.4234L82.8878 25.0377C82.317 26.7266 80.8567 28.0353 79.147 28.5996C77.341 29.1509 75.4151 28.7627 73.9659 27.6955L73.4661 27.3285L73.3404 27.2362L73.2202 27.3356L71.3664 28.868L71.2461 28.9685L71.3142 29.1093L71.5811 29.6682L71.5827 29.6713C72.4512 31.4054 72.3692 33.357 71.4999 34.9231L71.4989 34.9231L71.495 34.9325C70.7307 36.5024 69.0735 37.6865 67.3003 37.9326L66.6633 37.9783L66.4934 37.9906L66.2412 40.6565L66.4058 40.6995L67.0173 40.8614L67.0172 40.8623C68.7072 41.4325 70.0174 42.893 70.5821 44.6034L70.582 44.6043C71.1332 46.4102 70.7451 48.3363 69.6779 49.7854L69.311 50.2843L69.2177 50.4099L70.95 52.5042L71.0907 52.4371L71.6507 52.1693L71.6589 52.1652C73.2809 51.2923 75.2315 51.3688 76.9093 52.2528L76.9092 52.2538L76.9149 52.2563C78.4839 53.0203 79.6675 54.6759 79.9143 56.448L79.9607 57.0881L79.9731 57.257L82.639 57.5092L82.6819 57.3455L82.8465 56.7254C83.419 55.0375 84.881 53.7307 86.5908 53.1677L86.5959 53.1653C88.4065 52.5137 90.328 52.8996 91.7769 53.9664L92.2767 54.3344L92.4024 54.4267L94.4967 52.6944L94.4296 52.5537L94.1617 51.9947C93.3925 50.2597 93.379 48.2979 94.2439 46.7398C95.1188 45.1638 96.6794 43.9714 98.4476 43.7278L99.0628 43.685L99.3525 43.7124L99.5975 41.1224Z" fill="#D34C39" stroke="white" stroke-width="0.4"/>
<path d="M83.3969 33.0184C87.6264 33.4185 90.7077 37.1439 90.3077 41.3734C89.9076 45.603 86.1822 48.6843 81.9527 48.2842C77.7232 47.884 74.6417 44.1587 75.0419 39.9292C75.442 35.6997 79.1674 32.6183 83.3969 33.0184ZM83.1141 36.007C80.5699 35.7664 78.2712 37.6677 78.0305 40.2119C77.7898 42.7562 79.6911 45.0548 82.2354 45.2956C84.7797 45.5363 87.0784 43.635 87.3191 41.0907C87.5597 38.5464 85.6584 36.2477 83.1141 36.007Z" fill="#D34C39" stroke="white" stroke-width="0.4"/>
</svg>
