<svg width="119" height="68" viewBox="0 0 119 68" fill="none" xmlns="http://www.w3.org/2000/svg">
<path d="M1.5 59.6676H7.94444M111.056 59.6676H117.5M18.2556 18.304L22.7667 22.8281M100.744 18.304L96.2333 22.8281M22.7667 65.1612C22.7667 55.3908 26.6368 46.0205 33.5256 39.1118C40.4144 32.203 49.7577 28.3217 59.5 28.3217C69.2423 28.3217 78.5856 32.203 85.4744 39.1118C92.3632 46.0205 96.2333 55.3908 96.2333 65.1612M59.5 7.96307V1.5M63.2401 54L68.2257 66.5H70.7185L75.7041 54M45.7905 54V61.5C45.7905 62.8261 46.3158 64.0979 47.2508 65.0355C48.1858 65.9732 49.4539 66.5 50.7761 66.5C52.0984 66.5 53.3665 65.9732 54.3015 65.0355C55.2365 64.0979 55.7617 62.8261 55.7617 61.5V54" stroke="#D44C39" stroke-width="3" stroke-linecap="round" stroke-linejoin="round"/>
</svg>
