<svg width="109" height="109" viewBox="0 0 109 109" fill="none" xmlns="http://www.w3.org/2000/svg">
<path d="M31.3807 101.353C23.4983 97.4741 16.7166 91.6464 11.6669 84.4123C6.6173 77.1782 3.46381 68.7728 2.5 59.9784M77.5899 101.353C85.4723 97.4741 92.254 91.6464 97.3036 84.4123C102.353 77.1782 105.507 68.7728 106.471 59.9784M20.9837 13.3593C30.2722 5.69016 41.9051 1.5 53.9077 1.5C65.9103 1.5 77.5431 5.69016 86.8317 13.3593" stroke="#D44C39" stroke-width="3" stroke-linecap="round" stroke-linejoin="round"/>
<path d="M54.4853 106.442V106.5M2.5 36.5V36.5583M106.471 36.5V36.5583" stroke="#D44C39" stroke-width="5" stroke-linecap="round" stroke-linejoin="round"/>
<path d="M40.4607 69.9294C36.2411 65.7099 33.8706 59.9869 33.8706 54.0195C33.8706 48.0522 36.2411 42.3292 40.4607 38.1096C44.6803 33.8901 50.4032 31.5195 56.3706 31.5195C62.338 31.5195 68.0609 33.8901 72.2805 38.1096C76.5001 42.3292 78.8706 48.0522 78.8706 54.0195C78.8706 59.9869 76.5001 65.7099 72.2805 69.9294C68.0609 74.149 62.338 76.5195 56.3706 76.5195C50.4032 76.5195 44.6803 74.149 40.4607 69.9294Z" stroke="#D44C39" stroke-width="3" stroke-linecap="round" stroke-linejoin="round"/>
</svg>
