<svg width="32" height="32" viewBox="0 0 32 32" fill="none" xmlns="http://www.w3.org/2000/svg">
<path d="M16 7.72418C17.4841 8.79858 18.9932 10.0823 20.4555 11.5445C21.9177 13.0067 23.2015 14.5159 24.2759 16.0001M16 7.72418C14.5159 8.79858 13.0068 10.0823 11.5446 11.5445C10.0823 13.0068 8.7986 14.5159 7.72418 16.0001M16 7.72418C20.7599 4.27838 25.2629 2.98544 27.1388 4.86125C29.0145 6.73708 27.7216 11.2402 24.2759 16.0001M24.2759 16.0001C27.7216 20.7599 29.0144 25.2629 27.1387 27.1388C25.7479 28.5295 22.9131 28.1784 19.6 26.4996M24.2759 16.0001C23.2015 17.4843 21.9177 18.9933 20.4556 20.4555C18.9933 21.9177 17.4841 23.2015 16 24.2759M7.72418 16.0001C8.79857 17.4843 10.0823 18.9933 11.5445 20.4555C13.0067 21.9177 14.5159 23.2015 16 24.2759M7.72418 16.0001C4.27846 20.7599 2.98556 25.2629 4.86136 27.1388C6.73716 29.0145 11.2402 27.7216 16 24.2759M7.72418 16.0001C4.27837 11.2402 2.98542 6.73706 4.86124 4.86124C6.252 3.47048 9.08694 3.82159 12.4 5.5005" stroke="black" stroke-width="2" stroke-linecap="round"/>
<path d="M15.9987 18.6673C17.4715 18.6673 18.6654 17.4734 18.6654 16.0007C18.6654 14.5279 17.4715 13.334 15.9987 13.334C14.5259 13.334 13.332 14.5279 13.332 16.0007C13.332 17.4734 14.5259 18.6673 15.9987 18.6673Z" stroke="black" stroke-width="2"/>
</svg>
