<svg width="32" height="32" viewBox="0 0 32 32" fill="none" xmlns="http://www.w3.org/2000/svg">
<path d="M20.6654 8.66667C20.6654 11.244 18.576 13.3333 15.9987 13.3333C13.4214 13.3333 11.332 11.244 11.332 8.66667C11.332 6.08933 13.4214 4 15.9987 4C18.576 4 20.6654 6.08933 20.6654 8.66667Z" stroke="black" stroke-width="2"/>
<path d="M29.3333 23.3327C29.3333 25.91 27.244 27.9993 24.6667 27.9993C22.0893 27.9993 20 25.91 20 23.3327C20 20.7553 22.0893 18.666 24.6667 18.666C27.244 18.666 29.3333 20.7553 29.3333 23.3327Z" stroke="black" stroke-width="2"/>
<path d="M12.0013 23.3327C12.0013 25.91 9.91197 27.9993 7.33464 27.9993C4.7573 27.9993 2.66797 25.91 2.66797 23.3327C2.66797 20.7553 4.7573 18.666 7.33464 18.666C9.91197 18.666 12.0013 20.7553 12.0013 23.3327Z" stroke="black" stroke-width="2"/>
</svg>
