<svg width="32" height="32" viewBox="0 0 32 32" fill="none" xmlns="http://www.w3.org/2000/svg">
<path d="M6.66797 22.666H2.66797M25.3346 22.666H29.3346" stroke="black" stroke-width="2" stroke-linecap="round" stroke-linejoin="round"/>
<path d="M10.6711 9.33333C10.6711 8.20815 10.5599 6.90948 11.6711 6.26795C12.1352 6 12.7582 6 14.0044 6H18.0044C19.2505 6 19.8736 6 20.3377 6.26795C21.4489 6.90948 21.3377 8.20815 21.3377 9.33333C21.3377 10.4585 21.4489 11.7572 20.3377 12.3987C19.8736 12.6667 19.2505 12.6667 18.0044 12.6667H14.0044C12.7582 12.6667 12.1352 12.6667 11.6711 12.3987C10.5599 11.7572 10.6711 10.4585 10.6711 9.33333Z" stroke="black" stroke-width="2" stroke-linecap="round" stroke-linejoin="round"/>
<path d="M6.67106 22.6673C6.67106 21.5421 6.5599 20.2435 7.67106 19.602C8.13515 19.334 8.75823 19.334 10.0044 19.334H22.0044C23.2505 19.334 23.8736 19.334 24.3377 19.602C25.4489 20.2435 25.3377 21.5421 25.3377 22.6673C25.3377 23.7925 25.4489 25.0912 24.3377 25.7327C23.8736 26.0007 23.2505 26.0007 22.0044 26.0007H10.0044C8.75823 26.0007 8.13515 26.0007 7.67106 25.7327C6.5599 25.0912 6.67106 23.7925 6.67106 22.6673Z" stroke="black" stroke-width="2" stroke-linecap="round" stroke-linejoin="round"/>
<path d="M10.668 9.33398H2.66797M21.3346 9.33398H29.3346" stroke="black" stroke-width="2" stroke-linecap="round" stroke-linejoin="round"/>
</svg>
