<svg width="108" height="108" viewBox="0 0 108 108" fill="none" xmlns="http://www.w3.org/2000/svg">
<path d="M106.5 106.5H93.375C89.894 106.5 86.5556 105.117 84.0942 102.656C81.6328 100.194 80.25 96.856 80.25 93.375V14.625C80.25 11.144 81.6328 7.80564 84.0942 5.34422C86.5556 2.88281 89.894 1.5 93.375 1.5H106.5M1.5 106.5H14.625C18.106 106.5 21.4444 105.117 23.9058 102.656C26.3672 100.194 27.75 96.856 27.75 93.375V14.625C27.75 11.144 26.3672 7.80564 23.9058 5.34422C21.4444 2.88281 18.106 1.5 14.625 1.5H1.5M54 27.75V80.25" stroke="#D44C39" stroke-width="3" stroke-linecap="round" stroke-linejoin="round"/>
</svg>
