<svg width="108" height="108" viewBox="0 0 108 108" fill="none" xmlns="http://www.w3.org/2000/svg">
<path d="M11.7513 96.2487C5.18749 89.685 1.5 80.7826 1.5 71.5C1.5 62.2174 5.18749 53.315 11.7513 46.7513C18.315 40.1875 27.2174 36.5 36.5 36.5C45.7826 36.5 54.685 40.1875 61.2487 46.7513C67.8125 53.315 71.5 62.2174 71.5 71.5C71.5 80.7826 67.8125 89.685 61.2487 96.2487C54.685 102.813 45.7826 106.5 36.5 106.5C27.2174 106.5 18.315 102.813 11.7513 96.2487Z" stroke="#D44C39" stroke-width="3" stroke-linecap="round" stroke-linejoin="round"/>
<path d="M66.9379 88.8542L105.549 17.8392M19.4604 40.91L90.7263 2.22917M24.8329 71.5C24.8329 74.5942 26.0621 77.5616 28.25 79.7496C30.438 81.9375 33.4054 83.1667 36.4996 83.1667C39.5938 83.1667 42.5613 81.9375 44.7492 79.7496C46.9371 77.5616 48.1663 74.5942 48.1663 71.5C48.1663 68.4058 46.9371 65.4383 44.7492 63.2504C42.5613 61.0625 39.5938 59.8333 36.4996 59.8333C33.4054 59.8333 30.438 61.0625 28.25 63.2504C26.0621 65.4383 24.8329 68.4058 24.8329 71.5ZM83.1663 13.1667C83.1663 16.2609 84.3954 19.2283 86.5834 21.4162C88.7713 23.6042 91.7388 24.8333 94.8329 24.8333C97.9271 24.8333 100.895 23.6042 103.083 21.4162C105.27 19.2283 106.5 16.2609 106.5 13.1667C106.5 10.0725 105.27 7.10501 103.083 4.91709C100.895 2.72916 97.9271 1.5 94.8329 1.5C91.7388 1.5 88.7713 2.72916 86.5834 4.91709C84.3954 7.10501 83.1663 10.0725 83.1663 13.1667Z" stroke="#D44C39" stroke-width="3" stroke-linecap="round" stroke-linejoin="round"/>
<path d="M28.2506 79.7493C26.0627 77.5613 24.8335 74.5939 24.8335 71.4997C24.8335 68.4055 26.0627 65.438 28.2506 63.2501C30.4385 61.0622 33.406 59.833 36.5002 59.833C39.5944 59.833 42.5618 61.0622 44.7497 63.2501C46.9377 65.438 48.1668 68.4055 48.1668 71.4997C48.1668 74.5939 46.9377 77.5613 44.7497 79.7493C42.5618 81.9372 39.5944 83.1663 36.5002 83.1663C33.406 83.1663 30.4385 81.9372 28.2506 79.7493Z" stroke="#D44C39" stroke-width="3" stroke-linecap="round" stroke-linejoin="round"/>
</svg>
