<svg width="108" height="108" viewBox="0 0 108 108" fill="none" xmlns="http://www.w3.org/2000/svg">
<path d="M1.5 21.1875V14.625C1.5 11.144 2.88281 7.80564 5.34422 5.34422C7.80564 2.88281 11.144 1.5 14.625 1.5H27.75M1.5 86.8125V93.375C1.5 96.856 2.88281 100.194 5.34422 102.656C7.80564 105.117 11.144 106.5 14.625 106.5H27.75M80.25 1.5H93.375C96.856 1.5 100.194 2.88281 102.656 5.34422C105.117 7.80564 106.5 11.144 106.5 14.625V21.1875M80.25 106.5H93.375C96.856 106.5 100.194 105.117 102.656 102.656C105.117 100.194 106.5 96.856 106.5 93.375V86.8125M40.875 35.4417V72.5583M99.9375 35.4417V72.5583M8.0625 35.4417H14.625V72.5583H8.0625V35.4417ZM67.125 35.4417H73.6875V72.5583H67.125V35.4417Z" stroke="#D44C39" stroke-width="3" stroke-linecap="round" stroke-linejoin="round"/>
</svg>
