<svg width="105" height="105" viewBox="0 0 105 105" fill="none" xmlns="http://www.w3.org/2000/svg">
<path d="M30.2119 2.57234L34.4459 2.97289C35.939 3.11414 37.142 4.22927 37.4031 5.76577L37.403 5.76674L37.5908 7.17251L37.5914 7.17649C37.7987 8.54148 38.6909 9.73857 39.9579 10.4157L39.9578 10.4167C41.3306 11.215 42.7889 11.2433 44.0858 10.5806L45.3175 9.95164C46.6894 9.27647 48.3683 9.63581 49.3641 10.8396L52.144 14.1994C53.1396 15.4033 53.1769 17.1198 52.2565 18.3407L51.4077 19.4326L51.3997 19.4436C50.6221 20.5959 50.3746 22.0244 50.8023 23.405C51.2285 24.7803 52.2398 25.8848 53.5444 26.3452L53.5473 26.3465L54.8939 26.7937L54.8987 26.7951C56.3532 27.2319 57.225 28.7168 57.0827 30.2221L56.6822 34.4561C56.5408 35.9502 55.4245 37.1529 53.8864 37.413L52.4826 37.6009L52.4795 37.6016C51.1142 37.8089 49.9156 38.7006 49.2384 39.968C48.4401 41.3408 48.4118 42.7991 49.0744 44.0959L49.7035 45.3267L49.7034 45.3276C50.3785 46.6994 50.0199 48.3785 48.8164 49.3744L45.4557 52.1542C44.2518 53.1496 42.5352 53.187 41.3144 52.2666L40.2225 51.4178C39.0756 50.5259 37.6414 50.2785 36.2601 50.7065C34.8885 51.1316 33.7874 52.1388 33.3247 53.4383L33.3238 53.4382L32.7706 54.7749L32.7669 54.7833L32.7639 54.7938C32.327 56.2482 30.8423 57.1203 29.3369 56.9779L25.1029 56.5773C23.6077 56.4357 22.4041 55.3167 22.1455 53.7766L22.1446 53.7765L21.9795 52.1718L21.9785 52.1619L21.931 51.9072C21.6569 50.646 20.7961 49.5512 19.6046 48.917C18.2338 48.1225 16.778 48.095 15.4832 48.7567L14.2514 49.3866C12.9652 50.0194 11.4091 49.7431 10.3992 48.7142L10.2048 48.4986L10.2021 48.4954L7.41318 45.2417C6.41977 44.038 6.38278 42.3226 7.30252 41.1026L7.30164 41.1015L8.15229 40.0107C9.04392 38.8641 9.29036 37.4303 8.86253 36.0493C8.43641 34.674 7.42582 33.5696 6.1214 33.1091L6.11761 33.1078L4.77199 32.6597L4.76625 32.6582L4.50046 32.5644C3.20655 32.0359 2.4487 30.6426 2.58223 29.2312L2.98269 24.9981C3.12414 23.5029 4.2425 22.2984 5.78255 22.0397L5.78167 22.0386L7.18142 21.8523C8.5455 21.751 9.74238 20.8532 10.4166 19.5912C11.2149 18.2185 11.2432 16.7602 10.5805 15.4633L9.95053 14.2315L9.9515 14.2316C9.27645 12.8597 9.63479 11.1797 10.8386 10.1839L14.186 7.51367L14.1891 7.512C15.3929 6.51634 17.1096 6.47754 18.3306 7.39764L19.4224 8.24741L19.5452 8.0903L19.4223 8.24838L19.4335 8.25532C20.5857 9.03295 22.0142 9.28051 23.3948 8.85274C24.77 8.42659 25.8745 7.41604 26.335 6.11161L26.3363 6.10781L26.7834 4.7621L26.7849 4.75636C27.2217 3.3019 28.7066 2.4301 30.2119 2.57234ZM54.1083 29.7896L53.9683 29.7342L52.5267 29.1711L52.5239 29.1699C50.3143 28.3366 48.6122 26.5107 47.8881 24.2544L47.8865 24.2503L47.749 23.8067C47.13 21.5824 47.5995 19.3133 48.9431 17.4887L48.9422 17.4877L49.7907 16.3987L49.8878 16.2744L49.7896 16.1514L47.0207 12.6857L46.9224 12.5626L46.7799 12.6286L45.44 13.2493L45.4338 13.2527C43.3618 14.3026 40.7647 14.2651 38.6895 13.1335L38.6867 13.1323L38.2863 12.9061C36.3269 11.7233 35.0234 9.72906 34.7417 7.56118L34.7418 7.56021L34.554 6.15444L34.5342 6.00052L34.38 5.98201L30.05 5.46546L29.8968 5.44704L29.84 5.59175L29.2769 7.0334L29.2757 7.03526C28.4425 9.245 26.6147 10.9466 24.3583 11.6709C22.1412 12.3407 19.749 12.0734 17.9499 10.8723L17.5982 10.6193L16.5045 9.76841L16.3803 9.67132L16.2561 9.77042L12.7905 12.5393L12.6685 12.6367L12.7344 12.7793L13.3551 14.12L13.3584 14.1262C14.4081 16.1982 14.3708 18.7945 13.2394 20.8696L13.2381 20.8724C12.0949 23.0543 9.97867 24.517 7.66604 24.8173L6.26027 25.0051L6.10627 25.0259L6.08775 25.1801L5.5713 29.5091L5.55278 29.6633L5.69661 29.7191L7.13914 30.2832L7.14109 30.2834C9.35083 31.1166 11.0526 32.9435 11.7768 35.1999L11.7784 35.2039C12.5945 37.5693 12.1434 40.1242 10.7252 41.961L9.87416 43.0556L9.77706 43.1798L9.87626 43.303L12.6452 46.7686L12.7425 46.8906L12.885 46.8256L14.2249 46.204L14.2258 46.205L14.2321 46.2007C15.4256 45.5908 16.792 45.4071 18.1384 45.5344C19.1677 45.6318 20.0737 45.9243 20.9626 46.4245L20.9682 46.4279C23.15 47.5712 24.6128 49.6864 24.9131 51.999L24.9142 52.009L24.9172 52.0181L25.2199 53.3288L25.2521 53.4652L25.3908 53.4823L29.7209 53.9978L29.8741 54.0163L29.9309 53.8725L30.494 52.4309L30.4949 52.431L30.4979 52.4205C31.2256 50.2081 33.0475 48.5068 35.3047 47.7822L35.3097 47.7817C37.5257 47.0171 39.8188 47.3545 41.7004 48.5805L42.0714 48.8373L43.1614 49.685L43.2856 49.7821L43.4087 49.6838L46.8744 46.9149L46.9965 46.8166L46.9305 46.674L46.3098 45.3342L46.3074 45.3281L46.1231 44.933C45.2664 42.9329 45.3648 40.5291 46.4256 38.5837L46.4278 38.5809C47.5711 36.3993 49.6864 34.9363 51.9989 34.6359L51.9988 34.6369L52.0099 34.634L53.5316 34.3513L53.6793 34.3241L54.1083 29.7896Z" fill="#D34C39" stroke="white" stroke-width="0.4"/>
<path d="M30.9782 17.0615C37.9595 17.7221 43.1496 23.9966 42.4892 30.978C41.8285 37.9603 35.6587 43.1592 28.5727 42.489C21.5913 41.8286 16.4014 35.5539 17.0617 28.5725C17.7221 21.5911 23.9967 16.4011 30.9782 17.0615ZM30.6854 20.1561C25.3892 19.6551 20.6573 23.569 20.1563 28.8653C19.6554 34.1614 23.5693 38.8934 28.8654 39.3944C34.2688 39.9055 38.8936 35.9798 39.3946 30.6853C39.8956 25.3891 35.9815 20.6573 30.6854 20.1561Z" fill="#D34C39" stroke="white" stroke-width="0.4"/>
<path d="M54.3721 55.3685L58.0762 55.7189C59.4768 55.8515 60.6746 56.871 60.8411 58.2738L60.841 58.2748L60.9528 59.3536L60.955 59.3715C61.1833 60.5148 61.8789 61.4828 62.8442 62.0261L62.8508 62.0296C63.8589 62.5478 64.9165 62.5738 65.9133 62.1948L66.1122 62.1135L66.1183 62.1112L67.2333 61.5761L67.2341 61.5772C68.4918 60.9946 70.0676 61.344 70.968 62.4326L73.2681 65.2134L73.2744 65.2199C74.2649 66.3076 74.2225 67.9035 73.4094 69.0386L72.6744 70.0373L72.671 70.0429C72.0229 70.9872 71.7895 72.2025 72.1419 73.2612L72.1418 73.2622C72.481 74.4147 73.2991 75.2872 74.4011 75.6232L74.401 75.6242L75.5329 76.05L75.5329 76.051C76.8011 76.5468 77.5769 77.6986 77.626 79.184L77.626 79.4851L77.2766 83.1776C77.1439 84.5792 76.1223 85.777 74.7178 85.9421L74.7168 85.942L74.7068 85.944L73.512 86.1517L73.5071 86.1522C72.3729 86.3787 71.4072 86.9639 70.8499 88.0481C70.2973 89.1232 70.3037 90.2546 70.7651 91.3085L70.7685 91.3147L71.3032 92.4335C71.8842 93.6908 71.5348 95.2654 70.4469 96.1653L67.6662 98.4644L67.6587 98.4716C66.6383 99.4006 65.1708 99.4209 64.056 98.7487L63.8381 98.6055L62.8413 97.8716L62.8358 97.8672C61.8871 97.2164 60.7771 96.9978 59.6173 97.3391C58.4646 97.6783 57.5913 98.4961 57.2554 99.5983L56.8274 100.732L56.8247 100.74C56.4082 101.992 55.0232 102.869 53.6282 102.737L49.924 102.387C48.5325 102.255 47.3347 101.137 47.1685 99.7231L46.9702 99.7456L47.1686 99.7221L47.1666 99.7121L46.9598 98.5174L46.9584 98.5124C46.73 97.3692 46.0351 96.4021 45.07 95.8589L45.0635 95.8553L44.8608 95.7577C43.8467 95.3047 42.7902 95.3378 41.8021 95.7704L41.7959 95.7738L40.6791 96.3077C39.4217 96.8899 37.8466 96.5404 36.9462 95.4523L34.6461 92.6716C33.7462 91.5836 33.6974 89.9713 34.5039 88.8453L35.2389 87.8466L35.2399 87.8467L35.2434 87.8411C35.8522 86.9536 36.0953 85.8267 35.8297 84.8155L35.7702 84.6156C35.4297 83.4662 34.6124 82.5959 33.5122 82.2607L32.3785 81.8327L32.3709 81.83L32.141 81.7415C31.0132 81.2412 30.2494 79.9414 30.3731 78.6335L30.7235 74.9293C30.8478 73.615 31.7531 72.4787 33.0234 72.2061L33.2824 72.1639L33.2934 72.162L34.4872 71.9542L34.4871 71.9551L34.4922 71.9536C35.6355 71.7253 36.6034 71.0306 37.1467 70.0654L37.1502 70.0588C37.703 68.9835 37.6957 67.8514 37.2341 66.7974L37.2308 66.7912L36.6961 65.6724C36.1153 64.4151 36.4655 62.8414 37.5532 61.9416L40.334 59.6415C41.4217 58.7419 43.0334 58.6922 44.1594 59.4982L44.1593 59.4992L45.158 60.2342L45.1579 60.2352L45.1635 60.2386C46.11 60.8881 47.3286 61.1204 48.389 60.7645C49.5385 60.424 50.4097 59.6078 50.7449 58.5076L51.1719 57.3738L51.1746 57.3662C51.591 56.1143 52.977 55.2365 54.3721 55.3685ZM74.5596 78.8939L74.3814 78.8594L73.3501 78.6559C71.3499 77.9459 69.8461 76.3554 69.2091 74.3267C68.5702 72.2914 68.8901 70.0435 70.1787 68.4122L70.1831 68.4067L70.9182 67.4081L71.0127 67.2797L70.9084 67.159L68.5992 64.4843L68.4878 64.356L68.3431 64.4443L67.4436 64.9939C65.6012 65.8507 63.3252 65.8403 61.4562 64.8365C59.5793 63.8286 58.2969 62.0482 57.9776 59.9452L57.977 59.9412L57.7702 58.7465L57.7427 58.5909L57.5858 58.5809L54.0825 58.3564L53.9081 58.3448L53.8741 58.5172L53.6706 59.5485C52.9607 61.5489 51.3702 63.0535 49.3413 63.6904C47.3132 64.3271 45.0704 63.9081 43.4205 62.7154L43.4215 62.7155L42.4228 61.9805L42.2944 61.8859L42.1737 61.9902L39.4989 64.3004L39.3708 64.4108L39.459 64.5565L40.0087 65.4541C40.866 67.2965 40.855 69.5731 39.8513 71.4424C38.8433 73.3192 37.0629 74.6017 34.9599 74.921L34.9559 74.9216L33.7611 75.1294L33.6006 75.1574L33.595 75.3197L33.4865 78.7269L33.4812 78.8971L33.6478 78.9295L34.6792 79.1321C36.6796 79.842 38.1842 81.4325 38.8212 83.4613C39.4602 85.4968 39.1394 87.7453 37.8506 89.3767L37.8461 89.3822L37.1112 90.3799L37.0166 90.5092L37.1209 90.6299L39.431 93.3047L39.5593 93.4522L39.7093 93.3281L40.5012 92.6722C41.5796 92.1612 42.7304 91.964 43.9571 92.08C44.8753 92.1669 45.676 92.4474 46.4762 92.8363L46.4771 92.8364C48.354 93.8443 49.6365 95.6247 49.9557 97.7277L49.9563 97.7317L50.1641 98.9265L50.1906 99.0811L50.3485 99.0921L53.8508 99.3165L54.0263 99.3272L54.0603 99.1548L54.2628 98.1234C54.9728 96.1233 56.5634 94.6194 58.592 93.9825C60.6204 93.3456 62.8638 93.7646 64.5138 94.9576L64.5139 94.9566L65.5105 95.6924L65.6389 95.787L65.7606 95.6828L68.4344 93.3726L68.5636 93.2612L68.4743 93.1164L67.9272 92.222C67.0682 90.3788 67.0785 88.1002 68.0831 86.2296C69.091 84.3531 70.8708 83.0703 72.9735 82.7509L74.0433 82.6412L74.2067 82.6243L74.5596 78.8939Z" fill="#D34C39" stroke="white" stroke-width="0.4"/>
<path d="M54.8889 69.0868C60.2826 69.597 64.227 74.365 63.717 79.7586C63.2067 85.1525 58.438 89.0969 53.0441 88.5866C47.6505 88.0761 43.7069 83.3076 44.2171 77.9139C44.7276 72.5204 49.4954 68.5768 54.8889 69.0868ZM54.6061 72.0754C50.8979 71.7248 47.5568 74.4884 47.2057 78.1966C46.8549 81.9051 49.6185 85.2469 53.3269 85.598C57.0355 85.9489 60.3775 83.1845 60.7284 79.4759C61.0789 75.7675 58.3146 72.4262 54.6061 72.0754Z" fill="#D34C39" stroke="white" stroke-width="0.4"/>
<path d="M82.9414 20.9091L86.0107 21.1995C87.2972 21.3212 88.3984 22.3245 88.5742 23.6324L88.5741 23.6333L88.6959 24.6062L88.6977 24.6181C88.8403 25.3842 89.2923 26.0807 89.9794 26.509L90.1198 26.5909L90.1283 26.5946C90.9771 27.0079 91.893 27.109 92.6434 26.708L92.6443 26.7091L93.5412 26.2593L93.5404 26.2583C94.7987 25.6783 96.1601 26.0127 96.962 26.9822L98.8783 29.2989C99.6793 30.3849 99.734 31.783 98.9479 32.7937L98.9468 32.7945L98.3369 33.5912L98.3313 33.5985L98.3266 33.6069C97.9243 34.2515 97.721 35.1487 97.9897 35.9862C98.2397 36.7653 98.809 37.3713 99.5173 37.6933L99.6607 37.7539L99.6721 37.758L100.602 38.0588C101.865 38.5876 102.635 39.765 102.525 40.9284L102.234 43.9977C102.111 45.3 101.232 46.2599 100.041 46.5191L99.7985 46.5619L98.8277 46.683L98.8521 46.8814L98.8268 46.6829L98.8158 46.6848C97.9986 46.8368 97.2607 47.3416 96.8429 48.1078L96.8383 48.1152C96.4251 48.9639 96.3243 49.88 96.7249 50.6304L96.7248 50.6314L97.1713 51.5211L97.1712 51.5221C97.7548 52.7819 97.4227 54.1459 96.4517 54.949L94.1424 56.8592C93.0554 57.6657 91.6534 57.7229 90.6402 56.9349L90.6394 56.9339L89.8427 56.3239L89.8354 56.3183L89.827 56.3136L89.5735 56.1729C88.9584 55.8681 88.1796 55.7414 87.4468 55.9766C86.616 56.2433 85.9825 56.8736 85.68 57.6477L85.6759 57.6591L85.3768 58.5813C84.8512 59.8441 83.6748 60.6224 82.3995 60.5018L79.3302 60.2115C78.0279 60.0883 77.068 59.2095 76.8088 58.0179L76.766 57.7755L76.645 56.8047L76.6432 56.7928L76.6105 56.6406C76.4393 55.9351 76.0028 55.3017 75.3614 54.902L75.2201 54.8199L75.2127 54.8153L74.8905 54.675C74.1365 54.3845 73.353 54.3511 72.6966 54.7018L71.8048 55.1491C70.5451 55.7323 69.1819 55.3995 68.3789 54.4288L66.4626 52.112C65.6637 51.029 65.6069 49.6355 66.3863 48.6254L66.9654 48.0515L66.9817 48.0353L66.9943 48.0159C67.3966 47.3713 67.5991 46.4732 67.3303 45.6356C67.0741 44.7007 66.4455 44.066 65.6702 43.763L65.6588 43.7589L64.7376 43.4599C63.4742 42.9345 62.6954 41.7581 62.8161 40.4825L63.1064 37.4132C63.2379 36.024 64.2289 35.0241 65.5424 34.849L65.5415 34.8479L66.5132 34.728L66.5251 34.7262C67.2911 34.5836 67.9876 34.1315 68.4159 33.4444L68.498 33.3031L68.5016 33.2956C68.9191 32.4382 69.0023 31.6335 68.6193 30.7867L68.6161 30.7796L68.1663 29.8826L68.1654 29.8816L68.0665 29.6623C67.6239 28.5525 67.9769 27.2164 68.8892 26.4619L71.2059 24.5456C72.2919 23.7445 73.6899 23.6898 74.7007 24.476L74.7015 24.477L75.4982 25.087L75.5055 25.0926L75.5139 25.0973C76.1585 25.4996 77.0557 25.7028 77.8931 25.4342C78.6722 25.1842 79.2783 24.6148 79.6003 23.9066L79.6609 23.7632L79.6649 23.7518L79.9668 22.821C80.4941 21.5631 81.6688 20.7887 82.9414 20.9091ZM99.598 41.1224L99.4344 41.0785L98.8153 40.914C97.1271 40.3417 95.8198 38.8806 95.2566 37.1705L95.2541 37.1654L95.1441 36.8244C94.6533 35.1159 95.0549 33.3419 96.0553 31.9835L96.4233 31.4846L96.5156 31.359L96.4162 31.2378L94.8827 29.3849L94.7832 29.2647L94.6425 29.3318L94.0827 29.5986L94.0796 29.6003C92.3456 30.4686 90.3947 30.3866 88.8287 29.5175C87.2531 28.6429 86.0617 27.0824 85.8175 25.3148L85.7726 24.6808L85.7611 24.512L83.0952 24.2598L83.0513 24.4234L82.8882 25.0377C82.3174 26.7266 80.8572 28.0353 79.1475 28.5996C77.3415 29.1509 75.4156 28.7627 73.9664 27.6955L73.4666 27.3285L73.3409 27.2362L73.2206 27.3356L71.3669 28.868L71.2466 28.9685L71.3147 29.1093L71.5816 29.6682L71.5832 29.6713C72.4516 31.4054 72.3697 33.357 71.5003 34.9231L71.4994 34.9231L71.4955 34.9325C70.7312 36.5024 69.0739 37.6865 67.3008 37.9326L66.6638 37.9783L66.4939 37.9906L66.2417 40.6565L66.4063 40.6995L67.0178 40.8614L67.0177 40.8623C68.7077 41.4325 70.0179 42.893 70.5826 44.6034L70.5825 44.6043C71.1337 46.4102 70.7456 48.3363 69.6784 49.7854L69.3114 50.2843L69.2182 50.4099L70.9505 52.5042L71.0912 52.4371L71.6512 52.1693L71.6594 52.1652C73.2814 51.2923 75.232 51.3688 76.9098 52.2528L76.9097 52.2538L76.9154 52.2563C78.4844 53.0203 79.668 54.6759 79.9148 56.448L79.9612 57.0881L79.9736 57.257L82.6395 57.5092L82.6824 57.3455L82.847 56.7254C83.4195 55.0375 84.8814 53.7307 86.5913 53.1677L86.5964 53.1653C88.407 52.5137 90.3285 52.8996 91.7774 53.9664L92.2772 54.3344L92.4029 54.4267L94.4972 52.6944L94.4301 52.5537L94.1622 51.9947C93.393 50.2597 93.3795 48.2979 94.2444 46.7398C95.1192 45.1638 96.6799 43.9714 98.4481 43.7278L99.0633 43.685L99.353 43.7124L99.598 41.1224Z" fill="#D34C39" stroke="white" stroke-width="0.4"/>
<path d="M83.3964 33.0184C87.6259 33.4185 90.7072 37.1439 90.3072 41.3734C89.9071 45.603 86.1818 48.6843 81.9522 48.2842C77.7227 47.884 74.6412 44.1587 75.0414 39.9292C75.4416 35.6997 79.1669 32.6183 83.3964 33.0184ZM83.1136 36.007C80.5694 35.7664 78.2707 37.6677 78.03 40.2119C77.7893 42.7562 79.6906 45.0548 82.2349 45.2956C84.7793 45.5363 87.0779 43.635 87.3186 41.0907C87.5592 38.5464 85.6579 36.2477 83.1136 36.007Z" fill="#D34C39" stroke="white" stroke-width="0.4"/>
</svg>
