<svg width="109" height="108" viewBox="0 0 109 108" fill="none" xmlns="http://www.w3.org/2000/svg">
<path d="M106.693 47.4253C105.085 35.8564 99.7175 25.1371 91.418 16.9184C83.1186 8.69974 72.3473 3.4376 60.7632 1.94248C50.4183 0.600615 39.9072 2.32648 30.5346 6.90583C21.1621 11.4852 13.3408 18.7163 8.04169 27.7016M1.5 60.5745C3.02099 71.5219 7.91047 81.7248 15.4905 89.7685C23.0705 97.8122 32.9655 103.298 43.8034 105.466C54.6413 107.633 65.8851 106.375 75.9758 101.866C86.0664 97.356 94.504 89.8185 100.119 80.2982" stroke="#D44C39" stroke-width="3" stroke-linecap="round" stroke-linejoin="round"/>
<path d="M40.149 67.9468C36.4501 64.2479 34.3721 59.2311 34.3721 54.0001C34.3721 48.769 36.4501 43.7522 40.149 40.0533C43.8479 36.3544 48.8647 34.2764 54.0958 34.2764C59.3268 34.2764 64.3436 36.3544 68.0425 40.0533C71.7415 43.7522 73.8195 48.769 73.8195 54.0001C73.8195 59.2311 71.7415 64.2479 68.0425 67.9468C64.3436 71.6458 59.3268 73.7238 54.0958 73.7238C48.8647 73.7238 43.8479 71.6458 40.149 67.9468Z" stroke="#D44C39" stroke-width="3" stroke-linecap="round" stroke-linejoin="round"/>
<path d="M95.4696 84.947C94.2366 83.714 93.544 82.0418 93.544 80.2981C93.544 78.5544 94.2366 76.8821 95.4696 75.6491C96.7026 74.4162 98.3748 73.7235 100.119 73.7235C101.862 73.7235 103.534 74.4162 104.767 75.6491C106 76.8821 106.693 78.5544 106.693 80.2981C106.693 82.0418 106 83.714 104.767 84.947C103.534 86.18 101.862 86.8726 100.119 86.8726C98.3748 86.8726 96.7026 86.18 95.4696 84.947Z" fill="#D44C39"/>
<path d="M3.42565 32.3504C2.19268 31.1175 1.5 29.4452 1.5 27.7015C1.5 25.9578 2.19268 24.2856 3.42565 23.0526C4.65862 21.8196 6.33088 21.127 8.07457 21.127C9.81825 21.127 11.4905 21.8196 12.7235 23.0526C13.9565 24.2856 14.6491 25.9578 14.6491 27.7015C14.6491 29.4452 13.9565 31.1175 12.7235 32.3504C11.4905 33.5834 9.81825 34.2761 8.07457 34.2761C6.33088 34.2761 4.65862 33.5834 3.42565 32.3504Z" fill="#D44C39"/>
<path d="M95.4696 84.947C94.2366 83.714 93.544 82.0418 93.544 80.2981C93.544 78.5544 94.2366 76.8821 95.4696 75.6491C96.7026 74.4162 98.3748 73.7235 100.119 73.7235C101.862 73.7235 103.534 74.4162 104.767 75.6491C106 76.8821 106.693 78.5544 106.693 80.2981C106.693 82.0418 106 83.714 104.767 84.947C103.534 86.18 101.862 86.8726 100.119 86.8726C98.3748 86.8726 96.7026 86.18 95.4696 84.947Z" stroke="#D44C39" stroke-width="3" stroke-linecap="round" stroke-linejoin="round"/>
<path d="M3.42565 32.3504C2.19268 31.1175 1.5 29.4452 1.5 27.7015C1.5 25.9578 2.19268 24.2856 3.42565 23.0526C4.65862 21.8196 6.33088 21.127 8.07457 21.127C9.81825 21.127 11.4905 21.8196 12.7235 23.0526C13.9565 24.2856 14.6491 25.9578 14.6491 27.7015C14.6491 29.4452 13.9565 31.1175 12.7235 32.3504C11.4905 33.5834 9.81825 34.2761 8.07457 34.2761C6.33088 34.2761 4.65862 33.5834 3.42565 32.3504Z" stroke="#D44C39" stroke-width="3" stroke-linecap="round" stroke-linejoin="round"/>
</svg>
