<svg width="108" height="108" viewBox="0 0 108 108" fill="none" xmlns="http://www.w3.org/2000/svg">
<path d="M13.167 19.0003C13.167 17.4532 13.7816 15.9695 14.8755 14.8755C15.9695 13.7816 17.4532 13.167 19.0003 13.167H89.0003C90.5474 13.167 92.0312 13.7816 93.1251 14.8755C94.2191 15.9695 94.8337 17.4532 94.8337 19.0003V89.0003C94.8337 90.5474 94.2191 92.0312 93.1251 93.1251C92.0312 94.2191 90.5474 94.8337 89.0003 94.8337H19.0003C17.4532 94.8337 15.9695 94.2191 14.8755 93.1251C13.7816 92.0312 13.167 90.5474 13.167 89.0003V19.0003Z" stroke="#D44C39" stroke-width="3" stroke-linecap="round" stroke-linejoin="round"/>
<path d="M1.5 42.3333H13.1667M1.5 65.6667H13.1667M42.3333 1.5V13.1667M65.6667 1.5V13.1667M106.5 42.3333H94.8333M106.5 65.6667H94.8333M65.6667 106.5V94.8333M42.3333 106.5V94.8333M36.5 36.5H71.5V71.5H36.5V36.5Z" stroke="#D44C39" stroke-width="3" stroke-linecap="round" stroke-linejoin="round"/>
</svg>
