<svg width="120" height="108" viewBox="0 0 120 108" fill="none" xmlns="http://www.w3.org/2000/svg">
<path d="M32.2895 32.3824H81.5526M32.2895 57.0882H69.2368M56.9211 106.5L50.7632 100.324L38.4474 87.9706H19.9737C15.0742 87.9706 10.3753 86.0184 6.91082 82.5435C3.44633 79.0685 1.5 74.3555 1.5 69.4412V20.0294C1.5 15.1151 3.44633 10.4021 6.91082 6.92714C10.3753 3.4522 15.0742 1.5 19.9737 1.5H93.8684C98.7679 1.5 103.467 3.4522 106.931 6.92714C110.396 10.4021 112.342 15.1151 112.342 20.0294V57.0882M106.184 106.5L118.5 94.1471L106.184 81.7941M87.7105 81.7941L75.3947 94.1471L87.7105 106.5" stroke="#D44C39" stroke-width="3" stroke-linecap="round" stroke-linejoin="round"/>
</svg>
