<svg width="108" height="108" viewBox="0 0 108 108" fill="none" xmlns="http://www.w3.org/2000/svg">
<path d="M1.5 1.5V106.5H106.5" stroke="#D44C39" stroke-width="3" stroke-linecap="round" stroke-linejoin="round"/>
<path d="M106.5 1.5L71.4997 10.25M66.3255 22.7917L82.4897 44.3458M77.333 56.9167L48.1663 68.5833M24.833 71.5C24.833 74.5942 26.0622 77.5616 28.2501 79.7496C30.438 81.9375 33.4055 83.1667 36.4997 83.1667C39.5939 83.1667 42.5613 81.9375 44.7493 79.7496C46.9372 77.5616 48.1663 74.5942 48.1663 71.5C48.1663 68.4058 46.9372 65.4383 44.7493 63.2504C42.5613 61.0625 39.5939 59.8333 36.4997 59.8333C33.4055 59.8333 30.438 61.0625 28.2501 63.2504C26.0622 65.4383 24.833 68.4058 24.833 71.5ZM48.1663 13.1667C48.1663 16.2609 49.3955 19.2283 51.5834 21.4162C53.7714 23.6042 56.7388 24.8333 59.833 24.8333C62.9272 24.8333 65.8947 23.6042 68.0826 21.4162C70.2705 19.2283 71.4997 16.2609 71.4997 13.1667C71.4997 10.0725 70.2705 7.10501 68.0826 4.91709C65.8947 2.72916 62.9272 1.5 59.833 1.5C56.7388 1.5 53.7714 2.72916 51.5834 4.91709C49.3955 7.10501 48.1663 10.0725 48.1663 13.1667ZM77.333 54C77.333 57.0942 78.5622 60.0616 80.7501 62.2496C82.938 64.4375 85.9055 65.6667 88.9997 65.6667C92.0939 65.6667 95.0613 64.4375 97.2492 62.2496C99.4372 60.0616 100.666 57.0942 100.666 54C100.666 50.9058 99.4372 47.9383 97.2492 45.7504C95.0613 43.5625 92.0939 42.3333 88.9997 42.3333C85.9055 42.3333 82.938 43.5625 80.7501 45.7504C78.5622 47.9383 77.333 50.9058 77.333 54Z" stroke="#D44C39" stroke-width="3" stroke-linecap="round" stroke-linejoin="round"/>
</svg>
