<svg width="40" height="40" viewBox="0 0 40 40" fill="none" xmlns="http://www.w3.org/2000/svg">
<path d="M20.0013 19.1666C20.8271 19.1666 21.595 18.8358 23.1305 18.1741L24.2385 17.6966C26.9693 16.52 28.3346 15.9316 28.3346 14.9999C28.3346 14.0682 26.9693 13.4799 24.2385 12.3032L23.1305 11.8257C21.595 11.1641 20.8271 10.8333 20.0013 10.8333C19.1755 10.8333 18.4076 11.1641 16.8721 11.8257L15.7641 12.3032C13.0334 13.4799 11.668 14.0682 11.668 14.9999C11.668 15.9316 13.0334 16.52 15.7641 17.6966L16.8721 18.1741C18.4076 18.8358 19.1755 19.1666 20.0013 19.1666ZM20.0013 19.1666V29.1666" stroke="white" stroke-width="3" stroke-linejoin="round"/>
<path d="M28.3346 15V25C28.3346 25.9317 26.9693 26.52 24.2385 27.6967L23.1305 28.1742C21.595 28.8358 20.8271 29.1667 20.0013 29.1667C19.1755 29.1667 18.4076 28.8358 16.8721 28.1742L15.7641 27.6967C13.0334 26.52 11.668 25.9317 11.668 25V15" stroke="white" stroke-width="3" stroke-linejoin="round"/>
<path d="M15.2417 4.16675C10.8134 4.268 8.22679 4.69101 6.45952 6.4583C4.69224 8.22556 4.26922 10.8121 4.16797 15.2405M24.7608 4.16675C29.1893 4.268 31.7758 4.69101 33.5431 6.4583C35.3103 8.22556 35.7333 10.8121 35.8346 15.2405M24.7608 35.8334C29.1893 35.7321 31.7758 35.3091 33.5431 33.5419C35.3103 31.7746 35.7333 29.1881 35.8346 24.7596M15.2417 35.8334C10.8134 35.7321 8.22679 35.3091 6.45952 33.5419C4.69224 31.7746 4.26922 29.1881 4.16797 24.7596" stroke="white" stroke-width="3" stroke-linecap="round" stroke-linejoin="round"/>
</svg>
