<svg width="40" height="40" viewBox="0 0 40 40" fill="none" xmlns="http://www.w3.org/2000/svg">
<path d="M10.1503 24.9988C9.51959 23.5812 9.16797 22.004 9.16797 20.342C9.16797 14.1694 14.0182 9.16553 20.0013 9.16553C25.9845 9.16553 30.8346 14.1694 30.8346 20.342C30.8346 22.004 30.483 23.5812 29.8523 24.9988" stroke="white" stroke-width="3" stroke-linecap="round"/>
<path d="M20 3.33203V4.9987" stroke="white" stroke-width="3" stroke-linecap="round" stroke-linejoin="round"/>
<path d="M36.6667 19.9985H35" stroke="white" stroke-width="3" stroke-linecap="round" stroke-linejoin="round"/>
<path d="M4.9987 19.9985H3.33203" stroke="white" stroke-width="3" stroke-linecap="round" stroke-linejoin="round"/>
<path d="M31.784 8.21338L30.6055 9.3919" stroke="white" stroke-width="3" stroke-linecap="round" stroke-linejoin="round"/>
<path d="M9.39336 9.39336L8.21484 8.21484" stroke="white" stroke-width="3" stroke-linecap="round" stroke-linejoin="round"/>
<path d="M24.1939 32.176C25.8779 31.6314 26.5532 30.09 26.7432 28.5397C26.7999 28.0765 26.4189 27.6924 25.9522 27.6924L14.127 27.6927C13.6443 27.6927 13.2567 28.1024 13.3143 28.5815C13.5004 30.1289 13.97 31.2592 15.7546 32.176M24.1939 32.176C24.1939 32.176 16.0484 32.176 15.7546 32.176M24.1939 32.176C23.9914 35.4177 23.0552 36.7015 20.0102 36.6655C16.7532 36.7257 16.0039 35.1389 15.7546 32.176" stroke="white" stroke-width="3" stroke-linecap="round" stroke-linejoin="round"/>
</svg>
