<svg width="40" height="40" viewBox="0 0 40 40" fill="none" xmlns="http://www.w3.org/2000/svg">
<path d="M10 10.8335C10 6.69136 13.3579 3.3335 17.5 3.3335C21.6421 3.3335 25 6.69136 25 10.8335M20 18.8891V10.3335C20 9.22893 19.1046 8.3335 18.0001 8.3335C17.6667 8.3335 17.3334 8.3335 17 8.3335C15.8955 8.3335 15 9.22893 15 10.3335V26.5688L11.5443 24.3328C10.6713 23.7679 9.51108 23.9662 8.87528 24.789L8.51434 25.2561C7.92612 26.0173 7.96319 27.0895 8.60257 27.8083L15 35.0002H28.3334C28.6536 32.1178 29.2808 26.839 29.6678 23.6026C29.8546 22.0407 28.8042 20.601 27.2601 20.3007L20 18.8891Z" stroke="white" stroke-width="3" stroke-linecap="round" stroke-linejoin="round"/>
</svg>
