<svg width="40" height="40" viewBox="0 0 40 40" fill="none" xmlns="http://www.w3.org/2000/svg">
<path d="M11.668 15.8335C13.0487 15.8335 14.168 14.7142 14.168 13.3335C14.168 11.9528 13.0487 10.8335 11.668 10.8335C10.2873 10.8335 9.16797 11.9528 9.16797 13.3335C9.16797 14.7142 10.2873 15.8335 11.668 15.8335Z" stroke="white" stroke-width="3" stroke-linecap="round" stroke-linejoin="round"/>
<path d="M34.9949 18.3333C34.9987 19.1168 34.9987 19.9488 34.9987 20.8333C34.9987 28.2972 34.9987 32.0292 32.68 34.348C30.3612 36.6667 26.6292 36.6667 19.1654 36.6667C11.7015 36.6667 7.96951 36.6667 5.65076 34.348C3.33203 32.0292 3.33203 28.2972 3.33203 20.8333C3.33203 13.3694 3.33203 9.63748 5.65076 7.31873C7.96951 5 11.7015 5 19.1654 5C20.0499 5 20.8819 5 21.6654 5.00385" stroke="white" stroke-width="3" stroke-linecap="round"/>
<path d="M30.8333 3.3335L31.2632 4.49521C31.8268 6.01853 32.1087 6.7802 32.6643 7.33581C33.22 7.89145 33.9817 8.17328 35.505 8.73696L36.6667 9.16683L35.505 9.5967C33.9817 10.1604 33.22 10.4422 32.6643 10.9978C32.1087 11.5535 31.8268 12.3151 31.2632 13.8384L30.8333 15.0002L30.4035 13.8384C29.8398 12.3151 29.558 11.5535 29.0023 10.9978C28.4467 10.4422 27.685 10.1604 26.1617 9.5967L25 9.16683L26.1617 8.73696C27.685 8.17328 28.4467 7.89145 29.0023 7.33581C29.558 6.7802 29.8398 6.01853 30.4035 4.49521L30.8333 3.3335Z" stroke="white" stroke-width="3" stroke-linejoin="round"/>
<path d="M7.5 35.8333C14.7874 27.1251 22.9568 15.6401 34.9958 23.4041" stroke="white" stroke-width="3"/>
</svg>
