<svg width="40" height="40" viewBox="0 0 40 40" fill="none" xmlns="http://www.w3.org/2000/svg">
<path fill-rule="evenodd" clip-rule="evenodd" d="M30 12V9H33H36V12V15H33V12H30ZM36 18V15H39V18V21V24V27V30V33H36V30V27V24V21V18ZM33 36V33H36V36H33ZM33 39H30H27H24H21H18H15V36H18H21H24H27H30H33V39ZM15 36H12H9V33V30H12V33H15V36Z" fill="white"/>
<path d="M3.33203 16.6666C3.33203 10.3812 3.33203 7.2385 5.28465 5.28587C7.23728 3.33325 10.38 3.33325 16.6654 3.33325C22.9507 3.33325 26.0935 3.33325 28.046 5.28587C29.9987 7.2385 29.9987 10.3812 29.9987 16.6666C29.9987 22.9519 29.9987 26.0948 28.046 28.0473C26.0935 29.9999 22.9507 29.9999 16.6654 29.9999C10.38 29.9999 7.23728 29.9999 5.28465 28.0473C3.33203 26.0948 3.33203 22.9519 3.33203 16.6666Z" stroke="white" stroke-width="3"/>
<path d="M3.33203 18.5308C4.36373 18.3996 5.40676 18.335 6.45155 18.3371C10.8714 18.2555 15.1831 19.4605 18.6172 21.7373C21.802 23.849 24.0399 26.755 24.9987 30" stroke="white" stroke-width="3" stroke-linejoin="round"/>
<path d="M21.668 11.6667H21.683" stroke="white" stroke-width="3" stroke-linecap="round" stroke-linejoin="round"/>
</svg>
