<svg width="127" height="108" viewBox="0 0 127 108" fill="none" xmlns="http://www.w3.org/2000/svg">
<path d="M38.7 1.5V38.5588H1.5M38.7 38.5588L1.5 1.5M119.3 38.5588V20.0294C119.3 16.7532 117.994 13.6112 115.668 11.2946C113.343 8.97794 110.189 7.67647 106.9 7.67647H63.5M7.7 63.2647V75.6176C7.7 78.8939 9.00642 82.0359 11.3319 84.3525C13.6573 86.6691 16.8113 87.9706 20.1 87.9706H38.7M69.7 63.2647H119.3C122.724 63.2647 125.5 66.03 125.5 69.4412V100.324C125.5 103.735 122.724 106.5 119.3 106.5H69.7C66.2758 106.5 63.5 103.735 63.5 100.324V69.4412C63.5 66.03 66.2758 63.2647 69.7 63.2647Z" stroke="#D34C39" stroke-width="3" stroke-linecap="round" stroke-linejoin="round"/>
</svg>
