<svg width="118" height="108" viewBox="0 0 118 108" fill="none" xmlns="http://www.w3.org/2000/svg">
<path d="M4.00596 32.8955C2.56819 32.1384 2.58542 30.0737 4.03563 29.3408L58.6988 1.71498C59.2688 1.42691 59.9421 1.42839 60.5108 1.71894L114.566 29.335C116.009 30.0724 116.022 32.1306 114.588 32.8857L60.2161 61.5098C59.6329 61.8169 58.9358 61.8169 58.3526 61.5098L4.00596 32.8955Z" stroke="#D44C39" stroke-width="3" stroke-miterlimit="10"/>
<path d="M2 30.6665L2 74.6665" stroke="#D34C39" stroke-width="3" stroke-linecap="round"/>
<path d="M116 31.6665V74.6665" stroke="#D34C39" stroke-width="3" stroke-linecap="round"/>
<path d="M59 62.8713V105.871" stroke="#D34C39" stroke-width="3" stroke-linecap="round"/>
<path d="M76.0182 54.6665L114.519 74.048C115.974 74.7803 115.99 76.8516 114.547 77.6065L59.9236 106.182C59.3429 106.485 58.6501 106.485 58.0694 106.181L3.53316 77.6487C2.0749 76.8857 2.11087 74.7863 3.5944 74.0738L44 54.6665" stroke="#D44C39" stroke-width="3" stroke-miterlimit="10" stroke-linecap="round" stroke-linejoin="round"/>
<path d="M53.5989 30.1814C56.3338 30.6422 59.2951 29.9889 60.2261 28.7231C61.1572 27.4573 59.6895 26.0631 56.9545 25.6023C54.2196 25.1415 51.2583 25.7948 50.3273 27.0606C49.3962 28.3264 50.8639 29.7206 53.5989 30.1814Z" fill="#D44C39"/>
<path d="M49.8162 35.3379C52.5511 35.7987 55.5124 35.1454 56.4434 33.8796C57.3745 32.6138 55.9068 31.2196 53.1718 30.7588C50.4369 30.298 47.4756 30.9513 46.5446 32.2171C45.6135 33.4829 47.0812 34.8771 49.8162 35.3379Z" fill="#D44C39"/>
<path d="M65.6052 32.1999C68.3402 32.6608 71.3014 32.0075 72.2325 30.7416C73.1635 29.4758 71.6958 28.0817 68.9609 27.6209C66.2259 27.1601 63.2647 27.8134 62.3336 29.0792C61.4026 30.345 62.8703 31.7391 65.6052 32.1999Z" fill="#D44C39"/>
<path d="M61.7835 37.4204C64.5184 37.8812 67.4796 37.2279 68.4107 35.9621C69.3417 34.6963 67.874 33.3022 65.1391 32.8413C62.4042 32.3805 59.4429 33.0338 58.5119 34.2996C57.5808 35.5654 59.0485 36.9596 61.7835 37.4204Z" fill="#D44C39"/>
<path d="M77.5085 33.5358C79.5257 33.8742 81.724 33.3958 82.4094 32.4567C83.0947 31.5176 82.015 30.4909 79.9912 30.1467C77.9675 29.8026 75.7757 30.2867 75.0903 31.2259C74.405 32.165 75.4847 33.1917 77.5085 33.5358Z" fill="#D44C39"/>
<path d="M73.7262 38.6923C75.7435 39.0307 77.9418 38.5523 78.6271 37.6132C79.3125 36.674 78.2327 35.6474 76.209 35.3032C74.1853 34.9591 71.9934 35.4432 71.3081 36.3824C70.6227 37.3215 71.7025 38.3482 73.7262 38.6923Z" fill="#D44C39"/>
<path d="M42.361 27.6152C44.3783 27.9535 46.5766 27.4752 47.2619 26.536C47.9473 25.5969 46.8675 24.5702 44.8438 24.2261C42.82 23.8819 40.6282 24.3661 39.9429 25.3052C39.2575 26.2444 40.3373 27.271 42.361 27.6152Z" fill="#D44C39"/>
<path d="M38.5861 32.7714C40.6034 33.1098 42.8017 32.6314 43.487 31.6923C44.1724 30.7531 43.0926 29.7265 41.0689 29.3823C39.0451 29.0382 36.8533 29.5223 36.168 30.4615C35.4826 31.4006 36.5624 32.4273 38.5861 32.7714Z" fill="#D44C39"/>
<path d="M33.8011 25.4856C35.0942 25.7014 36.4973 25.3923 36.9369 24.7973C37.3766 24.2023 36.6848 23.5373 35.3917 23.3215C34.0985 23.1056 32.6955 23.4148 32.2558 24.0098C31.8162 24.6048 32.508 25.2698 33.8011 25.4856Z" fill="#D44C39"/>
<path d="M30.0194 30.6423C31.3125 30.8582 32.7155 30.549 33.1552 29.954C33.5949 29.359 32.903 28.694 31.6099 28.4782C30.3168 28.2624 28.9138 28.5715 28.4741 29.1665C28.0344 29.7615 28.7263 30.4265 30.0194 30.6423Z" fill="#D44C39"/>
<path d="M86.3597 34.3403C87.6528 34.5562 89.0559 34.247 89.4955 33.652C89.9352 33.057 89.2434 32.392 87.9503 32.1762C86.6571 31.9604 85.2541 32.2695 84.8144 32.8645C84.3748 33.4595 85.0666 34.1245 86.3597 34.3403Z" fill="#D44C39"/>
<path d="M82.5838 39.4971C83.877 39.7129 85.28 39.4037 85.7197 38.8087C86.1593 38.2138 85.4675 37.5488 84.1744 37.3329C82.8813 37.1171 81.4782 37.4263 81.0386 38.0213C80.5989 38.6162 81.2907 39.2812 82.5838 39.4971Z" fill="#D44C39"/>
<path d="M58.0607 24.0917C60.078 24.4301 62.2763 23.9517 62.9616 23.0126C63.647 22.0735 62.5672 21.0468 60.5435 20.7027C58.5197 20.3585 56.3279 20.8426 55.6426 21.7818C54.9572 22.7209 56.037 23.7476 58.0607 24.0917Z" fill="#D44C39"/>
<path d="M70.0739 26.1101C72.0911 26.4484 74.2894 25.9701 74.9748 25.0309C75.6602 24.0918 74.5804 23.0651 72.5567 22.721C70.5329 22.3768 68.3411 22.861 67.6557 23.8001C66.9704 24.7393 68.0501 25.7659 70.0739 26.1101Z" fill="#D44C39"/>
<path d="M46.3126 39.9694C48.3299 40.3078 50.5282 39.8294 51.2136 38.8903C51.8989 37.9511 50.8192 36.9245 48.7954 36.5803C46.7717 36.2362 44.5799 36.7203 43.8945 37.6595C43.2092 38.5986 44.2889 39.6253 46.3126 39.9694Z" fill="#D44C39"/>
<path d="M58.319 41.9938C60.3363 42.3322 62.5346 41.8539 63.2199 40.9147C63.9053 39.9756 62.8255 38.9489 60.8018 38.6047C58.7781 38.2606 56.5862 38.7448 55.9009 39.6839C55.2155 40.623 56.2953 41.6497 58.319 41.9938Z" fill="#D44C39"/>
<path d="M69.8795 43.9421C71.8968 44.2804 74.0951 43.8021 74.7805 42.8629C75.4658 41.9238 74.3861 40.8972 72.3623 40.553C70.3386 40.2088 68.1468 40.693 67.4614 41.6321C66.7761 42.5713 67.8558 43.5979 69.8795 43.9421Z" fill="#D44C39"/>
<path d="M34.8043 37.9282C36.8216 38.2665 39.0199 37.7882 39.7053 36.849C40.3906 35.9099 39.3109 34.8832 37.2871 34.5391C35.2634 34.1949 33.0716 34.6791 32.3862 35.6182C31.7009 36.5574 32.7806 37.584 34.8043 37.9282Z" fill="#D44C39"/>
<path d="M81.4972 28.0876C83.5145 28.4259 85.7128 27.9476 86.3981 27.0085C87.0835 26.0693 86.0037 25.0427 83.98 24.6985C81.9563 24.3543 79.7644 24.8385 79.0791 25.7776C78.3937 26.7168 79.4735 27.7434 81.4972 28.0876Z" fill="#D44C39"/>
<path d="M46.4225 22.0788C48.4398 22.4171 50.6381 21.9388 51.3234 20.9997C52.0088 20.0605 50.929 19.0339 48.9053 18.6897C46.8816 18.3456 44.6897 18.8297 44.0044 19.7689C43.319 20.708 44.3988 21.7346 46.4225 22.0788Z" fill="#D44C39"/>
<path d="M55.9076 45.4414C57.2007 45.6572 58.6037 45.3481 59.0434 44.7531C59.483 44.1581 58.7912 43.4931 57.4981 43.2773C56.205 43.0615 54.802 43.3706 54.3623 43.9656C53.9226 44.5606 54.6144 45.2256 55.9076 45.4414Z" fill="#D44C39"/>
<path d="M43.8944 43.417C45.1875 43.6328 46.5905 43.3237 47.0302 42.7287C47.4699 42.1337 46.778 41.4687 45.4849 41.2529C44.1918 41.037 42.7888 41.3462 42.3491 41.9412C41.9094 42.5362 42.6013 43.2012 43.8944 43.417Z" fill="#D44C39"/>
<path d="M73.3905 21.5832C74.6836 21.7991 76.0866 21.4899 76.5263 20.8949C76.966 20.2999 76.2741 19.635 74.981 19.4191C73.6879 19.2033 72.2849 19.5125 71.8452 20.1074C71.4055 20.7024 72.0974 21.3674 73.3905 21.5832Z" fill="#D44C39"/>
<path d="M61.3758 19.5652C62.669 19.781 64.072 19.4719 64.5116 18.8769C64.9513 18.2819 64.2595 17.6169 62.9664 17.4011C61.6732 17.1852 60.2702 17.4944 59.8306 18.0894C59.3909 18.6844 60.0827 19.3494 61.3758 19.5652Z" fill="#D44C39"/>
</svg>
