<svg width="105" height="105" viewBox="0 0 105 105" fill="none" xmlns="http://www.w3.org/2000/svg">
<path d="M30.2119 2.57234L34.4459 2.97289C35.939 3.11414 37.142 4.22927 37.4031 5.76577L37.403 5.76674L37.5908 7.17251L37.5914 7.17649C37.7987 8.54148 38.6909 9.73857 39.9579 10.4157L39.9578 10.4167C41.3306 11.215 42.7889 11.2433 44.0858 10.5806L45.3175 9.95164C46.6894 9.27647 48.3683 9.63581 49.3641 10.8396L52.144 14.1994C53.1396 15.4033 53.1769 17.1198 52.2565 18.3407L51.4077 19.4326L51.3997 19.4436C50.6221 20.5959 50.3746 22.0244 50.8023 23.405C51.2285 24.7803 52.2398 25.8848 53.5444 26.3452L53.5473 26.3465L54.8939 26.7937L54.8987 26.7951C56.3532 27.2319 57.225 28.7168 57.0827 30.2221L56.6822 34.4561C56.5408 35.9502 55.4245 37.1529 53.8864 37.413L52.4826 37.6009L52.4795 37.6016C51.1142 37.8089 49.9156 38.7006 49.2384 39.968C48.4401 41.3408 48.4118 42.7991 49.0744 44.0959L49.7035 45.3267L49.7034 45.3276C50.3785 46.6994 50.0199 48.3785 48.8164 49.3744L45.4557 52.1542C44.2518 53.1496 42.5352 53.187 41.3144 52.2666L40.2225 51.4178C39.0756 50.5259 37.6414 50.2785 36.2601 50.7065C34.8885 51.1316 33.7874 52.1388 33.3247 53.4383L33.3238 53.4382L32.7706 54.7749L32.7669 54.7833L32.7639 54.7938C32.327 56.2482 30.8423 57.1203 29.3369 56.9779L25.1029 56.5773C23.6077 56.4357 22.4041 55.3167 22.1455 53.7766L22.1446 53.7765L21.9795 52.1718L21.9785 52.1619L21.931 51.9072C21.6569 50.646 20.7961 49.5512 19.6046 48.917C18.2338 48.1225 16.778 48.095 15.4832 48.7567L14.2514 49.3866C12.9652 50.0194 11.4091 49.7431 10.3992 48.7142L10.2048 48.4986L10.2021 48.4954L7.41318 45.2417C6.41977 44.038 6.38278 42.3226 7.30252 41.1026L7.30164 41.1015L8.15229 40.0107C9.04392 38.8641 9.29036 37.4303 8.86253 36.0493C8.43641 34.674 7.42582 33.5696 6.1214 33.1091L6.11761 33.1078L4.77199 32.6597L4.76625 32.6582L4.50046 32.5644C3.20655 32.0359 2.4487 30.6426 2.58223 29.2312L2.98269 24.9981C3.12414 23.5029 4.2425 22.2984 5.78255 22.0397L5.78167 22.0386L7.18142 21.8523C8.5455 21.751 9.74238 20.8532 10.4166 19.5912C11.2149 18.2185 11.2432 16.7602 10.5805 15.4633L9.95053 14.2315L9.9515 14.2316C9.27645 12.8597 9.63479 11.1797 10.8386 10.1839L14.186 7.51367L14.1891 7.512C15.3929 6.51634 17.1096 6.47754 18.3306 7.39764L19.4224 8.24741L19.5452 8.0903L19.4223 8.24838L19.4335 8.25532C20.5857 9.03295 22.0142 9.28051 23.3948 8.85274C24.77 8.42659 25.8745 7.41604 26.335 6.11161L26.3363 6.10781L26.7834 4.7621L26.7849 4.75636C27.2217 3.3019 28.7066 2.4301 30.2119 2.57234ZM54.1083 29.7896L53.9683 29.7342L52.5267 29.1711L52.5239 29.1699C50.3143 28.3366 48.6122 26.5107 47.8881 24.2544L47.8865 24.2503L47.749 23.8067C47.13 21.5824 47.5995 19.3133 48.9431 17.4887L48.9422 17.4877L49.7907 16.3987L49.8878 16.2744L49.7896 16.1514L47.0207 12.6857L46.9224 12.5626L46.7799 12.6286L45.44 13.2493L45.4338 13.2527C43.3618 14.3026 40.7647 14.2651 38.6895 13.1335L38.6867 13.1323L38.2863 12.9061C36.3269 11.7233 35.0234 9.72906 34.7417 7.56118L34.7418 7.56021L34.554 6.15444L34.5342 6.00052L34.38 5.98201L30.05 5.46546L29.8968 5.44704L29.84 5.59175L29.2769 7.0334L29.2757 7.03526C28.4425 9.245 26.6147 10.9466 24.3583 11.6709C22.1412 12.3407 19.749 12.0734 17.9499 10.8723L17.5982 10.6193L16.5045 9.76841L16.3803 9.67132L16.2561 9.77042L12.7905 12.5393L12.6685 12.6367L12.7344 12.7793L13.3551 14.12L13.3584 14.1262C14.4081 16.1982 14.3708 18.7945 13.2394 20.8696L13.2381 20.8724C12.0949 23.0543 9.97867 24.517 7.66604 24.8173L6.26027 25.0051L6.10627 25.0259L6.08775 25.1801L5.5713 29.5091L5.55278 29.6633L5.69661 29.7191L7.13914 30.2832L7.14109 30.2834C9.35083 31.1166 11.0526 32.9435 11.7768 35.1999L11.7784 35.2039C12.5945 37.5693 12.1434 40.1242 10.7252 41.961L9.87416 43.0556L9.77706 43.1798L9.87626 43.303L12.6452 46.7686L12.7425 46.8906L12.885 46.8256L14.2249 46.204L14.2258 46.205L14.2321 46.2007C15.4256 45.5908 16.792 45.4071 18.1384 45.5344C19.1677 45.6318 20.0737 45.9243 20.9626 46.4245L20.9682 46.4279C23.15 47.5712 24.6128 49.6864 24.9131 51.999L24.9142 52.009L24.9172 52.0181L25.2199 53.3288L25.2521 53.4652L25.3908 53.4823L29.7209 53.9978L29.8741 54.0163L29.9309 53.8725L30.494 52.4309L30.4949 52.431L30.4979 52.4205C31.2256 50.2081 33.0475 48.5068 35.3047 47.7822L35.3097 47.7817C37.5257 47.0171 39.8188 47.3545 41.7004 48.5805L42.0714 48.8373L43.1614 49.685L43.2856 49.7821L43.4087 49.6838L46.8744 46.9149L46.9965 46.8166L46.9305 46.674L46.3098 45.3342L46.3074 45.3281L46.1231 44.933C45.2664 42.9329 45.3648 40.5291 46.4256 38.5837L46.4278 38.5809C47.5711 36.3993 49.6864 34.9363 51.9989 34.6359L51.9988 34.6369L52.0099 34.634L53.5316 34.3513L53.6793 34.3241L54.1083 29.7896Z" fill="#D34C39" stroke="white" stroke-width="0.4"/>
<path d="M30.9782 17.0615C37.9595 17.7221 43.1496 23.9966 42.4892 30.978C41.8285 37.9603 35.6587 43.1592 28.5727 42.489C21.5913 41.8286 16.4014 35.5539 17.0617 28.5725C17.7221 21.5911 23.9967 16.4011 30.9782 17.0615ZM30.6854 20.1561C25.3892 19.6551 20.6573 23.569 20.1563 28.8653C19.6554 34.1614 23.5693 38.8934 28.8654 39.3944C34.2688 39.9055 38.8936 35.9798 39.3946 30.6853C39.8956 25.3891 35.9815 20.6573 30.6854 20.1561Z" fill="#D34C39" stroke="white" stroke-width="0.4"/>
<path d="M54.3716 55.3687L58.0758 55.7191C59.4764 55.8517 60.6741 56.8712 60.8406 58.2741L60.8405 58.2751L60.9523 59.3539L60.9545 59.3717C61.1829 60.5151 61.8784 61.4831 62.8437 62.0263L62.8503 62.0299C63.8584 62.5481 64.9161 62.5741 65.9128 62.195L66.1117 62.1138L66.1179 62.1114L67.2328 61.5763L67.2337 61.5774C68.4913 60.9949 70.0671 61.3443 70.9675 62.4329L73.2676 65.2136L73.2739 65.2201C74.2644 66.3078 74.222 67.9037 73.409 69.0389L72.6739 70.0375L72.6705 70.0431C72.0224 70.9874 71.789 72.2028 72.1414 73.2615L72.1413 73.2625C72.4805 74.4149 73.2986 75.2875 74.4006 75.6234L74.4005 75.6244L75.5325 76.0503L75.5324 76.0513C76.8006 76.547 77.5765 77.6988 77.6255 79.1842L77.6255 79.4853L77.2762 83.1778C77.1434 84.5795 76.1218 85.7773 74.7173 85.9423L74.7163 85.9422L74.7063 85.9442L73.5115 86.1519L73.5066 86.1524C72.3724 86.379 71.4067 86.9642 70.8494 88.0483C70.2968 89.1235 70.3033 90.2548 70.7646 91.3087L70.768 91.3149L71.3027 92.4337C71.8837 93.691 71.5344 95.2657 70.4464 96.1656L67.6658 98.4647L67.6582 98.4718C66.6378 99.4008 65.1703 99.4212 64.0556 98.749L63.8376 98.6057L62.8408 97.8719L62.8353 97.8674C61.8866 97.2166 60.7766 96.998 59.6168 97.3393C58.4641 97.6785 57.5908 98.4963 57.2549 99.5986L56.8269 100.732L56.8242 100.74C56.4078 101.992 55.0227 102.87 53.6277 102.738L49.9235 102.387C48.5321 102.256 47.3342 101.138 47.168 99.7234L46.9697 99.7458L47.1681 99.7224L47.1661 99.7124L46.9594 98.5177L46.9579 98.5126C46.7295 97.3695 46.0346 96.4024 45.0695 95.8591L45.063 95.8556L44.8603 95.7579C43.8462 95.305 42.7897 95.3381 41.8016 95.7707L41.7954 95.774L40.6786 96.3079C39.4212 96.8901 37.8461 96.5407 36.9457 95.4526L34.6456 92.6718C33.7457 91.5839 33.6969 89.9715 34.5034 88.8455L35.2384 87.8468L35.2394 87.8469L35.2429 87.8414C35.8517 86.9538 36.0948 85.8269 35.8293 84.8157L35.7697 84.6159C35.4292 83.4665 34.6119 82.5961 33.5117 82.2609L32.3781 81.8329L32.3705 81.8302L32.1405 81.7418C31.0127 81.2415 30.2489 79.9417 30.3726 78.6337L30.723 74.9296C30.8474 73.6153 31.7527 72.4789 33.0229 72.2063L33.282 72.1641L33.2929 72.1622L34.4867 71.9544L34.4867 71.9554L34.4917 71.9539C35.635 71.7255 36.603 71.0309 37.1462 70.0656L37.1497 70.0591C37.7025 68.9838 37.6952 67.8516 37.2337 66.7976L37.2303 66.7914L36.6956 65.6726C36.1148 64.4154 36.465 62.8417 37.5528 61.9418L40.3335 59.6417C41.4212 58.7421 43.0329 58.6925 44.1589 59.4985L44.1588 59.4994L45.1575 60.2345L45.1574 60.2354L45.163 60.2389C46.1095 60.8883 47.3282 61.1206 48.3885 60.7647C49.538 60.4243 50.4092 59.6081 50.7444 58.5078L51.1714 57.3741L51.1741 57.3665C51.5905 56.1145 52.9765 55.2367 54.3716 55.3687ZM74.5591 78.8941L74.3809 78.8596L73.3496 78.6561C71.3494 77.9461 69.8456 76.3557 69.2087 74.3269C68.5697 72.2916 68.8896 70.0438 70.1782 68.4125L70.1826 68.407L70.9177 67.4083L71.0122 67.2799L70.9079 67.1592L68.5987 64.4845L68.4873 64.3563L68.3426 64.4446L67.4431 64.9942C65.6007 65.851 63.3247 65.8405 61.4557 64.8368C59.5789 63.8288 58.2964 62.0484 57.9771 59.9454L57.9765 59.9414L57.7697 58.7467L57.7423 58.5911L57.5853 58.5812L54.0821 58.3567L53.9076 58.3451L53.8736 58.5174L53.6701 59.5488C52.9602 61.5492 51.3697 63.0537 49.3408 63.6907C47.3127 64.3273 45.0699 63.9083 43.42 62.7156L43.421 62.7157L42.4223 61.9807L42.2939 61.8862L42.1732 61.9905L39.4984 64.3006L39.3703 64.4111L39.4585 64.5568L40.0082 65.4543C40.8655 67.2968 40.8545 69.5734 39.8508 71.4427C38.8428 73.3195 37.0624 74.602 34.9594 74.9213L34.9554 74.9219L33.7606 75.1296L33.6001 75.1576L33.5945 75.3199L33.486 78.7272L33.4807 78.8974L33.6474 78.9298L34.6788 79.1323C36.6791 79.8422 38.1837 81.4328 38.8207 83.4616C39.4597 85.4971 39.1389 87.7456 37.8501 89.3769L37.8456 89.3824L37.1107 90.3801L37.0161 90.5095L37.1204 90.6302L39.4305 93.305L39.5588 93.4525L39.7088 93.3283L40.5007 92.6725C41.5791 92.1614 42.7299 91.9643 43.9566 92.0803C44.8748 92.1671 45.6755 92.4477 46.4757 92.8365L46.4766 92.8366C48.3535 93.8446 49.636 95.6249 49.9552 97.728L49.9559 97.732L50.1636 98.9267L50.1902 99.0813L50.348 99.0923L53.8503 99.3167L54.0258 99.3274L54.0598 99.1551L54.2623 98.1237C54.9723 96.1236 56.5629 94.6197 58.5915 93.9827C60.6199 93.3459 62.8633 93.7649 64.5133 94.9579L64.5134 94.9569L65.51 95.6927L65.6384 95.7872L65.7601 95.683L68.4339 93.3728L68.5631 93.2614L68.4738 93.1166L67.9267 92.2223C67.0677 90.3791 67.078 88.1004 68.0826 86.2298C69.0905 84.3533 70.8703 83.0705 72.973 82.7511L74.0428 82.6414L74.2062 82.6245L74.5591 78.8941Z" fill="#D34C39" stroke="white" stroke-width="0.4"/>
<path d="M54.8884 69.0865C60.2821 69.5968 64.2265 74.3647 63.7165 79.7584C63.2062 85.1522 58.4375 89.0966 53.0437 88.5864C47.65 88.0759 43.7064 83.3073 44.2166 77.9136C44.7271 72.5202 49.4949 68.5765 54.8884 69.0865ZM54.6057 72.0751C50.8974 71.7246 47.5563 74.4881 47.2052 78.1964C46.8544 81.9048 49.618 85.2467 53.3264 85.5978C57.035 85.9486 60.377 83.1843 60.7279 79.4756C61.0784 75.7672 58.3141 72.426 54.6057 72.0751Z" fill="#D34C39" stroke="white" stroke-width="0.4"/>
<path d="M82.9409 20.9093L86.0102 21.1997C87.2968 21.3214 88.3979 22.3247 88.5737 23.6326L88.5736 23.6336L88.6954 24.6064L88.6972 24.6184C88.8398 25.3844 89.2918 26.0809 89.979 26.5092L90.1193 26.5911L90.1278 26.5949C90.9766 27.0082 91.8925 27.1092 92.6429 26.7082L92.6438 26.7093L93.5408 26.2596L93.5399 26.2585C94.7982 25.6785 96.1596 26.0129 96.9615 26.9824L98.8778 29.2992C99.6788 30.3851 99.7335 31.7832 98.9474 32.7939L98.9464 32.7948L98.3364 33.5915L98.3308 33.5988L98.3261 33.6072C97.9238 34.2517 97.7205 35.149 97.9892 35.9864C98.2392 36.7655 98.8085 37.3716 99.5168 37.6935L99.6602 37.7542L99.6716 37.7582L100.601 38.059C101.864 38.5878 102.634 39.7652 102.524 40.9287L102.234 43.998C102.111 45.3002 101.232 46.2601 100.04 46.5194L99.798 46.5622L98.8272 46.6832L98.8516 46.8817L98.8263 46.6831L98.8153 46.685C97.9981 46.8371 97.2602 47.3419 96.8424 48.1081L96.8378 48.1155C96.4246 48.9641 96.3238 49.8803 96.7244 50.6306L96.7243 50.6316L97.1708 51.5214L97.1708 51.5223C97.7543 52.7822 97.4222 54.1462 96.4512 54.9493L94.1419 56.8594C93.0549 57.666 91.6529 57.7232 90.6397 56.9352L90.6389 56.9341L89.8422 56.3242L89.8349 56.3186L89.8265 56.3138L89.573 56.1731C88.9579 55.8684 88.1791 55.7416 87.4463 55.9768C86.6155 56.2436 85.9821 56.8738 85.6795 57.6479L85.6755 57.6593L85.3763 58.5816C84.8507 59.8443 83.6743 60.6227 82.399 60.5021L79.3297 60.2117C78.0274 60.0885 77.0675 59.2098 76.8083 58.0182L76.7655 57.7758L76.6445 56.805L76.6427 56.793L76.61 56.6409C76.4388 55.9353 76.0023 55.302 75.361 54.9022L75.2196 54.8202L75.2122 54.8155L74.89 54.6752C74.136 54.3847 73.3525 54.3513 72.6961 54.7021L71.8043 55.1494C70.5446 55.7326 69.1814 55.3998 68.3784 54.429L66.4621 52.1122C65.6632 51.0293 65.6064 49.6358 66.3858 48.6257L66.9649 48.0517L66.9812 48.0356L66.9938 48.0162C67.3961 47.3715 67.5986 46.4734 67.3298 45.6359C67.0736 44.701 66.445 44.0662 65.6697 43.7632L65.6583 43.7592L64.7371 43.4601C63.4738 42.9347 62.695 41.7584 62.8156 40.4827L63.106 37.4134C63.2374 36.0243 64.2284 35.0243 65.5419 34.8492L65.541 34.8482L66.5127 34.7282L66.5246 34.7264C67.2906 34.5839 67.9872 34.1318 68.4155 33.4447L68.4975 33.3033L68.5011 33.2958C68.9186 32.4384 69.0018 31.6337 68.6188 30.787L68.6156 30.7798L68.1658 29.8829L68.1649 29.8818L68.066 29.6625C67.6234 28.5527 67.9764 27.2167 68.8887 26.4621L71.2054 24.5458C72.2914 23.7448 73.6894 23.6901 74.7002 24.4762L74.701 24.4773L75.4977 25.0872L75.505 25.0928L75.5134 25.0976C76.158 25.4998 77.0552 25.7031 77.8927 25.4345C78.6717 25.1844 79.2778 24.615 79.5998 23.9068L79.6604 23.7635L79.6645 23.7521L79.9664 22.8213C80.4937 21.5634 81.6683 20.789 82.9409 20.9093ZM99.5975 41.1226L99.4339 41.0787L98.8149 40.9142C97.1266 40.342 95.8193 38.8808 95.2561 37.1708L95.2536 37.1657L95.1437 36.8247C94.6528 35.1162 95.0544 33.3422 96.0548 31.9837L96.4228 31.4849L96.5151 31.3592L96.4157 31.238L94.8822 29.3851L94.7828 29.2649L94.642 29.332L94.0822 29.5988L94.0791 29.6005C92.3451 30.4688 90.3942 30.3869 88.8282 29.5177C87.2526 28.6431 86.0612 27.0826 85.8171 25.315L85.7721 24.681L85.7606 24.5122L83.0948 24.26L83.0508 24.4236L82.8878 25.0379C82.317 26.7269 80.8567 28.0355 79.147 28.5999C77.341 29.1512 75.4151 28.763 73.9659 27.6958L73.4661 27.3287L73.3404 27.2364L73.2202 27.3359L71.3664 28.8683L71.2461 28.9687L71.3142 29.1095L71.5811 29.6684L71.5827 29.6715C72.4512 31.4056 72.3692 33.3573 71.4999 34.9234L71.4989 34.9233L71.495 34.9327C70.7307 36.5027 69.0735 37.6868 67.3003 37.9328L66.6633 37.9785L66.4934 37.9909L66.2412 40.6567L66.4058 40.6998L67.0173 40.8616L67.0172 40.8626C68.7072 41.4328 70.0174 42.8933 70.5821 44.6036L70.582 44.6046C71.1332 46.4105 70.7451 48.3365 69.6779 49.7856L69.311 50.2845L69.2177 50.4101L70.95 52.5044L71.0907 52.4373L71.6507 52.1695L71.6589 52.1654C73.2809 51.2925 75.2315 51.369 76.9093 52.2531L76.9092 52.254L76.9149 52.2565C78.4839 53.0206 79.6675 54.6761 79.9143 56.4483L79.9607 57.0883L79.9731 57.2572L82.639 57.5094L82.6819 57.3457L82.8465 56.7257C83.419 55.0378 84.881 53.731 86.5908 53.168L86.5959 53.1655C88.4065 52.5139 90.328 52.8998 91.7769 53.9666L92.2767 54.3346L92.4024 54.427L94.4967 52.6946L94.4296 52.5539L94.1617 51.9949C93.3925 50.2599 93.379 48.2982 94.2439 46.7401C95.1188 45.164 96.6794 43.9716 98.4476 43.7281L99.0628 43.6852L99.3525 43.7126L99.5975 41.1226Z" fill="#D34C39" stroke="white" stroke-width="0.4"/>
<path d="M83.3969 33.0184C87.6264 33.4185 90.7077 37.1439 90.3077 41.3734C89.9076 45.603 86.1822 48.6843 81.9527 48.2842C77.7232 47.884 74.6417 44.1587 75.0419 39.9292C75.442 35.6997 79.1674 32.6183 83.3969 33.0184ZM83.1141 36.007C80.5699 35.7664 78.2712 37.6677 78.0305 40.2119C77.7898 42.7562 79.6911 45.0548 82.2354 45.2956C84.7797 45.5363 87.0784 43.635 87.3191 41.0907C87.5597 38.5464 85.6584 36.2477 83.1141 36.007Z" fill="#D34C39" stroke="white" stroke-width="0.4"/>
</svg>
