<svg width="95" height="83" viewBox="0 0 95 83" fill="none" xmlns="http://www.w3.org/2000/svg">
<path d="M31.5 81.5H19L23.5 73.5M31.5 11.5H11.5C8.84784 11.5 6.3043 12.5536 4.42893 14.4289C2.55357 16.3043 1.5 18.8478 1.5 21.5V51.5C1.5 54.1522 2.55357 56.6957 4.42893 58.5711C6.3043 60.4464 8.84784 61.5 11.5 61.5H31.5M53.4375 1.5H83.4375C88.9603 1.5 93.4375 5.97715 93.4375 11.5V71.5C93.4375 77.0228 88.9603 81.5 83.4375 81.5H53.4375C47.9147 81.5 43.4375 77.0228 43.4375 71.5V11.5C43.4375 5.97715 47.9147 1.5 53.4375 1.5ZM73.4375 56.5C73.4375 59.2614 71.1989 61.5 68.4375 61.5C65.6761 61.5 63.4375 59.2614 63.4375 56.5C63.4375 53.7386 65.6761 51.5 68.4375 51.5C71.1989 51.5 73.4375 53.7386 73.4375 56.5Z" stroke="#D34C39" stroke-width="3" stroke-linecap="round" stroke-linejoin="round"/>
<path d="M65.3528 24.2055C66.9283 24.2055 68.2055 22.9283 68.2055 21.3528C68.2055 19.7772 66.9283 18.5 65.3528 18.5C63.7772 18.5 62.5 19.7772 62.5 21.3528C62.5 22.9283 63.7772 24.2055 65.3528 24.2055Z" stroke="#D44C39" stroke-width="2.5" stroke-miterlimit="10"/>
<path d="M44.5 14.5H65.75C69.4779 14.5 72.5 17.5221 72.5 21.25C72.5 24.9779 69.4779 28 65.75 28H44.5" stroke="#D44C39" stroke-width="2.5"/>
</svg>
