<svg width="109" height="83" viewBox="0 0 109 83" fill="none" xmlns="http://www.w3.org/2000/svg">
<path d="M17.4 22.5923L6.8 12.0461M38.6 17.3192V1.5M59.8 22.5923L70.4 12.0461M53.599 39.3154H96.9C99.7113 39.3154 102.407 40.4266 104.395 42.4043C106.383 44.3821 107.5 47.0646 107.5 49.8616V70.9539C107.5 73.7509 106.383 76.4333 104.395 78.4111C102.407 80.3889 99.7113 81.5 96.9 81.5H12.1C9.28871 81.5 6.59255 80.3889 4.60467 78.4111C2.61678 76.4333 1.5 73.7509 1.5 70.9539V49.8616C1.5 47.0646 2.61678 44.3821 4.60467 42.4043C6.59255 40.4266 9.28871 39.3154 12.1 39.3154H23.601M75.7 60.4077H86.3M54.5 44.5885C54.5 53.3252 47.3813 60.4077 38.6 60.4077C29.8187 60.4077 22.7 53.3252 22.7 44.5885C22.7 35.8518 29.8187 28.7693 38.6 28.7693C47.3813 28.7693 54.5 35.8518 54.5 44.5885Z" stroke="#D34C39" stroke-width="3" stroke-linecap="round" stroke-linejoin="round"/>
</svg>
