<svg width="107" height="83" viewBox="0 0 107 83" fill="none" xmlns="http://www.w3.org/2000/svg">
<path d="M50.5925 26.8427H4.51216C2.84859 26.8427 1.5 28.1912 1.5 29.8548V78.4878C1.5 80.1514 2.84859 81.5 4.51216 81.5H50.5925C52.2561 81.5 53.6046 80.1514 53.6046 78.4878V29.8548C53.6046 28.1912 52.2561 26.8427 50.5925 26.8427Z" stroke="#D44C39" stroke-width="3" stroke-miterlimit="10"/>
<path d="M96.7717 1.5H68.6475C64.3055 1.5 60.7856 5.02743 60.7856 9.37873V39.7177C60.7856 44.069 64.3055 47.5965 68.6475 47.5965H96.7717C101.114 47.5965 104.634 44.069 104.634 39.7177V9.37873C104.634 5.02743 101.114 1.5 96.7717 1.5Z" stroke="#D44C39" stroke-width="3" stroke-miterlimit="10"/>
<path d="M34.0092 44.2611H21.0956C19.4437 44.2611 18.1045 45.6003 18.1045 47.2522V61.0908C18.1045 62.7427 19.4437 64.0819 21.0956 64.0819H34.0092C35.6611 64.0819 37.0003 62.7427 37.0003 61.0908V47.2522C37.0003 45.6003 35.6611 44.2611 34.0092 44.2611Z" stroke="#D44C39" stroke-width="3" stroke-miterlimit="10"/>
<path d="M24.8079 54.4436C25.4288 54.4436 25.9322 53.9402 25.9322 53.3193C25.9322 52.6983 25.4288 52.1949 24.8079 52.1949C24.187 52.1949 23.6836 52.6983 23.6836 53.3193C23.6836 53.9402 24.187 54.4436 24.8079 54.4436Z" fill="#D44C39"/>
<path d="M31.5535 54.4436C32.1744 54.4436 32.6778 53.9402 32.6778 53.3193C32.6778 52.6983 32.1744 52.1949 31.5535 52.1949C30.9326 52.1949 30.4292 52.6983 30.4292 53.3193C30.4292 53.9402 30.9326 54.4436 31.5535 54.4436Z" fill="#D44C39"/>
<path d="M28.1809 57.8165C28.8019 57.8165 29.3052 57.3131 29.3052 56.6922C29.3052 56.0712 28.8019 55.5679 28.1809 55.5679C27.56 55.5679 27.0566 56.0712 27.0566 56.6922C27.0566 57.3131 27.56 57.8165 28.1809 57.8165Z" fill="#D44C39"/>
<path d="M82.7097 21.7375C84.262 21.7375 85.5204 20.4791 85.5204 18.9267C85.5204 17.3744 84.262 16.116 82.7097 16.116C81.1573 16.116 79.8989 17.3744 79.8989 18.9267C79.8989 20.4791 81.1573 21.7375 82.7097 21.7375Z" stroke="#D44C39" stroke-width="1.33556" stroke-miterlimit="10"/>
<path d="M75.4014 30.2273V18.7394C75.4014 14.8088 78.6753 11.6188 82.7093 11.6188C86.7433 11.6188 90.0173 14.8088 90.0173 18.7394V30.2273C90.0173 31.7463 88.7506 32.9806 87.1916 32.9806H78.2271C76.6681 32.9806 75.4014 31.7463 75.4014 30.2273Z" stroke="#D44C39" stroke-width="3" stroke-miterlimit="10" stroke-linecap="round"/>
</svg>
