<svg width="141" height="108" viewBox="0 0 141 108" fill="none" xmlns="http://www.w3.org/2000/svg">
<path d="M38.5301 12.373H31.2896C27.449 12.373 23.7657 13.8987 21.05 16.6144C18.3343 19.3301 16.8086 23.0134 16.8086 26.854V92.0184C16.8086 95.859 18.3343 99.5423 21.05 102.258C23.7657 104.974 27.449 106.499 31.2896 106.499H124.656C128.497 106.499 132.18 104.974 134.896 102.258C137.612 99.5423 139.137 95.859 139.137 92.0184V26.854C139.137 23.0134 137.612 19.3301 134.896 16.6144C132.18 13.8987 128.497 12.373 124.656 12.373H117.416H38.5301Z" stroke="#D34C39" stroke-width="3" stroke-linecap="round" stroke-linejoin="round"/>
<path d="M111.736 1.5H28.3473H19.3982C14.6513 1.5 10.0988 3.37775 6.74225 6.72016C3.38569 10.0626 1.5 14.5959 1.5 19.3227V83.5251" stroke="#D34C39" stroke-width="3" stroke-linecap="round" stroke-linejoin="round"/>
<path d="M59.9746 59.6316C59.9746 65.3925 62.2631 70.9175 66.3367 74.991C70.4102 79.0646 75.9352 81.3531 81.6961 81.3531C87.457 81.3531 92.9819 79.0646 97.0555 74.991C101.129 70.9175 103.418 65.3925 103.418 59.6316C103.418 53.8707 101.129 48.3458 97.0555 44.2722C92.9819 40.1987 87.457 37.9102 81.6961 37.9102C75.9352 37.9102 70.4102 40.1987 66.3367 44.2722C62.2631 48.3458 59.9746 53.8707 59.9746 59.6316Z" stroke="#D34C39" stroke-width="3" stroke-linecap="round" stroke-linejoin="round"/>
</svg>
