<svg width="107" height="108" viewBox="0 0 107 108" fill="none" xmlns="http://www.w3.org/2000/svg">
<path d="M61.1029 63.489C62.4926 67.0514 63.2647 70.9804 63.2647 75.0666C63.2647 84.3392 59.3015 92.7211 52.9706 98.4314C47.3362 103.639 39.9933 106.517 32.3824 106.499C15.3456 106.499 1.5 92.4068 1.5 75.0666C1.5 60.6077 11.1765 48.3491 24.25 44.7344" stroke="#D44C39" stroke-width="3" stroke-linecap="round" stroke-linejoin="round"/>
<path d="M82.3332 44.7344C95.5113 48.3491 105.265 60.6077 105.265 75.0666C105.265 92.4068 91.3088 106.499 74.1358 106.499C66.4639 106.517 59.0623 103.639 53.3828 98.4314" stroke="#D44C39" stroke-width="3" stroke-linecap="round" stroke-linejoin="round"/>
<path d="M31.5452 55.2739C25.7537 49.3665 22.5 41.3543 22.5 33C22.5 24.6457 25.7537 16.6335 31.5452 10.7261C37.3368 4.81874 45.1918 1.5 53.3824 1.5C61.5729 1.5 69.4279 4.81874 75.2195 10.7261C81.011 16.6335 84.2647 24.6457 84.2647 33C84.2647 41.3543 81.011 49.3665 75.2195 55.2739C69.4279 61.1813 61.5729 64.5 53.3824 64.5C45.1918 64.5 37.3368 61.1813 31.5452 55.2739Z" stroke="#D44C39" stroke-width="3" stroke-linecap="round" stroke-linejoin="round"/>
</svg>
