<svg width="108" height="108" viewBox="0 0 108 108" fill="none" xmlns="http://www.w3.org/2000/svg">
<path d="M71.5 30.6667H71.5583M42.3333 106.5H19C14.3587 106.5 9.90752 104.656 6.62563 101.374C3.34375 98.0925 1.5 93.6413 1.5 89V19C1.5 14.3587 3.34375 9.90752 6.62563 6.62563C9.90752 3.34375 14.3587 1.5 19 1.5H89C93.6413 1.5 98.0925 3.34375 101.374 6.62563C104.656 9.90752 106.5 14.3587 106.5 19V48.1667" stroke="#D34C39" stroke-width="3" stroke-linecap="round" stroke-linejoin="round"/>
<path d="M1.5 77.3333L30.6667 48.1666C36.08 42.9575 42.7533 42.9575 48.1667 48.1666L54 54M65.6667 106.5V83.1666C65.6667 80.0725 66.8958 77.105 69.0838 74.9171C71.2717 72.7291 74.2391 71.5 77.3333 71.5C80.4275 71.5 83.395 72.7291 85.5829 74.9171C87.7708 77.105 89 80.0725 89 83.1666V106.5M65.6667 94.8333H89M106.5 71.5V106.5" stroke="#D34C39" stroke-width="3" stroke-linecap="round" stroke-linejoin="round"/>
</svg>
