<svg width="108" height="108" viewBox="0 0 108 108" fill="none" xmlns="http://www.w3.org/2000/svg">
<path d="M31.0312 76.9688L76.9688 31.0312M1.5 17.9062C1.5 22.2575 3.22851 26.4305 6.30528 29.5072C9.38205 32.584 13.555 34.3125 17.9062 34.3125C22.2575 34.3125 26.4305 32.584 29.5072 29.5072C32.584 26.4305 34.3125 22.2575 34.3125 17.9062C34.3125 13.555 32.584 9.38205 29.5072 6.30528C26.4305 3.22851 22.2575 1.5 17.9062 1.5C13.555 1.5 9.38205 3.22851 6.30528 6.30528C3.22851 9.38205 1.5 13.555 1.5 17.9062ZM73.6875 17.9062C73.6875 22.2575 75.416 26.4305 78.4928 29.5072C81.5695 32.584 85.7425 34.3125 90.0938 34.3125C94.445 34.3125 98.618 32.584 101.695 29.5072C104.771 26.4305 106.5 22.2575 106.5 17.9062C106.5 13.555 104.771 9.38205 101.695 6.30528C98.618 3.22851 94.445 1.5 90.0938 1.5C85.7425 1.5 81.5695 3.22851 78.4928 6.30528C75.416 9.38205 73.6875 13.555 73.6875 17.9062ZM73.6875 90.0938C73.6875 94.445 75.416 98.618 78.4928 101.695C81.5695 104.771 85.7425 106.5 90.0938 106.5C94.445 106.5 98.618 104.771 101.695 101.695C104.771 98.618 106.5 94.445 106.5 90.0938C106.5 85.7425 104.771 81.5695 101.695 78.4928C98.618 75.416 94.445 73.6875 90.0938 73.6875C85.7425 73.6875 81.5695 75.416 78.4928 78.4928C75.416 81.5695 73.6875 85.7425 73.6875 90.0938ZM1.5 90.0938C1.5 94.445 3.22851 98.618 6.30528 101.695C9.38205 104.771 13.555 106.5 17.9062 106.5C22.2575 106.5 26.4305 104.771 29.5072 101.695C32.584 98.618 34.3125 94.445 34.3125 90.0938C34.3125 85.7425 32.584 81.5695 29.5072 78.4928C26.4305 75.416 22.2575 73.6875 17.9062 73.6875C13.555 73.6875 9.38205 75.416 6.30528 78.4928C3.22851 81.5695 1.5 85.7425 1.5 90.0938Z" stroke="#D34C39" stroke-width="3" stroke-linecap="round" stroke-linejoin="round"/>
</svg>
