<svg width="106" height="108" viewBox="0 0 106 108" fill="none" xmlns="http://www.w3.org/2000/svg">
<path d="M46.7988 53.9707C46.7988 55.517 47.4131 56.9999 48.5064 58.0932C49.5998 59.1866 51.0827 59.8008 52.6289 59.8008C54.1752 59.8008 55.6581 59.1866 56.7514 58.0932C57.8448 56.9999 58.459 55.517 58.459 53.9707C58.459 52.4245 57.8448 50.9416 56.7514 49.8482C55.6581 48.7549 54.1752 48.1406 52.6289 48.1406C51.0827 48.1406 49.5998 48.7549 48.5064 49.8482C47.4131 50.9416 46.7988 52.4245 46.7988 53.9707Z" stroke="#D34C39" stroke-width="3" stroke-linecap="round" stroke-linejoin="round"/>
<path d="M75.3673 101.253V101.311M93.6738 86.6777V86.736M103.76 65.631V65.6893M103.76 42.3107V42.369M93.6738 21.264V21.3223M75.3673 6.68878V6.74709M52.6299 1.5V1.5583M29.8926 6.68878V6.74709M11.5861 21.264V21.3223M1.5 42.3107V42.369M1.5 65.631V65.6893M11.5861 86.6777V86.736M29.8926 101.253V101.311M52.6299 106.442V106.5M23.4795 53.9708C23.4795 61.702 26.5507 69.1166 32.0174 74.5833C37.4842 80.0501 44.8987 83.1213 52.6299 83.1213C60.3611 83.1213 67.7757 80.0501 73.2424 74.5833C78.7092 69.1166 81.7804 61.702 81.7804 53.9708C81.7804 46.2397 78.7092 38.8251 73.2424 33.3584C67.7757 27.8916 60.3611 24.8204 52.6299 24.8204C44.8987 24.8204 37.4842 27.8916 32.0174 33.3584C26.5507 38.8251 23.4795 46.2397 23.4795 53.9708Z" stroke="#D34C39" stroke-width="3" stroke-linecap="round" stroke-linejoin="round"/>
</svg>
