<svg width="108" height="108" viewBox="0 0 108 108" fill="none" xmlns="http://www.w3.org/2000/svg">
<path d="M67.8163 29.1318H67.8715M54.0004 100.974H18.0791C13.682 100.974 9.46507 99.2277 6.3559 96.1185C3.24672 93.0093 1.5 88.7924 1.5 84.3953V18.0791C1.5 13.682 3.24672 9.46507 6.3559 6.3559C9.46507 3.24672 13.682 1.5 18.0791 1.5H84.3953C88.7924 1.5 93.0093 3.24672 96.1185 6.3559C99.2277 9.46507 100.974 13.682 100.974 18.0791V54.0004" stroke="#D34C39" stroke-width="3" stroke-linecap="round" stroke-linejoin="round"/>
<path d="M1.5 73.3409L29.1318 45.7091C34.2602 40.7741 40.5824 40.7741 45.7108 45.7091L67.8163 67.8145" stroke="#D34C39" stroke-width="3" stroke-linecap="round" stroke-linejoin="round"/>
<path d="M62.2891 62.2886L67.8154 56.7622C71.4241 53.2862 75.6242 52.2583 79.5865 53.673M89.9208 73.3413V106.499M73.3418 89.9204L89.9208 106.499L106.5 89.9204" stroke="#D34C39" stroke-width="3" stroke-linecap="round" stroke-linejoin="round"/>
</svg>
