<svg width="96" height="108" viewBox="0 0 96 108" fill="none" xmlns="http://www.w3.org/2000/svg">
<path d="M33.4688 106.5H13.125C10.0419 106.5 7.08499 105.271 4.90488 103.083C2.72477 100.895 1.5 97.9275 1.5 94.8333V13.1667C1.5 10.0725 2.72477 7.10501 4.90488 4.91709C7.08499 2.72916 10.0419 1.5 13.125 1.5H59.625C62.7081 1.5 65.665 2.72916 67.8451 4.91709C70.0252 7.10501 71.25 10.0725 71.25 13.1667V59.8333M82.875 106.5L94.5 94.8333L82.875 83.1667M65.4375 83.1667L53.8125 94.8333L65.4375 106.5M30.5625 7.33333H42.1875M36.375 83.1667V83.225" stroke="#D44C39" stroke-width="3" stroke-linecap="round" stroke-linejoin="round"/>
</svg>
