<svg width="108" height="108" viewBox="0 0 108 108" fill="none" xmlns="http://www.w3.org/2000/svg">
<path d="M62.2949 63.3975C63.7124 66.9675 64.4999 70.905 64.4999 75C64.4999 84.2925 60.4575 92.6925 54 98.415C48.2528 103.634 40.7632 106.518 33 106.5C15.6225 106.5 1.5 92.3775 1.5 75C1.5 60.51 11.37 48.225 24.705 44.6025" stroke="#D44C39" stroke-width="3" stroke-linecap="round" stroke-linejoin="round"/>
<circle cx="18.5" cy="72.5195" r="3" fill="#D34C39"/>
<circle cx="36.5" cy="72.5195" r="3" fill="#D34C39"/>
<circle cx="25.5" cy="88.5195" r="3" fill="#D34C39"/>
<circle cx="45.5" cy="88.5195" r="3" fill="#D34C39"/>
<path d="M83.295 44.6025C96.63 48.225 106.5 60.51 106.5 75C106.5 92.3775 92.3775 106.5 75 106.5C67.2368 106.518 59.7471 103.634 54 98.415" stroke="#D44C39" stroke-width="3" stroke-linecap="round" stroke-linejoin="round"/>
<path d="M81.914 56.5195C90.296 58.7434 96.5 66.2854 96.5 75.1811C96.5 85.8494 87.623 94.5195 76.7 94.5195C71.8203 94.5303 67.1125 92.76 63.5 89.556" stroke="#D44C39" stroke-width="3" stroke-linecap="round" stroke-linejoin="round"/>
<path d="M80.986 65.5195C85.304 66.69 88.5 70.6595 88.5 75.3414C88.5 80.9563 83.927 85.5195 78.3 85.5195C75.7862 85.5252 73.361 84.5935 71.5 82.9071" stroke="#D44C39" stroke-width="3" stroke-linecap="round" stroke-linejoin="round"/>
<path d="M31.7261 55.2738C25.8187 49.3664 22.5 41.3543 22.5 33C22.5 24.6457 25.8187 16.6335 31.7261 10.7261C37.6335 4.81874 45.6457 1.5 54 1.5C62.3543 1.5 70.3664 4.81874 76.2738 10.7261C82.1812 16.6335 85.4999 24.6457 85.4999 33C85.4999 41.3543 82.1812 49.3664 76.2738 55.2738C70.3664 61.1812 62.3543 64.4999 54 64.4999C45.6457 64.4999 37.6335 61.1812 31.7261 55.2738Z" stroke="#D44C39" stroke-width="3" stroke-linecap="round" stroke-linejoin="round"/>
</svg>
