<svg width="102" height="108" viewBox="0 0 102 108" fill="none" xmlns="http://www.w3.org/2000/svg">
<path d="M48.0882 13.1667V1.5M77.2059 24.8333L85.3588 16.6667M88.8529 54H100.5M77.2059 83.1667L85.3588 91.3333M48.0882 94.8333V106.5M18.9706 83.1667L10.8176 91.3333M13.1471 54H1.5M18.9706 24.8333L10.8176 16.6667M30.6176 54C30.6176 58.6413 32.4583 63.0925 35.7347 66.3744C39.011 69.6563 43.4547 71.5 48.0882 71.5C52.7217 71.5 57.1654 69.6563 60.4418 66.3744C63.7182 63.0925 65.5588 58.6413 65.5588 54C65.5588 49.3587 63.7182 44.9075 60.4418 41.6256C57.1654 38.3437 52.7217 36.5 48.0882 36.5C43.4547 36.5 39.011 38.3437 35.7347 41.6256C32.4583 44.9075 30.6176 49.3587 30.6176 54Z" stroke="#D44C39" stroke-width="3" stroke-linecap="round" stroke-linejoin="round"/>
</svg>
