<svg width="148" height="100" viewBox="0 0 148 100" fill="none" xmlns="http://www.w3.org/2000/svg">
<path d="M56.25 49.9805C56.25 54.6218 58.0937 59.0729 61.3756 62.3548C64.6575 65.6367 69.1087 67.4805 73.75 67.4805C78.3913 67.4805 82.8425 65.6367 86.1244 62.3548C89.4063 59.0729 91.25 54.6218 91.25 49.9805C91.25 45.3392 89.4063 40.888 86.1244 37.6061C82.8425 34.3242 78.3913 32.4805 73.75 32.4805C69.1087 32.4805 64.6575 34.3242 61.3756 37.6061C58.0937 40.888 56.25 45.3392 56.25 49.9805Z" stroke="#D34C39" stroke-width="3" stroke-linecap="round" stroke-linejoin="round"/>
<path d="M146.5 50C127.167 82.3333 103 98.5 74 98.5C45 98.5 20.8333 82.3333 1.5 50C20.8333 17.6667 45 1.5 74 1.5C103 1.5 127.167 17.6667 146.5 50Z" stroke="#D34C39" stroke-width="3" stroke-linecap="round" stroke-linejoin="round"/>
</svg>
